<svg width="838" height="231" viewBox="0 0 838 231" fill="none" xmlns="http://www.w3.org/2000/svg">
<path d="M233.486 176V156.996L290.32 72.2783H233.841V51.6761H318.914V70.6799L261.903 155.398H319.269V176H233.486ZM382.151 178.131C373.626 178.131 365.93 176.178 359.063 172.27C352.195 168.245 346.749 162.68 342.723 155.575C338.816 148.471 336.862 140.42 336.862 131.421C336.862 122.186 338.816 114.016 342.723 106.911C346.749 99.8072 352.195 94.3014 359.063 90.3941C365.93 86.3684 373.686 84.3555 382.329 84.3555C390.973 84.3555 398.728 86.3684 405.595 90.3941C412.463 94.3014 417.85 99.8072 421.758 106.911C425.783 113.897 427.796 122.008 427.796 131.243C427.796 140.479 425.783 148.649 421.758 155.753C417.732 162.739 412.285 168.245 405.418 172.27C398.669 176.178 390.913 178.131 382.151 178.131ZM382.151 156.641C386.059 156.641 389.493 155.694 392.453 153.799C395.413 151.905 397.781 149.063 399.557 145.274C401.451 141.485 402.399 136.808 402.399 131.243C402.399 125.678 401.51 121.001 399.734 117.213C397.958 113.424 395.531 110.582 392.453 108.687C389.493 106.793 386.118 105.846 382.329 105.846C378.659 105.846 375.284 106.793 372.206 108.687C369.127 110.582 366.7 113.424 364.924 117.213C363.148 121.001 362.26 125.678 362.26 131.243C362.26 136.808 363.148 141.485 364.924 145.274C366.7 149.063 369.068 151.905 372.028 153.799C375.106 155.694 378.481 156.641 382.151 156.641ZM448.452 176V86.4868H470.476L472.784 103.004C475.034 99.0968 477.757 95.7815 480.954 93.0582C484.151 90.3349 487.881 88.2036 492.143 86.6644C496.406 85.1251 501.024 84.3555 505.997 84.3555V110.641H497.649C494.097 110.641 490.782 111.056 487.703 111.884C484.743 112.713 482.138 114.075 479.889 115.969C477.757 117.745 476.1 120.232 474.916 123.429C473.85 126.507 473.317 130.415 473.317 135.151V176H448.452ZM522.352 176V86.4868H547.216V176H522.352ZM534.784 74.9424C530.285 74.9424 526.614 73.64 523.772 71.0351C520.931 68.3118 519.51 64.9965 519.51 61.0892C519.51 57.0634 520.931 53.7481 523.772 51.1433C526.614 48.5384 530.285 47.2359 534.784 47.2359C539.283 47.2359 542.954 48.5384 545.796 51.1433C548.637 53.7481 550.058 57.0634 550.058 61.0892C550.058 64.9965 548.637 68.3118 545.796 71.0351C542.954 73.64 539.283 74.9424 534.784 74.9424ZM604.466 178.131C597.244 178.131 591.028 176.651 585.818 173.691C580.727 170.613 576.819 166.113 574.096 160.193C571.373 154.273 570.011 146.991 570.011 138.348V86.4868H594.876V135.861C594.876 142.847 596.297 148.175 599.138 151.846C602.098 155.398 606.657 157.174 612.814 157.174C616.721 157.174 620.214 156.286 623.293 154.51C626.371 152.734 628.739 150.188 630.397 146.873C632.173 143.439 633.061 139.236 633.061 134.263V86.4868H657.926V176H636.08L634.127 161.614C631.522 166.587 627.674 170.613 622.582 173.691C617.609 176.651 611.571 178.131 604.466 178.131ZM681.386 176V86.4868H703.232L705.186 98.3864C708.027 94.1238 711.757 90.7493 716.375 88.2628C721.111 85.658 726.557 84.3555 732.714 84.3555C737.095 84.3555 741.062 84.9475 744.614 86.1316C748.166 87.3156 751.304 89.0325 754.027 91.2821C756.869 93.5318 759.178 96.3143 760.954 99.6296C764.387 94.8934 768.768 91.1637 774.096 88.4404C779.425 85.7172 785.226 84.3555 791.502 84.3555C799.316 84.3555 805.829 85.954 811.038 89.1509C816.248 92.2294 820.156 96.7879 822.76 102.826C825.484 108.747 826.845 116.029 826.845 124.672V176H802.158V126.803C802.158 119.936 800.797 114.667 798.073 110.996C795.35 107.207 791.147 105.313 785.463 105.313C781.674 105.313 778.359 106.26 775.517 108.155C772.676 109.931 770.426 112.536 768.768 115.969C767.229 119.403 766.459 123.547 766.459 128.402V176H741.772V126.803C741.772 119.936 740.411 114.667 737.687 110.996C734.964 107.207 730.642 105.313 724.722 105.313C721.17 105.313 717.973 106.26 715.131 108.155C712.29 109.931 710.099 112.536 708.56 115.969C707.021 119.403 706.251 123.547 706.251 128.402V176H681.386Z" fill="#938FFF"/>
<path opacity="0.9" d="M1 167.389L70.0361 23.4438L139.532 166.928L92.818 191.341L69.1156 208.154L48.4048 192.492L1 167.389Z" fill="url(#paint0_linear_1372_3209)" stroke="black" stroke-width="0.248342"/>
<path opacity="0.5" d="M94.1983 190.42L108.696 175.68L90.5164 169.001L69.1152 207.924L94.1983 190.42Z" fill="url(#paint1_linear_1372_3209)" stroke="black" stroke-width="0.248342"/>
<path opacity="0.8" d="M108.466 175.91L138.886 166.567L69.1152 150.346L90.7465 169.231L108.466 175.91Z" fill="url(#paint2_linear_1372_3209)" stroke="black" stroke-width="0.248342"/>
<path d="M139.302 166.698L91.667 130.078L69.1152 150.346L139.302 166.698Z" fill="url(#paint3_linear_1372_3209)" stroke="black" stroke-width="0.248342"/>
<path d="M90.5164 169.001L69.1152 150.346V207.924L90.5164 169.001Z" fill="url(#paint4_linear_1372_3209)" stroke="black" stroke-width="0.248342"/>
<path d="M69.1159 207.923V150.115L47.9448 169L69.1159 207.923Z" fill="url(#paint5_linear_1372_3209)" stroke="black" stroke-width="0.248342"/>
<path d="M47.9441 169.001L68.885 150.346L1.68994 166.698L47.9441 169.001Z" fill="url(#paint6_linear_1372_3209)" stroke="black" stroke-width="0.248342"/>
<path d="M69.1152 150.346L91.667 130.079L69.8056 24.1353L69.1152 150.346Z" fill="url(#paint7_linear_1372_3209)" stroke="black" stroke-width="0.248342"/>
<path d="M68.8852 150.346L49.7852 130.079L69.8057 24.3657L68.8852 150.346Z" fill="url(#paint8_linear_1372_3209)" stroke="black" stroke-width="0.248342"/>
<path d="M1.46045 166.698L49.5556 130.078L69.1158 150.346L1.46045 166.698Z" fill="url(#paint9_linear_1372_3209)" stroke="black" stroke-width="0.248342"/>
<defs>
<linearGradient id="paint0_linear_1372_3209" x1="70.2662" y1="23.4438" x2="70.2662" y2="208.154" gradientUnits="userSpaceOnUse">
<stop stop-color="#938FFF"/>
<stop offset="0.465" stop-color="#B7A9FF"/>
<stop offset="1" stop-color="#CB99FF"/>
</linearGradient>
<linearGradient id="paint1_linear_1372_3209" x1="88.9056" y1="169.001" x2="88.9056" y2="207.924" gradientUnits="userSpaceOnUse">
<stop stop-color="#91CAE2"/>
<stop offset="1" stop-color="#DEF5FF"/>
</linearGradient>
<linearGradient id="paint2_linear_1372_3209" x1="69.1152" y1="163.128" x2="138.886" y2="163.128" gradientUnits="userSpaceOnUse">
<stop stop-color="white"/>
<stop offset="1" stop-color="#FCF4A7"/>
</linearGradient>
<linearGradient id="paint3_linear_1372_3209" x1="139.302" y1="148.388" x2="69.1152" y2="148.388" gradientUnits="userSpaceOnUse">
<stop stop-color="#F7B7FB"/>
<stop offset="1" stop-color="#CD8DFE"/>
</linearGradient>
<linearGradient id="paint4_linear_1372_3209" x1="79.8158" y1="150.346" x2="79.8158" y2="207.924" gradientUnits="userSpaceOnUse">
<stop stop-color="#DAE1FF"/>
<stop offset="1" stop-color="#889FFF"/>
</linearGradient>
<linearGradient id="paint5_linear_1372_3209" x1="58.5304" y1="150.115" x2="58.5304" y2="207.923" gradientUnits="userSpaceOnUse">
<stop stop-color="#6482FF"/>
<stop offset="1" stop-color="#D4BEE4"/>
</linearGradient>
<linearGradient id="paint6_linear_1372_3209" x1="1.68994" y1="159.673" x2="68.885" y2="159.673" gradientUnits="userSpaceOnUse">
<stop stop-color="#D292FE"/>
<stop offset="1" stop-color="#EACCFF"/>
</linearGradient>
<linearGradient id="paint7_linear_1372_3209" x1="80.3911" y1="24.1353" x2="80.3911" y2="150.346" gradientUnits="userSpaceOnUse">
<stop stop-color="#FFFCDE"/>
<stop offset="1" stop-color="#8BA2FF"/>
</linearGradient>
<linearGradient id="paint8_linear_1372_3209" x1="59.7954" y1="24.3657" x2="59.7954" y2="150.346" gradientUnits="userSpaceOnUse">
<stop stop-color="#C0CCFF"/>
<stop offset="1" stop-color="#839BFF"/>
</linearGradient>
<linearGradient id="paint9_linear_1372_3209" x1="69.1158" y1="148.388" x2="1.46045" y2="148.388" gradientUnits="userSpaceOnUse">
<stop stop-color="#C787FF"/>
<stop offset="1" stop-color="#FFBFFA"/>
</linearGradient>
</defs>
</svg>
