<svg width="312" height="312" viewBox="0 0 312 312" fill="none" xmlns="http://www.w3.org/2000/svg">
<g clip-path="url(#clip0_355_15130)">
<mask id="mask0_355_15130" style="mask-type:luminance" maskUnits="userSpaceOnUse" x="0" y="0" width="312" height="312">
<path d="M312 0H0V312H312V0Z" fill="white"/>
</mask>
<g mask="url(#mask0_355_15130)">
<path d="M269.729 162.135L274.278 166.258L277.731 163.972C278.917 164.576 280.162 165.019 281.436 165.298L282.652 169.256L288.781 168.956L289.607 164.894C290.845 164.494 292.045 163.932 293.166 163.215L296.827 165.151L300.947 160.606L298.662 157.153C299.266 155.967 299.708 154.717 299.984 153.446L303.945 152.227L303.644 146.098L299.586 145.275C299.184 144.034 298.621 142.838 297.904 141.717L299.841 138.056L295.293 133.934L291.839 136.22C290.653 135.616 289.408 135.173 288.134 134.894L286.918 130.936L280.789 131.236L279.964 135.298C278.725 135.698 277.528 136.262 276.407 136.979L272.744 135.04L268.623 139.586L270.911 143.041C270.307 144.228 269.862 145.475 269.586 146.746L265.625 147.965L265.926 154.094L269.984 154.918C270.387 156.158 270.949 157.354 271.666 158.475L269.729 162.135ZM278.34 144.254C281.568 140.693 287.068 140.424 290.629 143.651C294.187 146.877 294.458 152.378 291.23 155.938C288.002 159.499 282.501 159.769 278.943 156.543C275.382 153.316 275.112 147.814 278.34 144.254Z" fill="url(#paint0_linear_355_15130)"/>
<path d="M270.4 165.075L274.949 169.198L278.402 166.912C279.588 167.516 280.833 167.958 282.107 168.237L283.324 172.196L289.453 171.895L290.278 167.834C291.516 167.434 292.716 166.872 293.837 166.154L297.498 168.091L301.619 163.545L299.333 160.092C299.937 158.906 300.379 157.657 300.656 156.385L304.616 155.166L304.316 149.037L300.257 148.214C299.855 146.973 299.293 145.778 298.575 144.657L300.512 140.996L295.964 136.873L292.511 139.159C291.325 138.555 290.08 138.113 288.806 137.834L287.589 133.875L281.46 134.176L280.635 138.237C279.397 138.637 278.199 139.201 277.078 139.919L273.415 137.98L269.294 142.526L271.583 145.981C270.979 147.167 270.534 148.414 270.257 149.686L266.297 150.905L266.597 157.034L270.656 157.857C271.058 159.098 271.62 160.293 272.337 161.414L270.4 165.075ZM279.011 147.193C282.239 143.632 287.74 143.363 291.301 146.591C294.859 149.816 295.129 155.317 291.901 158.878C288.674 162.439 283.173 162.708 279.614 159.483C276.053 156.255 275.784 150.754 279.011 147.193Z" stroke="black" stroke-width="1.125" stroke-linecap="round" stroke-linejoin="round"/>
<path d="M110.768 81.2764C110.768 89.0063 104.503 95.2719 96.773 95.2719C89.0431 95.2719 82.7769 89.0063 82.7769 81.2764C82.7769 73.5465 89.0431 67.2803 96.773 67.2803C104.503 67.2803 110.768 73.5465 110.768 81.2764Z" fill="#BF92FB"/>
<path d="M109.604 79.9827C109.604 87.7126 103.338 93.9782 95.6083 93.9782C87.8784 93.9782 81.6128 87.7126 81.6128 79.9827C81.6128 72.2528 87.8784 65.9866 95.6083 65.9866C103.338 65.9866 109.604 72.2528 109.604 79.9827Z" stroke="black" stroke-width="1.125" stroke-linecap="round" stroke-linejoin="round"/>
<path d="M99.4109 75.8284C99.4109 77.45 97.9984 78.765 96.2556 78.765C94.5128 78.765 93.0996 77.45 93.0996 75.8284C93.0996 74.2069 94.5128 72.8918 96.2556 72.8918C97.9984 72.8918 99.4109 74.2069 99.4109 75.8284Z" fill="white"/>
<path d="M102.957 86.2531C102.767 82.712 99.8442 79.8967 96.2556 79.8967C92.667 79.8967 89.7438 82.712 89.5537 86.2531H102.957Z" fill="white"/>
<path d="M125.18 152.606C128.117 151.748 138.722 143.574 138.526 139.616C138.297 134.99 132.4 131.147 132.4 131.147C132.4 131.147 140.827 122.956 137.84 121.182C134.892 119.438 125.515 131.19 125.24 131.535C125.299 131.369 126.337 128.291 123.752 126.382C121.092 124.418 120.831 129.115 119.934 132.336C119.036 135.558 112.561 142.341 112.561 142.341" fill="#F7C19B"/>
<path d="M125.18 152.606C128.117 151.748 138.722 143.574 138.526 139.616C138.297 134.99 132.4 131.147 132.4 131.147C132.4 131.147 140.827 122.956 137.84 121.182C134.892 119.438 125.515 131.19 125.24 131.535C125.299 131.369 126.337 128.291 123.752 126.382C121.092 124.418 120.831 129.115 119.934 132.336C119.036 135.558 112.561 142.341 112.561 142.341" stroke="black" stroke-width="1.125" stroke-linecap="round" stroke-linejoin="round"/>
<path d="M125.236 131.543C125.236 131.543 125.172 135.055 123.298 136.662C123.298 136.662 124.201 137.893 124.526 139.549" fill="#F7C19B"/>
<path d="M125.236 131.543C125.236 131.543 125.172 135.055 123.298 136.662C123.298 136.662 124.201 137.893 124.526 139.549" stroke="black" stroke-width="1.125" stroke-linecap="round" stroke-linejoin="round"/>
<path d="M132.625 130.842L127.205 136.217C126.321 137.094 126.289 138.496 127.134 139.348C127.979 140.2 129.381 140.18 130.265 139.303L135.685 133.928C136.57 133.051 136.604 131.647 135.759 130.795C135.335 130.368 134.773 130.162 134.208 130.17C133.638 130.178 133.066 130.405 132.625 130.842Z" fill="#F7C19B"/>
<path d="M132.625 130.842L127.205 136.217C126.321 137.094 126.289 138.496 127.134 139.348C127.979 140.2 129.381 140.18 130.265 139.303L135.685 133.928C136.57 133.051 136.604 131.647 135.759 130.795C135.335 130.368 134.773 130.162 134.208 130.17C133.638 130.178 133.066 130.405 132.625 130.842Z" stroke="black" stroke-width="1.125" stroke-linecap="round" stroke-linejoin="round"/>
<path d="M135.552 134.084L130.326 139.266C129.473 140.112 129.442 141.464 130.257 142.286C131.072 143.108 132.424 143.088 133.276 142.242L138.503 137.059C139.356 136.213 139.389 134.859 138.574 134.037C138.166 133.625 137.623 133.427 137.079 133.434C136.529 133.442 135.977 133.662 135.552 134.084Z" fill="#F7C19B"/>
<path d="M135.552 134.084L130.326 139.266C129.473 140.112 129.442 141.464 130.257 142.286C131.072 143.107 132.424 143.088 133.276 142.242L138.503 137.059C139.356 136.213 139.389 134.859 138.574 134.037C138.166 133.625 137.623 133.427 137.079 133.434C136.529 133.442 135.977 133.662 135.552 134.084Z" stroke="black" stroke-width="1.125" stroke-linecap="round" stroke-linejoin="round"/>
<path d="M137.551 138.025L133.147 142.394C132.428 143.107 132.457 144.3 133.211 145.061C133.966 145.821 135.159 145.86 135.878 145.147L139.917 141.141C140.636 140.428 140.974 138.87 140.22 138.11C139.842 137.728 139.354 137.531 138.874 137.515C138.388 137.499 137.91 137.67 137.551 138.025Z" fill="#F7C19B"/>
<path d="M137.551 138.025L133.147 142.394C132.428 143.107 132.457 144.3 133.211 145.061C133.966 145.821 135.159 145.86 135.878 145.147L139.917 141.141C140.636 140.428 140.974 138.87 140.22 138.11C139.842 137.728 139.354 137.531 138.874 137.515C138.388 137.499 137.91 137.67 137.551 138.025Z" stroke="black" stroke-width="1.125" stroke-linecap="round" stroke-linejoin="round"/>
<path d="M126.281 153.919L119.839 159.88L107.161 145.069L113.81 139.026C118.291 135.809 131.456 149.665 126.281 153.919Z" fill="#DAD4FC"/>
<path d="M126.281 153.919L119.839 159.88L107.161 145.069L113.81 139.026C118.291 135.809 131.456 149.665 126.281 153.919Z" stroke="black" stroke-width="1.125" stroke-linecap="round" stroke-linejoin="round"/>
<path d="M120.455 160.971C120.455 160.971 99.2972 186.833 84.2407 185.796C69.1798 184.754 54.5879 152.165 54.5879 152.165L63.3969 128.368C63.3969 128.368 71.4766 130.984 75.0709 134.594C78.6651 138.204 88.1359 158.995 88.1359 158.995L105.087 144.028C113.467 135.783 127.004 154.049 120.455 160.971Z" stroke="black" stroke-width="1.125" stroke-linecap="round" stroke-linejoin="round"/>
<path d="M50.8848 294.186L43.7588 225.613L43.913 193.861L71.7839 207.33L81.7021 294.186H50.8848Z" fill="url(#paint1_linear_355_15130)"/>
<path d="M50.8848 294.186L43.7588 225.613L43.913 193.861L71.7839 207.33L81.7021 294.186" stroke="black" stroke-width="1.125" stroke-linecap="round" stroke-linejoin="round"/>
<path d="M40.1364 294.186L9.04248 294.341C13.0991 268.625 17.5865 212.351 18.2788 208.733C19.1788 204.03 56.1831 213.828 56.1831 213.828L51.441 237.576L40.1364 294.186Z" fill="url(#paint2_linear_355_15130)"/>
<path d="M9.04248 294.186C13.3294 268.05 18.3848 211.015 19.1161 207.339C20.0673 202.559 59.1745 212.517 59.1745 212.517" stroke="black" stroke-width="1.125" stroke-linecap="round" stroke-linejoin="round"/>
<path d="M51.7371 236.652L40.4326 294.186" stroke="black" stroke-width="1.125" stroke-linecap="round" stroke-linejoin="round"/>
<path d="M31.7991 93.1648L32.637 94.5066L34.4749 97.4487C33.2226 97.8405 29.517 98.9989 26.8017 104.695C26.6682 104.972 26.5396 105.255 26.4123 105.555C23.6073 112.149 25.5927 115.35 30.0417 119.445C38.8837 127.577 48.1871 138.025 34.2086 148.416C20.2332 158.805 4.31267 132.058 7.53384 118.076C9.78242 108.315 16.8682 101.766 22.8096 97.8417C26.4507 95.4359 29.6572 94.0204 31.0545 93.4518C31.5316 93.2592 31.7991 93.1648 31.7991 93.1648Z" fill="black"/>
<path d="M31.7991 93.1648L32.637 94.5066L34.4749 97.4487C33.2226 97.8405 29.517 98.9989 26.8017 104.695C26.6682 104.972 26.5396 105.255 26.4123 105.555C23.6073 112.149 25.5927 115.35 30.0417 119.445C38.8837 127.577 48.1871 138.025 34.2086 148.416C20.2332 158.805 4.31267 132.058 7.53384 118.076C9.78242 108.315 16.8682 101.766 22.8096 97.8417C26.4507 95.4359 29.6572 94.0204 31.0545 93.4518C31.5316 93.2592 31.7991 93.1648 31.7991 93.1648Z" stroke="black" stroke-width="1.125" stroke-linecap="round" stroke-linejoin="round"/>
<path d="M32.637 94.507L34.4748 97.449C33.2226 97.8409 29.517 98.9993 26.8016 104.695C24.7437 102.781 23.3726 99.4234 22.8096 97.8421C26.4506 95.4363 29.6571 94.0207 31.0544 93.4521L32.637 94.507Z" fill="url(#paint3_linear_355_15130)"/>
<path d="M65.2253 129.026C63.0078 128.286 60.6251 127.671 58.1541 127.177C54.8933 126.523 51.4814 126.082 48.0921 125.858C45.7887 125.7 43.4956 125.647 41.2713 125.69C38.0008 125.759 34.8778 126.039 32.0747 126.539C27.8036 127.296 21.2461 128.966 19.0974 130.73C13.4717 135.345 16.8653 160.782 15.8159 183.487C15.0274 200.544 12.2505 217.921 13.3906 218.677C13.3144 223.744 77.2269 225.223 77.3031 220.156L74.8235 174.809C74.8235 174.809 80.7034 167.501 78.8576 160.108C77.0081 152.714 71.7791 147.173 71.7791 147.173C71.7791 147.173 71.6578 142.118 70.4665 137.315" stroke="black" stroke-width="1.125" stroke-linecap="round" stroke-linejoin="round"/>
<path d="M57.8252 140.539C54.1696 141.042 50.8924 135.959 50.8924 135.959C50.8924 135.959 48.7437 128.122 48.0923 125.858C51.4816 126.082 54.8935 126.523 58.1543 127.177C59.6479 131.257 60.7703 140.131 57.8252 140.539Z" fill="#DAD4FC"/>
<path d="M57.8252 140.539C54.1696 141.042 50.8924 135.959 50.8924 135.959C50.8924 135.959 48.7437 128.122 48.0923 125.858C51.4816 126.082 54.8935 126.523 58.1543 127.177C59.6479 131.257 60.7703 140.131 57.8252 140.539Z" stroke="black" stroke-width="1.125" stroke-linecap="round" stroke-linejoin="round"/>
<path d="M50.8927 135.959C50.8927 135.959 50.1791 144.208 45.9805 144.11C39.3176 143.952 32.1215 132.321 32.0752 126.539C34.8783 126.039 38.0014 125.759 41.2719 125.69L42.9958 127.77L50.8927 135.959Z" fill="#DAD4FC"/>
<path d="M50.8927 135.959C50.8927 135.959 50.1791 144.208 45.9805 144.11C39.3176 143.952 32.1215 132.321 32.0752 126.539C34.8783 126.039 38.0014 125.759 41.2719 125.69L42.9958 127.77L50.8927 135.959Z" stroke="black" stroke-width="1.125" stroke-linecap="round" stroke-linejoin="round"/>
<path d="M38.6516 109.08C38.6516 109.08 38.2866 122.297 36.6626 126.11C36.6626 126.11 42.4821 135.946 50.8921 135.959C56.7165 135.968 54.5935 126.717 54.5935 126.717C54.5935 126.717 54.1925 119.673 57.2168 115.865C60.2411 112.056 38.6516 109.08 38.6516 109.08Z" fill="#F7C19B"/>
<path d="M38.6516 109.08C38.6516 109.08 38.2866 122.297 36.6626 126.11C36.6626 126.11 42.4821 135.946 50.8921 135.959C56.7165 135.968 54.5935 126.717 54.5935 126.717C54.5935 126.717 54.1925 119.673 57.2168 115.865C60.2411 112.056 38.6516 109.08 38.6516 109.08Z" stroke="black" stroke-width="1.125" stroke-linecap="round" stroke-linejoin="round"/>
<path d="M77.8628 189.708C77.8628 189.708 84.1089 180.33 80.666 179.383C77.2175 178.442 67.1494 191.573 67.1494 191.573" fill="#F7C19B"/>
<path d="M77.8628 189.708C77.8628 189.708 84.1089 180.33 80.666 179.383C77.2175 178.442 67.1494 191.573 67.1494 191.573" fill="#F7C19B"/>
<path d="M77.8628 189.708C77.8628 189.708 84.1089 180.33 80.666 179.383C77.2175 178.442 67.1494 191.573 67.1494 191.573" stroke="black" stroke-width="1.125" stroke-linecap="round" stroke-linejoin="round"/>
<path d="M99.0064 212.524L81.156 211.21C78.5546 211.019 76.6009 208.755 76.7922 206.154L79.0847 174.987C79.276 172.385 81.5399 170.432 84.1413 170.624L101.992 171.936C104.593 172.127 106.547 174.391 106.355 176.993L104.063 208.16C103.872 210.761 101.608 212.715 99.0064 212.524Z" fill="#BF92FB"/>
<path d="M99.0064 212.524L81.156 211.21C78.5546 211.019 76.6009 208.755 76.7922 206.154L79.0847 174.987C79.276 172.385 81.5399 170.432 84.1413 170.624L101.992 171.936C104.593 172.127 106.547 174.391 106.355 176.993L104.063 208.16C103.872 210.761 101.608 212.715 99.0064 212.524Z" stroke="black" stroke-width="1.125" stroke-linecap="round" stroke-linejoin="round"/>
<path d="M67.1494 191.573L68.9251 205.659C68.9251 205.659 88.2966 208.136 92.7237 205.074C95.7291 202.991 93.7888 201.86 93.7888 201.86C97.2629 199.763 93.8114 197.828 93.8114 197.828C95.3421 197.397 96.6651 195.68 95.2312 194.484C93.8291 193.305 86.4538 194.02 86.1296 194.051C86.4757 193.924 94.8242 192.304 93.7828 190.058C92.1259 186.484 75.6612 189.162 75.6612 189.162" fill="#F7C19B"/>
<path d="M67.1494 191.573L68.9251 205.659C68.9251 205.659 88.2966 208.136 92.7237 205.074C95.7291 202.991 93.7888 201.86 93.7888 201.86C97.2629 199.763 93.8114 197.828 93.8114 197.828C95.3421 197.397 96.6651 195.68 95.2312 194.484C93.8291 193.305 86.4538 194.02 86.1296 194.051C86.4757 193.924 94.8242 192.304 93.7828 190.058C92.1259 186.484 75.6612 189.162 75.6612 189.162" stroke="black" stroke-width="1.125" stroke-linecap="round" stroke-linejoin="round"/>
<path d="M93.8121 197.825L86.5679 198.583" stroke="black" stroke-width="1.125" stroke-linecap="round" stroke-linejoin="round"/>
<path d="M93.7847 201.859L86.4868 202.438" stroke="black" stroke-width="1.125" stroke-linecap="round" stroke-linejoin="round"/>
<path d="M68.27 206.968L59.5066 207.457L59.1738 187.963L68.1493 187.543C73.652 187.919 74.9682 206.987 68.27 206.968Z" fill="#DAD4FC"/>
<path d="M68.27 206.968L59.5066 207.457L59.1738 187.963L68.1493 187.543C73.652 187.919 74.9682 206.987 68.27 206.968Z" stroke="black" stroke-width="1.125" stroke-linecap="round" stroke-linejoin="round"/>
<path d="M19.9246 130.173C19.9246 130.173 12.4122 134.366 10.7297 141.831C8.54879 151.507 -0.328586 196.751 7.45435 205.217C17.1849 215.801 60.849 208.314 60.849 208.314C66.9397 208.483 67.1469 186.457 61.0562 186.289L27.7307 187.106C27.7307 187.106 33.507 154.663 30.5277 146.624" stroke="black" stroke-width="1.125" stroke-linecap="round" stroke-linejoin="round"/>
<path d="M38.6939 110.359C38.6939 110.359 38.5982 110.313 38.4319 110.226L38.4325 110.223C37.1845 109.555 31.9804 106.432 34.023 101.842C36.3338 96.6408 42.0089 100.392 42.0089 100.392C42.0089 100.392 47.241 81.3492 60.6808 83.2614C62.6186 83.5362 64.3139 85.2449 65.6868 87.7915C70.7519 97.1917 71.3924 118.007 63.2572 120.28C55.9697 122.319 49.6035 119.534 45.1795 116.402" fill="#F7C19B"/>
<path d="M38.6939 110.359C38.6939 110.359 38.5982 110.313 38.4319 110.226L38.4325 110.223C37.1845 109.555 31.9804 106.432 34.023 101.842C36.3338 96.6408 42.0089 100.392 42.0089 100.392C42.0089 100.392 47.241 81.3492 60.6808 83.2614C62.6186 83.5362 64.3139 85.2449 65.6868 87.7915C70.7519 97.1917 71.3924 118.007 63.2572 120.28C55.9697 122.319 49.6035 119.534 45.1795 116.402" stroke="black" stroke-width="1.125" stroke-linecap="round" stroke-linejoin="round"/>
<path d="M65.687 87.7917C61.2367 91.6728 50.2503 91.0824 48.3271 92.0415C45.9115 93.2432 46.3357 104.443 44.7245 103.96C43.1169 103.477 42.0091 100.392 42.0091 100.392C42.0091 100.392 36.334 96.6411 34.0232 101.843C31.9806 106.433 37.1847 109.555 38.4327 110.223L38.4321 110.226C38.4321 110.226 35.9586 113.993 30.6406 108.214C24.7577 101.821 21.801 87.4931 37.1914 78.5956C50.9602 70.639 67.7016 75.6347 67.5614 83.8533C67.534 85.5236 66.8253 86.8021 65.687 87.7917Z" fill="black"/>
<path d="M65.687 87.7917C61.2367 91.6728 50.2503 91.0824 48.3271 92.0415C45.9115 93.2432 46.3357 104.443 44.7245 103.96C43.1169 103.477 42.0091 100.392 42.0091 100.392C42.0091 100.392 36.334 96.6411 34.0232 101.843C31.9806 106.433 37.1847 109.555 38.4327 110.223L38.4321 110.226C38.4321 110.226 35.9586 113.993 30.6406 108.214C24.7577 101.821 21.801 87.4931 37.1914 78.5956C50.9602 70.639 67.7016 75.6347 67.5614 83.8533C67.534 85.5236 66.8253 86.8021 65.687 87.7917Z" stroke="black" stroke-width="1.125" stroke-linecap="round" stroke-linejoin="round"/>
<path d="M56.72 97.1487C56.72 97.1487 54.5275 96.239 52.5464 98.6533L56.72 97.1487Z" fill="white"/>
<path d="M56.72 97.1487C56.72 97.1487 54.5275 96.239 52.5464 98.6533" stroke="black" stroke-width="1.125" stroke-linecap="round" stroke-linejoin="round"/>
<path d="M65.1264 95.387C65.1264 95.387 62.9332 94.4772 60.9521 96.8916L65.1264 95.387Z" fill="white"/>
<path d="M65.1264 95.387C65.1264 95.387 62.9332 94.4772 60.9521 96.8916" stroke="black" stroke-width="1.125" stroke-linecap="round" stroke-linejoin="round"/>
<path d="M61.022 101.604C61.894 103.774 62.7654 105.943 63.6374 108.113C63.7812 108.47 63.9275 108.846 63.8879 109.228C63.8367 109.726 63.4723 110.147 63.0396 110.396C62.607 110.646 62.1091 110.754 61.6204 110.858" fill="white"/>
<path d="M61.022 101.604C61.894 103.774 62.7654 105.943 63.6374 108.113C63.7812 108.47 63.9275 108.846 63.8879 109.228C63.8367 109.726 63.4723 110.147 63.0396 110.396C62.607 110.646 62.1091 110.754 61.6204 110.858" stroke="black" stroke-width="1.125" stroke-linecap="round" stroke-linejoin="round"/>
<path d="M58.1172 114.6C59.7192 115.434 61.6753 115.556 63.3688 114.929L58.1172 114.6Z" fill="white"/>
<path d="M58.1172 114.6C59.7192 115.434 61.6753 115.556 63.3688 114.929" stroke="black" stroke-width="1.125" stroke-linecap="round" stroke-linejoin="round"/>
<path d="M51.3013 135.927C54.8972 143.505 55.8685 152.297 54.0124 160.477" stroke="black" stroke-width="1.125" stroke-linecap="round" stroke-linejoin="round"/>
<path d="M58.0541 144.5C58.0541 145.27 57.4307 145.893 56.6611 145.893C55.8915 145.893 55.2681 145.27 55.2681 144.5C55.2681 143.73 55.8915 143.107 56.6611 143.107C57.4307 143.107 58.0541 143.73 58.0541 144.5Z" fill="#DAD4FC"/>
<path d="M59.1459 149.919C59.1459 150.688 58.5225 151.312 57.7529 151.312C56.9833 151.312 56.3599 150.688 56.3599 149.919C56.3599 149.149 56.9833 148.526 57.7529 148.526C58.5225 148.526 59.1459 149.149 59.1459 149.919Z" fill="#DAD4FC"/>
<path d="M59.6782 155.505C59.6782 156.275 59.0548 156.898 58.2851 156.898C57.5155 156.898 56.8921 156.275 56.8921 155.505C56.8921 154.736 57.5155 154.112 58.2851 154.112C59.0548 154.112 59.6782 154.736 59.6782 155.505Z" fill="#DAD4FC"/>
<path d="M56.9208 78.3333C59.3065 78.8329 60.7928 81.616 60.2541 83.9931C59.7154 86.3703 57.5241 88.1564 55.1372 88.6512C53.6375 88.962 52.0872 88.834 50.5565 88.8767C49.0257 88.9193 47.4213 89.1667 46.2086 90.1015C44.9959 91.0363 44.339 92.8327 45.0995 94.1618" stroke="white" stroke-width="1.125" stroke-linejoin="round"/>
<path d="M33.877 86.0513C31.5394 87.0628 29.9757 89.4004 29.3255 91.8629C28.6753 94.3254 28.8204 96.9237 29.0854 99.4569" stroke="white" stroke-width="1.125" stroke-linejoin="round"/>
<path d="M14.8094 109.109C9.64855 115.223 8.53522 124.454 12.0934 131.62" stroke="white" stroke-width="1.125" stroke-linejoin="round"/>
<path d="M15.2528 116.528C13.485 120.212 13.4643 124.689 15.1974 128.389" stroke="white" stroke-width="1.125" stroke-linejoin="round"/>
<path d="M23.4051 109.878C22.1852 112.241 22.2205 115.209 23.4959 117.543C24.3046 119.023 25.5434 120.21 26.6098 121.517C27.6762 122.823 28.6104 124.367 28.6104 126.053" stroke="white" stroke-width="1.125" stroke-linejoin="round"/>
<g opacity="0.850818">
<path d="M55.0923 101.958C55.2477 102.788 55.8887 103.364 56.5243 103.245C57.1599 103.126 57.5493 102.357 57.3939 101.527C57.2385 100.697 56.5974 100.121 55.9618 100.24C55.3263 100.359 54.9369 101.128 55.0923 101.958Z" fill="black"/>
<path d="M62.5137 99.6243C62.6691 100.454 63.3101 101.03 63.9457 100.911C64.5813 100.793 64.9707 100.023 64.8153 99.1935C64.6599 98.3635 64.0188 97.7871 63.3832 97.9059C62.7477 98.0247 62.3583 98.7944 62.5137 99.6243Z" fill="black"/>
</g>
<path d="M265.074 126.098C265.074 158.493 238.813 184.755 206.418 184.755C174.023 184.755 147.761 158.493 147.761 126.098C147.761 93.7033 174.023 67.4417 206.418 67.4417C238.813 67.4417 265.074 93.7033 265.074 126.098Z" fill="url(#paint4_linear_355_15130)"/>
<path d="M261.728 120.126C261.728 152.521 235.466 178.783 203.071 178.783C170.676 178.783 144.415 152.521 144.415 120.126C144.415 87.7314 170.676 61.4697 203.071 61.4697C235.466 61.4697 261.728 87.7314 261.728 120.126Z" stroke="black" stroke-width="1.125" stroke-linecap="round" stroke-linejoin="round"/>
<path d="M168.414 72.8037C173.54 76.5654 179.299 79.5135 185.502 81.4526C191.047 83.1972 196.952 84.1375 203.072 84.1375C209.192 84.1375 215.093 83.1972 220.638 81.4526C226.841 79.5135 232.606 76.5654 237.732 72.8086" stroke="black" stroke-width="1.125" stroke-linecap="round" stroke-linejoin="round"/>
<path d="M168.423 167.455C173.549 163.698 179.304 160.75 185.502 158.811C191.047 157.066 196.952 156.126 203.072 156.126C209.192 156.126 215.093 157.066 220.638 158.811C226.841 160.75 232.596 163.693 237.722 167.455" stroke="black" stroke-width="1.125" stroke-linecap="round" stroke-linejoin="round"/>
<path d="M226.442 120.126C226.442 152.521 215.978 178.783 203.071 178.783C190.164 178.783 179.7 152.521 179.7 120.126C179.7 87.7314 190.164 61.4697 203.071 61.4697C215.978 61.4697 226.442 87.7314 226.442 120.126Z" stroke="black" stroke-width="1.125" stroke-linecap="round" stroke-linejoin="round"/>
<path d="M146.818 103.477C163.088 106.415 182.378 108.125 203.072 108.125C223.762 108.125 243.053 106.415 259.327 103.477" stroke="black" stroke-width="1.125" stroke-linecap="round" stroke-linejoin="round"/>
<path d="M146.818 136.776C163.088 133.838 182.378 132.128 203.072 132.128C223.762 132.128 243.053 133.838 259.327 136.776" stroke="black" stroke-width="1.125" stroke-linecap="round" stroke-linejoin="round"/>
<path d="M232.121 120.126C232.121 136.171 219.115 149.177 203.071 149.177C187.027 149.177 174.021 136.171 174.021 120.126C174.021 104.082 187.027 91.0762 203.071 91.0762C219.115 91.0762 232.121 104.082 232.121 120.126Z" fill="white"/>
<path d="M232.121 120.126C232.121 136.171 219.115 149.177 203.071 149.177C187.027 149.177 174.021 136.171 174.021 120.126C174.021 104.082 187.027 91.0762 203.071 91.0762C219.115 91.0762 232.121 104.082 232.121 120.126Z" stroke="black" stroke-width="1.125" stroke-linecap="round" stroke-linejoin="round"/>
<path d="M206.737 137.047C204.993 138.799 202.163 138.799 200.419 137.047C198.675 135.303 198.675 132.473 200.419 130.729C202.163 128.985 204.993 128.985 206.737 130.729C208.489 132.473 208.489 135.303 206.737 137.047Z" fill="black"/>
<path d="M194.107 128.391C193.844 128.391 193.581 128.29 193.38 128.089C192.978 127.687 192.978 127.037 193.38 126.634C196.1 123.914 199.722 122.416 203.578 122.415H203.579C207.436 122.415 211.057 123.913 213.776 126.633C214.178 127.035 214.178 127.686 213.776 128.088C213.374 128.491 212.724 128.491 212.322 128.088C209.991 125.757 206.885 124.473 203.579 124.473H203.578C200.272 124.474 197.167 125.757 194.835 128.089C194.634 128.29 194.371 128.391 194.107 128.391Z" fill="black"/>
<path d="M189.641 123.924C189.378 123.924 189.115 123.824 188.913 123.623C188.511 123.22 188.511 122.57 188.913 122.167C197 114.082 210.156 114.08 218.243 122.167C218.645 122.569 218.645 123.22 218.243 123.622C217.84 124.024 217.19 124.024 216.788 123.622C209.504 116.339 197.653 116.34 190.369 123.623C190.168 123.824 189.904 123.924 189.641 123.924Z" fill="black"/>
<path d="M185.175 119.458C184.912 119.458 184.649 119.358 184.448 119.157C184.045 118.755 184.045 118.104 184.448 117.702C194.997 107.153 212.161 107.152 222.709 117.701C223.111 118.103 223.111 118.754 222.709 119.156C222.307 119.559 221.657 119.559 221.254 119.156C211.508 109.41 195.65 109.412 185.903 119.157C185.702 119.358 185.438 119.458 185.175 119.458Z" fill="black"/>
<path d="M180.708 114.992C180.445 114.992 180.182 114.891 179.981 114.69C179.579 114.288 179.579 113.638 179.981 113.235C192.993 100.224 214.164 100.224 227.175 113.235C227.577 113.637 227.577 114.288 227.175 114.69C226.773 115.092 226.123 115.092 225.72 114.69C213.512 102.482 193.645 102.482 181.436 114.69C181.235 114.891 180.972 114.992 180.708 114.992Z" fill="black"/>
<path d="M253.992 90.9931H281.879V44.5935" stroke="black" stroke-width="1.125" stroke-linecap="round" stroke-linejoin="round"/>
<path d="M260.929 109.79H270.874V70.3118" stroke="black" stroke-width="1.125" stroke-linecap="round" stroke-linejoin="round"/>
<path d="M203.071 178.783V206.89H272.135V189.24" stroke="black" stroke-width="1.125" stroke-linecap="round" stroke-linejoin="round"/>
<path d="M251.471 153.268V192.836H227.477V231.912" stroke="black" stroke-width="1.125" stroke-linecap="round" stroke-linejoin="round"/>
<path d="M176.826 172.594V217.732H143.278V195.45" stroke="black" stroke-width="1.125" stroke-linecap="round" stroke-linejoin="round"/>
<path d="M154.422 153.268H140.776V171.085H157.409V235.382" stroke="black" stroke-width="1.125" stroke-linecap="round" stroke-linejoin="round"/>
<path d="M162.972 77.3228V63.1682H119.757V97.5705" stroke="black" stroke-width="1.125" stroke-linecap="round" stroke-linejoin="round"/>
<path d="M145.323 109.79H136.23V41.0637" stroke="black" stroke-width="1.125" stroke-linecap="round" stroke-linejoin="round"/>
<path d="M204.659 61.4699V48.9222H245.743V23.0774" stroke="black" stroke-width="1.125" stroke-linecap="round" stroke-linejoin="round"/>
<path d="M182.876 27.4478V38.3738H226.442V66.3112" stroke="black" stroke-width="1.125" stroke-linecap="round" stroke-linejoin="round"/>
<path d="M286.418 45.4339C286.418 47.8476 284.461 49.8043 282.048 49.8043C279.634 49.8043 277.677 47.8476 277.677 45.4339C277.677 43.0202 279.634 41.0635 282.048 41.0635C284.461 41.0635 286.418 43.0202 286.418 45.4339Z" fill="#BF92FB"/>
<path d="M286.418 45.4339C286.418 47.8476 284.461 49.8043 282.048 49.8043C279.634 49.8043 277.677 47.8476 277.677 45.4339C277.677 43.0202 279.634 41.0635 282.048 41.0635C284.461 41.0635 286.418 43.0202 286.418 45.4339Z" stroke="black" stroke-width="1.125" stroke-linecap="round" stroke-linejoin="round"/>
<path d="M250.115 22.8248C250.115 25.2385 248.157 27.1952 245.743 27.1952C243.33 27.1952 241.373 25.2385 241.373 22.8248C241.373 20.411 243.33 18.4543 245.743 18.4543C248.157 18.4543 250.115 20.411 250.115 22.8248Z" fill="#BF92FB"/>
<path d="M250.115 22.8248C250.115 25.2385 248.157 27.1952 245.743 27.1952C243.33 27.1952 241.373 25.2385 241.373 22.8248C241.373 20.411 243.33 18.4543 245.743 18.4543C248.157 18.4543 250.115 20.411 250.115 22.8248Z" stroke="black" stroke-width="1.125" stroke-linecap="round" stroke-linejoin="round"/>
<path d="M187.246 27.1954C187.246 29.6091 185.29 31.5658 182.876 31.5658C180.462 31.5658 178.505 29.6091 178.505 27.1954C178.505 24.7817 180.462 22.825 182.876 22.825C185.29 22.825 187.246 24.7817 187.246 27.1954Z" fill="url(#paint5_linear_355_15130)"/>
<path d="M187.246 27.1954C187.246 29.6091 185.29 31.5658 182.876 31.5658C180.462 31.5658 178.505 29.6091 178.505 27.1954C178.505 24.7817 180.462 22.825 182.876 22.825C185.29 22.825 187.246 24.7817 187.246 27.1954Z" stroke="black" stroke-width="1.125" stroke-linecap="round" stroke-linejoin="round"/>
<path d="M140.6 40.2231C140.6 42.6368 138.644 44.5935 136.23 44.5935C133.816 44.5935 131.859 42.6368 131.859 40.2231C131.859 37.8094 133.816 35.8521 136.23 35.8521C138.644 35.8521 140.6 37.8094 140.6 40.2231Z" fill="#BF92FB"/>
<path d="M140.6 40.2231C140.6 42.6368 138.644 44.5935 136.23 44.5935C133.816 44.5935 131.859 42.6368 131.859 40.2231C131.859 37.8094 133.816 35.8521 136.23 35.8521C138.644 35.8521 140.6 37.8094 140.6 40.2231Z" stroke="black" stroke-width="1.125" stroke-linecap="round" stroke-linejoin="round"/>
<path d="M124.127 97.9389C124.127 100.353 122.17 102.309 119.756 102.309C117.342 102.309 115.386 100.353 115.386 97.9389C115.386 95.5252 117.342 93.5679 119.756 93.5679C122.17 93.5679 124.127 95.5252 124.127 97.9389Z" fill="url(#paint6_linear_355_15130)"/>
<path d="M124.127 97.9389C124.127 100.353 122.17 102.309 119.756 102.309C117.342 102.309 115.386 100.353 115.386 97.9389C115.386 95.5252 117.342 93.5679 119.756 93.5679C122.17 93.5679 124.127 95.5252 124.127 97.9389Z" stroke="black" stroke-width="1.125" stroke-linecap="round" stroke-linejoin="round"/>
<path d="M274.643 70.6815C274.643 73.0952 272.687 75.0519 270.273 75.0519C267.859 75.0519 265.902 73.0952 265.902 70.6815C265.902 68.2677 267.859 66.311 270.273 66.311C272.687 66.311 274.643 68.2677 274.643 70.6815Z" fill="url(#paint7_linear_355_15130)"/>
<path d="M274.643 70.6815C274.643 73.0952 272.687 75.0519 270.273 75.0519C267.859 75.0519 265.902 73.0952 265.902 70.6815C265.902 68.2677 267.859 66.311 270.273 66.311C272.687 66.311 274.643 68.2677 274.643 70.6815Z" stroke="black" stroke-width="1.125" stroke-linecap="round" stroke-linejoin="round"/>
<path d="M276.506 188.22C276.506 190.633 274.549 192.59 272.135 192.59C269.721 192.59 267.765 190.633 267.765 188.22C267.765 185.806 269.721 183.849 272.135 183.849C274.549 183.849 276.506 185.806 276.506 188.22Z" fill="#BF92FB"/>
<path d="M276.506 188.22C276.506 190.633 274.549 192.59 272.135 192.59C269.721 192.59 267.765 190.633 267.765 188.22C267.765 185.806 269.721 183.849 272.135 183.849C274.549 183.849 276.506 185.806 276.506 188.22Z" stroke="black" stroke-width="1.125" stroke-linecap="round" stroke-linejoin="round"/>
<path d="M231.847 231.011C231.847 233.425 229.891 235.382 227.477 235.382C225.063 235.382 223.106 233.425 223.106 231.011C223.106 228.597 225.063 226.641 227.477 226.641C229.891 226.641 231.847 228.597 231.847 231.011Z" fill="url(#paint8_linear_355_15130)"/>
<path d="M231.847 231.011C231.847 233.425 229.891 235.382 227.477 235.382C225.063 235.382 223.106 233.425 223.106 231.011C223.106 228.597 225.063 226.641 227.477 226.641C229.891 226.641 231.847 228.597 231.847 231.011Z" stroke="black" stroke-width="1.125" stroke-linecap="round" stroke-linejoin="round"/>
<path d="M161.78 234.415C161.78 236.829 159.823 238.786 157.409 238.786C154.996 238.786 153.039 236.829 153.039 234.415C153.039 232.001 154.996 230.045 157.409 230.045C159.823 230.045 161.78 232.001 161.78 234.415Z" fill="#BF92FB"/>
<path d="M161.78 234.415C161.78 236.829 159.823 238.786 157.409 238.786C154.996 238.786 153.039 236.829 153.039 234.415C153.039 232.001 154.996 230.045 157.409 230.045C159.823 230.045 161.78 232.001 161.78 234.415Z" stroke="black" stroke-width="1.125" stroke-linecap="round" stroke-linejoin="round"/>
<path d="M147.649 196.961C147.649 199.375 145.692 201.332 143.278 201.332C140.865 201.332 138.907 199.375 138.907 196.961C138.907 194.547 140.865 192.59 143.278 192.59C145.692 192.59 147.649 194.547 147.649 196.961Z" fill="url(#paint9_linear_355_15130)"/>
<path d="M147.649 196.961C147.649 199.375 145.692 201.332 143.278 201.332C140.865 201.332 138.907 199.375 138.907 196.961C138.907 194.547 140.865 192.59 143.278 192.59C145.692 192.59 147.649 194.547 147.649 196.961Z" stroke="black" stroke-width="1.125" stroke-linecap="round" stroke-linejoin="round"/>
</g>
</g>
<defs>
<linearGradient id="paint0_linear_355_15130" x1="297.116" y1="164.911" x2="272.455" y2="135.281" gradientUnits="userSpaceOnUse">
<stop stop-color="white"/>
<stop offset="1" stop-color="#FCF4A7"/>
</linearGradient>
<linearGradient id="paint1_linear_355_15130" x1="81.7021" y1="244.024" x2="43.7588" y2="244.024" gradientUnits="userSpaceOnUse">
<stop stop-color="#F7B7FB"/>
<stop offset="1" stop-color="#CD8DFE"/>
</linearGradient>
<linearGradient id="paint2_linear_355_15130" x1="56.1831" y1="250.899" x2="9.04248" y2="250.899" gradientUnits="userSpaceOnUse">
<stop stop-color="#F7B7FB"/>
<stop offset="1" stop-color="#CD8DFE"/>
</linearGradient>
<linearGradient id="paint3_linear_355_15130" x1="22.8096" y1="99.0736" x2="34.4748" y2="99.0736" gradientUnits="userSpaceOnUse">
<stop stop-color="white"/>
<stop offset="1" stop-color="#FCF4A7"/>
</linearGradient>
<linearGradient id="paint4_linear_355_15130" x1="206.418" y1="67.4417" x2="206.418" y2="184.755" gradientUnits="userSpaceOnUse">
<stop stop-color="#E3CEFF"/>
<stop offset="1" stop-color="#C497FF"/>
</linearGradient>
<linearGradient id="paint5_linear_355_15130" x1="178.505" y1="27.1954" x2="187.246" y2="27.1954" gradientUnits="userSpaceOnUse">
<stop stop-color="white"/>
<stop offset="1" stop-color="#FCF4A7"/>
</linearGradient>
<linearGradient id="paint6_linear_355_15130" x1="115.386" y1="97.9386" x2="124.127" y2="97.9386" gradientUnits="userSpaceOnUse">
<stop stop-color="white"/>
<stop offset="1" stop-color="#FCF4A7"/>
</linearGradient>
<linearGradient id="paint7_linear_355_15130" x1="265.902" y1="70.6815" x2="274.643" y2="70.6815" gradientUnits="userSpaceOnUse">
<stop stop-color="white"/>
<stop offset="1" stop-color="#FCF4A7"/>
</linearGradient>
<linearGradient id="paint8_linear_355_15130" x1="223.106" y1="231.011" x2="231.847" y2="231.011" gradientUnits="userSpaceOnUse">
<stop stop-color="white"/>
<stop offset="1" stop-color="#FCF4A7"/>
</linearGradient>
<linearGradient id="paint9_linear_355_15130" x1="138.907" y1="196.961" x2="147.649" y2="196.961" gradientUnits="userSpaceOnUse">
<stop stop-color="white"/>
<stop offset="1" stop-color="#FCF4A7"/>
</linearGradient>
<clipPath id="clip0_355_15130">
<rect width="312" height="312" fill="white"/>
</clipPath>
</defs>
</svg>
