<svg width="275" height="272" viewBox="0 0 275 272" fill="none" xmlns="http://www.w3.org/2000/svg">
<path d="M29.3974 230.094L29.399 230.095L87.8441 261.854C87.8443 261.854 87.8445 261.854 87.8447 261.854C94.8053 265.602 102.264 268.191 109.941 269.506L109.947 269.508C114.061 270.253 118.307 270.631 122.519 270.631C130.541 270.631 138.465 269.323 146.02 266.726L146.021 266.725L200.221 248.254V197.075L199.16 197.013L199.16 197.013L199.15 197.012C197.494 196.89 194.713 196.766 191.14 196.766C183.203 196.766 171.996 197.442 160.79 200.372C149.582 203.303 138.432 208.476 130.537 217.429C130.077 217.969 129.494 218.256 128.788 218.256H92.5386C87.9834 218.256 84.3078 221.931 84.3078 226.486C84.3078 228.77 85.2092 230.811 86.7294 232.331L86.2698 232.791L86.7294 232.331C88.1885 233.79 90.2564 234.726 92.5386 234.726H145.036C146.342 234.726 147.386 235.77 147.386 237.076C147.386 238.36 146.293 239.4 145.036 239.4H92.6626C88.2191 239.4 84.1139 237.146 81.6667 233.349C81.2872 232.814 80.8255 232.437 80.2895 232.244C80.2884 232.243 80.2872 232.243 80.286 232.243L35.3252 216.68C35.3247 216.68 35.3242 216.68 35.3237 216.68C31.7556 215.467 27.8848 217.088 26.2662 220.472L26.264 220.476C25.7797 221.469 25.5505 222.574 25.5505 223.644C25.5505 226.248 26.9419 228.768 29.3974 230.094Z" fill="#F7C19B" stroke="#383838" stroke-width="1.3"/>
<path d="M271.626 190.692H198.498C197.221 190.692 196.18 191.727 196.173 193.019C196.173 193.02 196.173 193.02 196.173 193.021L196.173 256.458C196.173 257.745 197.218 258.784 198.498 258.784H271.626C272.912 258.784 273.951 257.739 273.951 256.458V193.017C273.951 191.731 272.906 190.692 271.626 190.692Z" fill="#CBC1FF" stroke="#383838" stroke-width="1.3"/>
<path d="M196.19 238.768V256.467C196.19 257.745 197.226 258.775 198.498 258.775H271.634C272.912 258.775 273.942 257.739 273.942 256.467V252.894H218.845H218.816L218.786 252.891C209.7 252.068 205.277 249.72 202.341 246.744C201.002 245.387 199.988 243.914 199.001 242.478C198.922 242.363 198.843 242.248 198.764 242.134C197.968 240.98 197.167 239.849 196.19 238.768Z" fill="#AE9EFF" stroke="#383838" stroke-width="1.3"/>
<path d="M204.908 235.686C204.908 238.883 207.494 241.468 210.69 241.468C213.887 241.468 216.472 238.874 216.472 235.686C216.472 232.49 213.887 229.904 210.69 229.904C207.494 229.904 204.908 232.499 204.908 235.686Z" fill="#FCFAEE"/>
<path d="M197.848 190.692H195.576C193.13 190.692 191.153 192.676 191.153 195.125V254.351C191.153 256.8 193.138 258.784 195.576 258.784H197.848V190.692Z" fill="#ECF0F1" stroke="#383838" stroke-width="1.3"/>
<path d="M186.534 113.634C188.436 81.1326 169.924 52.1777 142.115 39.2171C135.008 35.9161 127.314 33.647 119.188 32.6382C117.507 32.4269 115.804 32.2708 114.092 32.1707C71.5902 29.6827 35.1289 62.1116 32.6469 104.62C31.2844 127.896 40.3893 149.351 55.8888 164.42C60.5954 168.979 65.8753 172.957 71.6359 176.223C81.554 181.858 92.9082 185.351 105.071 186.063L105.246 186.074C130.007 187.467 152.695 177.016 167.799 159.625C178.584 147.236 185.493 131.303 186.534 113.634Z" fill="url(#paint0_linear_334_15)"/>
<path d="M107.603 174.907L107.603 174.906C107.825 174.591 107.744 174.142 107.397 173.912C106.797 173.542 106.073 173.062 105.456 172.558C105.146 172.305 104.852 172.036 104.611 171.762C104.378 171.497 104.16 171.189 104.051 170.853C104.046 170.839 104.044 170.835 104.026 170.823C103.992 170.801 103.923 170.77 103.787 170.739C103.689 170.717 103.595 170.701 103.482 170.683C103.43 170.674 103.373 170.665 103.31 170.654C103.136 170.624 102.911 170.58 102.701 170.492C102.481 170.399 102.232 170.241 102.066 169.958C101.901 169.675 101.867 169.354 101.906 169.034C101.98 168.43 102.339 167.629 103.004 166.534C104.281 164.421 104.813 162.742 105.012 161.455C105.207 160.193 105.087 159.276 104.997 158.631C104.99 158.617 104.969 158.58 104.922 158.515C104.838 158.402 104.708 158.255 104.527 158.075C104.166 157.717 103.656 157.28 103.048 156.796C101.836 155.833 100.291 154.729 98.921 153.786L98.9202 153.786C96.1231 151.855 93.6734 149.379 91.9242 146.422C91.5017 145.709 91.1312 144.992 90.909 144.362C90.798 144.048 90.715 143.731 90.6896 143.432C90.6647 143.14 90.6892 142.8 90.8648 142.498L90.8649 142.498C90.8702 142.488 90.8825 142.449 90.8525 142.34C90.8124 142.195 90.7132 141.994 90.533 141.723C90.2912 141.36 89.9764 140.973 89.6142 140.528C89.4208 140.291 89.214 140.037 88.9976 139.761C87.8377 138.282 86.4632 136.25 87.062 133.945L87.0626 133.942C87.1131 133.751 87.116 133.631 87.1076 133.565C87.1037 133.534 87.0976 133.517 87.0947 133.511C87.092 133.504 87.0902 133.502 87.0892 133.501C87.0838 133.495 86.9861 133.408 86.6093 133.411C85.8758 133.418 84.711 133.761 83.39 134.312C82.0952 134.852 80.7366 135.554 79.6507 136.198C79.1077 136.52 78.641 136.823 78.2887 137.079C78.1123 137.208 77.9708 137.32 77.8653 137.414C77.8128 137.46 77.7726 137.499 77.7431 137.53C77.7285 137.546 77.7177 137.558 77.71 137.567C77.7062 137.572 77.7034 137.576 77.7015 137.578C77.6995 137.581 77.6987 137.582 77.6987 137.582L77.6977 137.583C77.2991 138.168 74.9498 142.361 73.1796 146.707C72.2947 148.879 71.5737 151.044 71.3041 152.79C71.1691 153.665 71.1546 154.391 71.2639 154.943C71.3714 155.486 71.5837 155.798 71.8595 155.968C72.4155 156.304 72.9579 156.788 73.4725 157.366C77.98 162.311 77.8498 169.616 74.0176 174.65C73.4093 175.452 73.6766 176.619 74.578 177.086C83.7255 181.814 93.9997 184.752 104.946 185.424L107.83 181.458C107.83 181.457 107.831 181.457 107.832 181.456C108.142 181.015 107.87 180.428 107.356 180.369L107.356 180.369L107.348 180.368C106.242 180.229 105.543 179.264 105.609 178.272C105.629 177.941 105.728 177.563 105.972 177.232L107.603 174.907Z" fill="url(#paint1_linear_334_15)" stroke="#383838" stroke-width="1.3"/>
<path d="M123.027 44.9518L123.033 45.0056C123.091 45.551 123.377 46.1351 123.671 46.6814C123.783 46.8884 123.898 47.095 124.017 47.3065C124.238 47.7015 124.469 48.1136 124.699 48.5765C125.389 49.9617 125.962 51.5932 125.732 53.5276C125.498 55.4542 124.403 57.3912 122.839 59.4293C121.806 60.7746 120.615 62.1102 119.385 63.4885C118.745 64.2059 118.095 64.9349 117.451 65.6829C115.59 67.8453 114.997 68.6962 114.508 69.4256C114.48 69.4669 114.453 69.5077 114.426 69.5483C114.001 70.1838 113.613 70.7651 112.294 72.2838L112.291 72.2868C111.89 72.7546 111.256 73.2329 110.424 73.6885L110.419 73.6915C104.476 77.0241 96.9288 75.3333 92.6377 69.9723L92.6369 69.9714L92.3037 69.5567L92.2935 69.544L92.2827 69.5318C92.2676 69.5148 92.2527 69.4928 92.2457 69.4795L92.2401 69.4688L92.2341 69.4583C89.7194 65.0575 85.1535 62.2068 80.0826 61.91L80.082 61.91L72.9002 61.4958L72.8366 61.4921L72.8185 61.4946C72.8117 61.4944 72.8042 61.4943 72.7965 61.4942C72.7806 61.4941 72.761 61.4944 72.7384 61.4958C72.2236 61.4999 69.0114 61.5254 65.6707 61.7231C63.972 61.8237 62.2267 61.9695 60.7808 62.1821C60.0585 62.2883 59.3979 62.4131 58.8491 62.5611C58.3208 62.7037 57.821 62.8866 57.4799 63.1449L57.4786 63.146C56.9555 63.5442 56.3851 64.0869 55.774 64.6936C55.5437 64.9223 55.3082 65.1593 55.0649 65.4043C54.649 65.823 54.21 66.265 53.7341 66.728C52.2379 68.1834 50.4612 69.7609 48.3222 71.0529L48.3217 71.0532C46.745 72.0076 45.4534 73.5175 44.4383 75.06C43.4188 76.6093 42.6496 78.2357 42.1335 79.4727L42.1305 79.4799L42.1276 79.4873C41.955 79.9309 41.8278 80.4147 41.8051 80.9217C41.7438 81.9882 42.0642 83.0479 42.7431 83.9206C44.7239 86.4898 48.7169 86.1465 50.2476 83.2761L50.2491 83.2734L51.5543 80.7973L51.5556 80.7948C51.9183 80.0993 52.5326 79.5625 53.2661 79.2933L53.2681 79.2926C54.438 78.8589 56.1509 78.2623 57.6289 77.876C58.3722 77.6817 59.0269 77.5485 59.5128 77.5089C59.7583 77.4888 59.9257 77.496 60.0258 77.5147C60.031 77.5157 60.0358 77.5166 60.0402 77.5175C60.1834 77.7081 60.3906 77.9086 60.586 78.092C60.6923 78.1917 60.7988 78.2896 60.9098 78.3916C61.0698 78.5386 61.2391 78.6943 61.4307 78.8766C62.0536 79.4693 62.7437 80.1903 63.2788 81.0357C63.8117 81.8776 64.1764 82.8202 64.1814 83.8635C64.1863 84.9002 63.8365 86.1032 62.8257 87.4738C61.6516 89.0639 61.0913 90.3981 60.9594 91.5227C60.8251 92.6675 61.1406 93.5532 61.6279 94.201L61.6325 94.2072L61.6325 94.2072C62.5373 95.3808 62.9749 96.8343 62.888 98.3191C62.8788 98.4761 62.8699 98.6222 62.8531 98.7394L62.8519 98.748L62.8519 98.7481C62.2724 103.23 65.0912 107.477 69.4658 108.677L69.5531 108.704L69.566 108.709L69.5791 108.712C70.2818 108.9 70.5252 109.789 69.9884 110.318C69.9878 110.319 69.9872 110.32 69.9866 110.32L66.3946 113.787L66.3904 113.791C65.6883 114.482 65.5018 115.525 65.924 116.409L65.9288 116.419L65.9289 116.419L67.9999 120.573L68.0023 120.578C68.24 121.045 68.6297 121.435 69.1412 121.646C70.8785 122.369 72.7042 120.776 72.1848 118.951L123.027 44.9518ZM123.027 44.9518L123.03 44.9151C122.587 40.8808 121.221 36.9955 119.032 33.6036L119.03 33.601C118.889 33.3788 118.659 33.234 118.416 33.2062L118.413 33.2059C116.971 33.0345 115.511 32.9117 114.046 32.826C71.9033 30.3591 35.7494 62.5144 33.2883 104.664L33.2883 104.664C31.9599 127.36 40.6641 148.31 55.5702 163.206L55.5724 163.209C55.8267 163.465 56.2312 163.527 56.5629 163.356C58.6742 162.241 60.8449 160.906 62.4111 159.488C64.018 158.032 64.7956 156.666 64.5839 155.472C64.1233 152.885 65.1629 150.803 66.4701 149.296C67.7698 147.798 69.3738 146.817 70.1911 146.373C70.3884 146.265 70.529 146.09 70.5879 145.891L70.5878 145.891L70.5908 145.882L70.6832 145.586L70.6833 145.586C70.6983 145.538 70.7098 145.482 70.719 145.407L71.3747 138.703L71.3748 138.701L72.0216 138.766C71.3748 138.701 71.3748 138.701 71.3749 138.701L71.3749 138.701L71.3751 138.699L71.3758 138.692L71.3786 138.664L71.3896 138.557C71.3993 138.464 71.4136 138.327 71.4321 138.152C71.4693 137.803 71.5236 137.303 71.5923 136.701C71.7297 135.496 71.9247 133.877 72.1552 132.226C72.3853 130.578 72.6524 128.886 72.9344 127.537C73.0751 126.865 73.2226 126.263 73.3753 125.79C73.4515 125.554 73.5332 125.336 73.622 125.152C73.7039 124.982 73.8198 124.779 73.9879 124.63C74.7953 123.912 78.2921 120.931 80.2341 119.275C80.647 118.923 80.9896 118.631 81.2211 118.434L81.2265 118.429C81.3393 118.335 81.4266 118.203 81.4776 118.044C81.5478 117.818 81.5214 117.569 81.4116 117.371C81.4113 117.371 81.4111 117.37 81.4109 117.37L80.5373 115.816L80.5373 115.816L80.5332 115.808C80.3573 115.486 80.0132 115.298 79.6362 115.329L79.6313 115.329L72.4886 115.852L72.484 115.852C71.8935 115.891 71.481 116.468 71.6491 117.055L71.6497 117.057L72.1843 118.95L123.027 44.9518ZM60.0842 77.53C60.0844 77.5299 60.0825 77.529 60.078 77.5275C60.0818 77.5293 60.084 77.5301 60.0842 77.53Z" fill="url(#paint2_linear_334_15)" stroke="#383838" stroke-width="1.3"/>
<path d="M162.769 151.315C162.997 151.572 163.52 152.292 164.178 153.225C164.851 154.179 165.695 155.398 166.583 156.689C167.233 157.633 168.612 157.684 169.326 156.792C178.86 144.882 184.918 129.989 185.884 113.596C187.704 82.4979 170.684 54.6796 144.71 41.2249L144.71 41.2249C143.462 40.5783 142.009 41.6427 142.235 42.9594C142.236 42.9695 142.238 42.979 142.24 42.9879C142.475 43.019 142.683 43.1359 142.838 43.3183C143.009 43.5198 143.086 43.7659 143.125 43.9692C143.206 44.3817 143.189 44.9185 143.129 45.488C143.006 46.6498 142.671 48.2036 142.274 49.7852C141.477 52.9568 140.395 56.3611 140.109 57.2478C140.05 57.4368 139.976 57.607 139.89 57.7705L139.89 57.7706L139.884 57.7812L136.783 63.4071L136.783 63.4071C133.835 68.7541 133.395 75.249 136.088 80.6747L136.09 80.6772C136.961 82.4532 137.509 84.5193 137.23 86.7587C136.951 89.0046 135.849 91.3573 133.538 93.7132L133.523 93.729L133.506 93.7438C133.455 93.7898 133.421 93.8252 133.375 93.8752C133.344 93.9084 133.307 93.948 133.254 94.0014C125.061 102.562 126.764 116.51 136.611 123.121C136.611 123.121 136.611 123.121 136.612 123.121L139.9 125.327L139.9 125.327C142.247 126.901 142.942 130.038 141.478 132.461L141.476 132.464L140.236 134.491C140.236 134.492 140.235 134.492 140.235 134.492C137.751 138.578 137.296 143.577 138.985 148.046L141.52 154.744C141.52 154.744 141.52 154.745 141.52 154.746C141.765 155.377 142.154 155.929 142.658 156.37C144.846 158.243 148.239 157.25 149.064 154.479L149.064 154.478C149.59 152.718 149.994 151.248 150.342 149.98C150.47 149.515 150.59 149.076 150.706 148.661C151.135 147.126 151.51 145.893 151.993 144.807C152.126 144.506 152.385 144.343 152.647 144.289C152.874 144.243 153.099 144.277 153.278 144.321C153.643 144.411 154.073 144.614 154.513 144.861C155.41 145.363 156.541 146.152 157.662 146.999C158.79 147.85 159.929 148.774 160.849 149.557C161.753 150.326 162.485 150.991 162.769 151.315ZM162.769 151.315C162.769 151.314 162.768 151.314 162.768 151.313L162.282 151.745L162.77 151.316C162.77 151.316 162.769 151.315 162.769 151.315ZM142.027 42.9832L142.027 42.9832L142.027 42.9832Z" fill="url(#paint3_linear_334_15)" stroke="#383838" stroke-width="1.3"/>
<mask id="path-10-inside-1_334_15" fill="white">
<path d="M99.6928 37.9608L123.617 16.8433L123.148 16.312L99.4803 37.2171L57.4046 30.8065L57.2984 31.506L99.6928 37.9608Z"/>
</mask>
<path d="M99.6928 37.9608L123.617 16.8433L123.148 16.312L99.4803 37.2171L57.4046 30.8065L57.2984 31.506L99.6928 37.9608Z" fill="#D1D9FA"/>
<path d="M99.6928 37.9608L100.553 38.9354L100.098 39.3374L99.4971 39.246L99.6928 37.9608ZM123.617 16.8433L124.591 15.9826L125.453 16.9573L124.477 17.8179L123.617 16.8433ZM123.148 16.312L122.287 15.3377L123.262 14.4771L124.122 15.4513L123.148 16.312ZM99.4803 37.2171L100.341 38.1914L99.8853 38.5938L99.2844 38.5023L99.4803 37.2171ZM57.4046 30.8065L56.1194 30.6112L56.3147 29.3255L57.6004 29.5213L57.4046 30.8065ZM57.2984 31.506L57.1027 32.7912L55.8179 32.5956L56.0131 31.3107L57.2984 31.506ZM98.8325 36.9862L122.757 15.8687L124.477 17.8179L100.553 38.9354L98.8325 36.9862ZM122.643 17.704L122.174 17.1727L124.122 15.4513L124.591 15.9826L122.643 17.704ZM124.008 17.2864L100.341 38.1914L98.6196 36.2427L122.287 15.3377L124.008 17.2864ZM99.2844 38.5023L57.2088 32.0917L57.6004 29.5213L99.6761 35.9319L99.2844 38.5023ZM58.6899 31.0018L58.5836 31.7013L56.0131 31.3107L56.1194 30.6112L58.6899 31.0018ZM57.494 30.2208L99.8885 36.6756L99.4971 39.246L57.1027 32.7912L57.494 30.2208Z" fill="#383838" mask="url(#path-10-inside-1_334_15)"/>
<mask id="path-12-inside-2_334_15" fill="white">
<path d="M32.9228 170.147L57.2944 165.77L57.6265 165.711L57.5025 165.02L56.6542 165.172L34.4016 169.164L45.5615 152.092C45.4172 151.878 45.2748 151.664 45.1339 151.449L32.9228 170.147Z"/>
</mask>
<path d="M32.9228 170.147L57.2944 165.77L57.6265 165.711L57.5025 165.02L56.6542 165.172L34.4016 169.164L45.5615 152.092C45.4172 151.878 45.2748 151.664 45.1339 151.449L32.9228 170.147Z" fill="#D1D9FA"/>
<path d="M32.9228 170.147L33.1526 171.426L30.1867 171.959L31.8344 169.436L32.9228 170.147ZM57.2944 165.77L57.0646 164.49L57.0657 164.49L57.2944 165.77ZM57.6265 165.711L58.906 165.481L59.1359 166.762L57.8551 166.99L57.6265 165.711ZM57.5025 165.02L57.2727 163.74L58.5523 163.511L58.782 164.79L57.5025 165.02ZM56.6542 165.172L56.884 166.452L56.8837 166.452L56.6542 165.172ZM34.4016 169.164L34.6311 170.443L31.6641 170.975L33.3134 168.452L34.4016 169.164ZM45.5615 152.092L46.6383 151.363L47.1227 152.079L46.6497 152.803L45.5615 152.092ZM45.1339 151.449L44.0455 150.738L45.1327 149.073L46.2216 150.737L45.1339 151.449ZM32.6931 168.867L57.0646 164.49L57.5242 167.049L33.1526 171.426L32.6931 168.867ZM57.0657 164.49L57.3978 164.431L57.8551 166.99L57.523 167.05L57.0657 164.49ZM56.3469 165.94L56.2229 165.25L58.782 164.79L58.906 165.481L56.3469 165.94ZM57.7323 166.299L56.884 166.452L56.4244 163.893L57.2727 163.74L57.7323 166.299ZM56.8837 166.452L34.6311 170.443L34.1721 167.884L56.4247 163.893L56.8837 166.452ZM33.3134 168.452L44.4734 151.38L46.6497 152.803L35.4897 169.875L33.3134 168.452ZM44.4848 152.82C44.3366 152.601 44.1904 152.381 44.0462 152.161L46.2216 150.737C46.3591 150.947 46.4979 151.156 46.6383 151.363L44.4848 152.82ZM46.2224 152.16L34.0113 170.857L31.8344 169.436L44.0455 150.738L46.2224 152.16Z" fill="#383838" mask="url(#path-12-inside-2_334_15)"/>
<mask id="path-14-inside-3_334_15" fill="white">
<path d="M114.676 186.159L114.253 185.602L93.8124 201.111L94.2351 201.668L114.676 186.159Z"/>
</mask>
<path d="M114.676 186.159L114.253 185.602L93.8124 201.111L94.2351 201.668L114.676 186.159Z" fill="#D1D9FA"/>
<path d="M114.676 186.159L115.711 185.373L116.497 186.409L115.462 187.195L114.676 186.159ZM114.253 185.602L113.467 184.566L114.503 183.781L115.289 184.816L114.253 185.602ZM93.8124 201.111L92.7766 201.896L91.9912 200.861L93.0267 200.075L93.8124 201.111ZM94.2351 201.668L95.0209 202.704L93.9851 203.49L93.1994 202.454L94.2351 201.668ZM113.64 186.945L113.217 186.388L115.289 184.816L115.711 185.373L113.64 186.945ZM115.039 186.638L94.5982 202.146L93.0267 200.075L113.467 184.566L115.039 186.638ZM94.8482 200.325L95.2709 200.883L93.1994 202.454L92.7766 201.896L94.8482 200.325ZM93.4494 200.632L113.89 185.124L115.462 187.195L95.0209 202.704L93.4494 200.632Z" fill="#383838" mask="url(#path-14-inside-3_334_15)"/>
<path d="M126.92 102.503C120.619 102.503 115.51 107.611 115.51 113.913C115.51 120.214 120.619 125.322 126.92 125.322C133.221 125.322 138.329 120.214 138.329 113.913C138.329 107.611 133.221 102.503 126.92 102.503Z" fill="#D1D9FA" stroke="#383838" stroke-width="1.3"/>
<path d="M166.207 95.3224C163.426 95.3224 161.172 97.5764 161.172 100.357C161.172 103.137 163.426 105.391 166.207 105.391C168.987 105.391 171.241 103.137 171.241 100.357C171.241 97.5764 168.987 95.3224 166.207 95.3224Z" fill="#D1D9FA" stroke="#383838" stroke-width="1.3"/>
<path d="M174.959 50.3484L174.959 50.3485C175.404 53.0931 177.99 54.957 180.735 54.5116C183.48 54.0661 185.343 51.4801 184.898 48.7355C184.452 45.9909 181.866 44.1272 179.122 44.5726L179.018 43.9312L179.122 44.5726C176.377 45.018 174.513 47.604 174.959 50.3484Z" fill="#D1D9FA" stroke="#383838" stroke-width="1.3"/>
<path d="M125.043 11.4459C122.414 11.4459 120.283 13.5771 120.283 16.2059C120.283 18.8348 122.414 20.9658 125.043 20.9658C127.672 20.9658 129.803 18.8348 129.803 16.2059C129.803 13.5771 127.672 11.4459 125.043 11.4459Z" fill="#D1D9FA" stroke="#383838" stroke-width="1.3"/>
<path d="M115.719 35.565C113.091 35.565 110.959 37.6962 110.959 40.325C110.959 42.9539 113.091 45.085 115.719 45.085C118.348 45.085 120.479 42.9539 120.479 40.325C120.479 37.6962 118.348 35.565 115.719 35.565Z" fill="#D1D9FA" stroke="#383838" stroke-width="1.3"/>
<path d="M53.5972 24.4171C49.9316 24.4171 46.9601 27.3886 46.9601 31.0542C46.9601 34.7198 49.9316 37.6912 53.5972 37.6912C57.2628 37.6912 60.2343 34.7198 60.2343 31.0542C60.2343 27.3886 57.2628 24.4171 53.5972 24.4171Z" fill="#D1D9FA" stroke="#383838" stroke-width="1.3"/>
<path d="M35.9498 128.714L36.1986 128.113L35.9498 128.714ZM35.9498 128.714C33.0737 127.522 29.7764 128.888 28.5851 131.764L28.5851 131.764C27.3937 134.64 28.7595 137.937 31.6355 139.129C34.5118 140.32 37.809 138.954 39.0003 136.078L39.0003 136.078C40.1917 133.202 38.8259 129.905 35.9498 128.714ZM39.6005 136.327L39.6005 136.327L39.6005 136.327ZM39.6007 136.327L39.6008 136.327L39.6007 136.327Z" fill="#D1D9FA" stroke="#383838" stroke-width="1.3"/>
<path d="M33.551 167.468C31.6215 167.468 30.0573 169.032 30.0573 170.962C30.0573 172.891 31.6215 174.455 33.551 174.455C35.4807 174.455 37.0448 172.891 37.0448 170.962C37.0448 169.032 35.4806 167.468 33.551 167.468Z" fill="#D1D9FA" stroke="#383838" stroke-width="1.3"/>
<path d="M57.8896 159.491C60.4747 156.906 64.6657 156.906 67.2506 159.491C69.8356 162.076 69.8356 166.267 67.2506 168.852C64.6657 171.437 60.4746 171.437 57.8897 168.852C55.3046 166.267 55.3046 162.076 57.8896 159.491C57.8896 159.491 57.8896 159.491 57.8896 159.491ZM57.8896 159.491L57.4299 159.031L57.8896 159.491Z" fill="#D1D9FA" stroke="#383838" stroke-width="1.3"/>
<path d="M91.1927 199.166C89.087 199.166 87.38 200.873 87.38 202.979C87.38 205.084 89.087 206.791 91.1927 206.791C93.2984 206.791 95.0053 205.084 95.0053 202.979C95.0053 200.873 93.2983 199.166 91.1927 199.166Z" fill="#D1D9FA" stroke="#383838" stroke-width="1.3"/>
<path d="M87.0755 172.913C86.0652 172.913 85.2462 173.732 85.2462 174.742C85.2462 175.752 86.0652 176.571 87.0755 176.571C88.0857 176.571 88.9047 175.752 88.9047 174.742C88.9047 173.732 88.0857 172.913 87.0755 172.913Z" fill="#D1D9FA" stroke="#383838" stroke-width="1.3"/>
<path d="M108.788 176.505L108.788 176.505C107.897 177.396 107.897 178.84 108.788 179.731L108.788 179.731C109.678 180.621 111.122 180.621 112.013 179.731L112.013 179.731C112.904 178.84 112.904 177.396 112.013 176.505C111.122 175.615 109.678 175.615 108.788 176.505Z" fill="#D1D9FA" stroke="#383838" stroke-width="1.3"/>
<path d="M131.819 199.383L131.819 199.383C130.902 199.6 130.335 200.518 130.551 201.435C130.768 202.351 131.686 202.919 132.602 202.702L132.603 202.702C133.519 202.486 134.087 201.568 133.87 200.651C133.654 199.735 132.735 199.167 131.819 199.383Z" fill="#D1D9FA" stroke="#383838" stroke-width="1.3"/>
<path d="M172.806 171.308C174.046 170.069 176.057 170.069 177.297 171.308C178.536 172.548 178.536 174.559 177.297 175.799C176.057 177.038 174.046 177.039 172.806 175.799C172.806 175.799 172.806 175.799 172.806 175.799M172.806 171.308L172.347 176.258M172.806 171.308C171.566 172.548 171.566 174.559 172.806 175.799M172.806 171.308V175.799M172.806 175.799L172.347 176.258M172.347 176.258C170.853 174.764 170.853 172.343 172.347 170.849C173.841 169.355 176.262 169.355 177.756 170.849C179.25 172.343 179.25 174.764 177.756 176.258C176.262 177.752 173.841 177.752 172.347 176.258Z" fill="#D1D9FA" stroke="#383838" stroke-width="1.3"/>
<path d="M142.259 171.737L142.259 171.737C139.708 170.681 138.497 167.756 139.553 165.205M142.259 171.737L146.085 162.5C143.534 161.443 140.61 162.655 139.553 165.205M142.259 171.737C144.81 172.794 147.734 171.583 148.791 169.032L148.791 169.032M142.259 171.737L148.791 169.032M139.553 165.205L138.953 164.957L139.553 165.205ZM148.791 169.032C149.847 166.481 148.636 163.557 146.085 162.5L148.791 169.032Z" fill="#D1D9FA" stroke="#383838" stroke-width="1.3"/>
<path d="M37.9539 88.9239L37.9539 88.9238C36.9709 88.5167 36.504 87.3896 36.9112 86.4064L37.9539 88.9239ZM37.9539 88.9239C38.9369 89.3311 40.064 88.8643 40.4712 87.8812L37.9539 88.9239ZM39.4285 85.3638C38.4454 84.9565 37.3185 85.4234 36.9112 86.4064L40.4713 87.8812C40.8784 86.8981 40.4116 85.771 39.4285 85.3638Z" fill="#D1D9FA" stroke="#383838" stroke-width="1.3"/>
<path d="M16.9411 71.5045C15.3441 71.5045 14.0494 72.7992 14.0494 74.3963C14.0494 75.9933 15.3441 77.288 16.9411 77.288C18.5382 77.288 19.8329 75.9933 19.8329 74.3963C19.8329 72.7992 18.5382 71.5045 16.9411 71.5045Z" fill="#D1D9FA" stroke="#383838" stroke-width="1.3"/>
<path d="M187.599 131.182C184.021 131.182 181.121 134.083 181.121 137.66C181.121 141.238 184.021 144.138 187.599 144.138C191.176 144.138 194.077 141.238 194.077 137.66C194.077 134.083 191.176 131.182 187.599 131.182Z" fill="#D1D9FA" stroke="#383838" stroke-width="1.3"/>
<path d="M202.713 87.2652C201.395 87.2652 200.326 88.334 200.326 89.6523C200.326 90.9705 201.395 92.0393 202.713 92.0393C204.031 92.0393 205.1 90.9705 205.1 89.6523C205.1 88.334 204.031 87.2652 202.713 87.2652Z" fill="#D1D9FA" stroke="#383838" stroke-width="1.3"/>
<mask id="path-35-inside-4_334_15" fill="white">
<path d="M91.1576 203.359L176.186 173.573L176.239 173.414L188.033 138.466L203.085 89.6077L203.014 89.4749L180.188 49.2852L180.108 49.241L125.698 15.8867L53.4029 30.7355L53.3232 30.8239L16.5602 74.2897L16.5867 74.4492L33.2328 171.182L33.3834 171.262L91.1576 203.359ZM175.637 173.024L91.2285 202.589L33.8792 170.731L17.3216 74.4934L53.8014 31.3641L125.574 16.6305L179.674 49.7988L202.332 89.6963L187.369 138.253L175.637 173.024Z"/>
</mask>
<path d="M91.1576 203.359L176.186 173.573L176.239 173.414L188.033 138.466L203.085 89.6077L203.014 89.4749L180.188 49.2852L180.108 49.241L125.698 15.8867L53.4029 30.7355L53.3232 30.8239L16.5602 74.2897L16.5867 74.4492L33.2328 171.182L33.3834 171.262L91.1576 203.359ZM175.637 173.024L91.2285 202.589L33.8792 170.731L17.3216 74.4934L53.8014 31.3641L125.574 16.6305L179.674 49.7988L202.332 89.6963L187.369 138.253L175.637 173.024Z" fill="#D1D9FA"/>
<path d="M91.1576 203.359L91.5874 204.586L91.0366 204.779L90.5263 204.496L91.1576 203.359ZM176.186 173.573L177.419 173.984L177.217 174.589L176.615 174.8L176.186 173.573ZM176.239 173.414L175.005 173.003L175.007 172.998L176.239 173.414ZM188.033 138.466L189.275 138.849L189.27 138.865L189.264 138.881L188.033 138.466ZM203.085 89.6077L204.232 88.9958L204.487 89.4733L204.327 89.9905L203.085 89.6077ZM203.014 89.4749L204.145 88.8329L204.153 88.8478L204.161 88.863L203.014 89.4749ZM180.188 49.2852L180.819 48.1487L181.138 48.3258L181.318 48.6432L180.188 49.2852ZM180.108 49.241L179.477 50.3775L179.452 50.3639L179.429 50.3493L180.108 49.241ZM125.698 15.8867L125.437 14.6133L125.94 14.51L126.378 14.7784L125.698 15.8867ZM53.4029 30.7355L52.4375 29.8648L52.7234 29.5479L53.1414 29.4621L53.4029 30.7355ZM53.3232 30.8239L52.3306 29.9844L52.3439 29.9686L52.3578 29.9533L53.3232 30.8239ZM16.5602 74.2897L15.2778 74.5031L15.1791 73.9096L15.5676 73.4502L16.5602 74.2897ZM16.5867 74.4492L15.3055 74.6696L15.3043 74.6625L16.5867 74.4492ZM33.2328 171.182L32.6251 172.332L32.06 172.033L31.9516 171.403L33.2328 171.182ZM33.3834 171.262L33.9911 170.113L34.003 170.119L34.0147 170.126L33.3834 171.262ZM175.637 173.024L176.868 173.44L176.665 174.041L176.066 174.251L175.637 173.024ZM91.2285 202.589L91.6582 203.816L91.1074 204.009L90.5972 203.725L91.2285 202.589ZM33.8792 170.731L33.2479 171.867L32.7036 171.565L32.5981 170.951L33.8792 170.731ZM17.3216 74.4934L16.0404 74.7138L15.9376 74.1166L16.329 73.6538L17.3216 74.4934ZM53.8014 31.3641L52.8089 30.5246L53.0994 30.1811L53.54 30.0907L53.8014 31.3641ZM125.574 16.6305L125.313 15.3571L125.816 15.2538L126.254 15.5223L125.574 16.6305ZM179.674 49.7988L180.354 48.6905L180.639 48.8655L180.805 49.1568L179.674 49.7988ZM202.332 89.6963L203.463 89.0543L203.74 89.5425L203.575 90.0791L202.332 89.6963ZM187.369 138.253L188.611 138.636L188.606 138.653L188.6 138.669L187.369 138.253ZM90.7279 202.132L175.756 172.346L176.615 174.8L91.5874 204.586L90.7279 202.132ZM174.952 173.162L175.005 173.003L177.472 173.825L177.419 173.984L174.952 173.162ZM175.007 172.998L186.801 138.05L189.264 138.881L177.471 173.829L175.007 172.998ZM186.79 138.083L201.843 89.225L204.327 89.9905L189.275 138.849L186.79 138.083ZM201.938 90.2197L201.867 90.0869L204.161 88.863L204.232 88.9958L201.938 90.2197ZM201.884 90.117L179.057 49.9272L181.318 48.6432L204.145 88.8329L201.884 90.117ZM179.557 50.4218L179.477 50.3775L180.739 48.1044L180.819 48.1487L179.557 50.4218ZM179.429 50.3493L125.019 16.995L126.378 14.7784L180.787 48.1327L179.429 50.3493ZM125.96 17.1601L53.6645 32.0089L53.1414 29.4621L125.437 14.6133L125.96 17.1601ZM54.3683 31.6061L54.2886 31.6946L52.3578 29.9533L52.4375 29.8648L54.3683 31.6061ZM54.3158 31.6635L17.5527 75.1293L15.5676 73.4502L52.3306 29.9844L54.3158 31.6635ZM17.8425 74.0764L17.869 74.2358L15.3043 74.6625L15.2778 74.5031L17.8425 74.0764ZM17.8678 74.2287L34.5139 170.962L31.9516 171.403L15.3055 74.6696L17.8678 74.2287ZM33.8404 170.033L33.9911 170.113L32.7757 172.411L32.6251 172.332L33.8404 170.033ZM34.0147 170.126L91.789 202.223L90.5263 204.496L32.7521 172.399L34.0147 170.126ZM176.066 174.251L91.6582 203.816L90.7988 201.362L175.207 171.797L176.066 174.251ZM90.5972 203.725L33.2479 171.867L34.5105 169.595L91.8598 201.452L90.5972 203.725ZM32.5981 170.951L16.0404 74.7138L18.6028 74.273L35.1604 170.511L32.5981 170.951ZM16.329 73.6538L52.8089 30.5246L54.794 32.2037L18.3141 75.3329L16.329 73.6538ZM53.54 30.0907L125.313 15.3571L125.836 17.904L54.0628 32.6376L53.54 30.0907ZM126.254 15.5223L180.354 48.6905L178.995 50.9071L124.895 17.7388L126.254 15.5223ZM180.805 49.1568L203.463 89.0543L201.202 90.3383L178.544 50.4407L180.805 49.1568ZM203.575 90.0791L188.611 138.636L186.126 137.87L201.09 89.3134L203.575 90.0791ZM188.6 138.669L176.868 173.44L174.405 172.609L186.137 137.838L188.6 138.669Z" fill="#383838" mask="url(#path-35-inside-4_334_15)"/>
<path d="M125.358 17.8532L125.356 17.7225L125.306 17.8434L125.358 17.8532Z" fill="#D1D9FA" stroke="#383838" stroke-width="1.3"/>
<mask id="path-38-inside-5_334_15" fill="white">
<path d="M91.2192 201.943L110.654 178.355L202.952 89.909L202.465 89.3955L110.141 177.877L110.123 177.894L91.2281 200.827L61.752 163.86L61.203 164.303L91.2192 201.943Z"/>
</mask>
<path d="M91.2192 201.943L110.654 178.355L202.952 89.909L202.465 89.3955L110.141 177.877L110.123 177.894L91.2281 200.827L61.752 163.86L61.203 164.303L91.2192 201.943Z" fill="#D1D9FA"/>
<path d="M91.2192 201.943L92.2225 202.769L91.2027 204.007L90.2028 202.753L91.2192 201.943ZM110.654 178.355L109.651 177.528L109.7 177.469L109.755 177.416L110.654 178.355ZM202.952 89.909L203.895 89.0144L204.785 89.9528L203.851 90.8476L202.952 89.909ZM202.465 89.3955L201.565 88.4569L202.509 87.5527L203.408 88.5009L202.465 89.3955ZM110.141 177.877L109.222 176.957L109.231 176.948L109.241 176.938L110.141 177.877ZM110.123 177.894L109.12 177.068L109.16 177.019L109.204 176.975L110.123 177.894ZM91.2281 200.827L92.2314 201.654L91.2115 202.891L90.2116 201.637L91.2281 200.827ZM61.752 163.86L60.936 162.848L61.9535 162.028L62.7684 163.05L61.752 163.86ZM61.203 164.303L60.1866 165.113L59.3805 164.103L60.387 163.291L61.203 164.303ZM90.2159 201.116L109.651 177.528L111.658 179.181L92.2225 202.769L90.2159 201.116ZM109.755 177.416L202.052 88.9703L203.851 90.8476L111.554 179.293L109.755 177.416ZM202.008 90.8035L201.521 90.2901L203.408 88.5009L203.895 89.0144L202.008 90.8035ZM203.364 90.3341L111.04 178.815L109.241 176.938L201.565 88.4569L203.364 90.3341ZM111.06 178.796L111.042 178.814L109.204 176.975L109.222 176.957L111.06 178.796ZM111.126 178.721L92.2314 201.654L90.2248 200L109.12 177.068L111.126 178.721ZM90.2116 201.637L60.7356 164.671L62.7684 163.05L92.2445 200.016L90.2116 201.637ZM62.5681 164.872L62.0191 165.315L60.387 163.291L60.936 162.848L62.5681 164.872ZM62.2194 163.492L92.2355 201.132L90.2028 202.753L60.1866 165.113L62.2194 163.492Z" fill="#383838" mask="url(#path-38-inside-5_334_15)"/>
<path d="M35.5965 133.235L35.8246 133.186L35.7985 133.118L35.5965 133.235ZM125.086 114.683L125.258 114.578L125.061 114.62L125.086 114.683Z" fill="#D1D9FA" stroke="#383838" stroke-width="1.3"/>
<path d="M18.0237 75.1502L18.0379 75.1292L17.9878 75.1104L18.0237 75.1502ZM187.29 136.951L187.277 136.809L187.222 136.825L187.29 136.951Z" fill="#D1D9FA" stroke="#383838" stroke-width="1.3"/>
<mask id="path-42-inside-6_334_15" fill="white">
<path d="M33.4536 172.227H34.1531V133.879L34.1355 133.826L17.5071 75.14L38.9168 87.6864L53.8186 31.5944L166.941 100.383L167.304 99.7903L53.3758 30.5054L53.2608 30.957L38.4741 86.6151L16.3649 73.6524L33.4536 133.977V172.227Z"/>
</mask>
<path d="M33.4536 172.227H34.1531V133.879L34.1355 133.826L17.5071 75.14L38.9168 87.6864L53.8186 31.5944L166.941 100.383L167.304 99.7903L53.3758 30.5054L53.2608 30.957L38.4741 86.6151L16.3649 73.6524L33.4536 133.977V172.227Z" fill="#D1D9FA"/>
<path d="M33.4536 172.227V173.527H32.1536V172.227H33.4536ZM34.1531 172.227H35.4531V173.527H34.1531V172.227ZM34.1531 133.879L35.3871 133.47L35.4531 133.669V133.879H34.1531ZM34.1355 133.826L32.9015 134.235L32.8925 134.208L32.8847 134.181L34.1355 133.826ZM17.5071 75.14L16.2563 75.4944L15.375 72.3837L18.1644 74.0184L17.5071 75.14ZM38.9168 87.6864L40.1732 88.0202L39.7343 89.6723L38.2595 88.808L38.9168 87.6864ZM53.8186 31.5944L52.5622 31.2606L53.0086 29.5804L54.494 30.4837L53.8186 31.5944ZM166.941 100.383L168.05 101.062L167.373 102.168L166.266 101.494L166.941 100.383ZM167.304 99.7903L167.98 98.6795L169.094 99.3569L168.413 100.469L167.304 99.7903ZM53.3758 30.5054L52.116 30.1847L52.5496 28.4814L54.0513 29.3946L53.3758 30.5054ZM53.2608 30.957L54.5207 31.2777L54.5172 31.2908L53.2608 30.957ZM38.4741 86.6151L39.7305 86.9489L39.2915 88.6013L37.8166 87.7365L38.4741 86.6151ZM16.3649 73.6524L15.1141 74.0068L14.2327 70.8954L17.0224 72.531L16.3649 73.6524ZM33.4536 133.977L34.7044 133.622L34.7536 133.796V133.977H33.4536ZM33.4536 170.927H34.1531V173.527H33.4536V170.927ZM32.8531 172.227V133.879H35.4531V172.227H32.8531ZM32.9191 134.288L32.9015 134.235L35.3694 133.417L35.3871 133.47L32.9191 134.288ZM32.8847 134.181L16.2563 75.4944L18.7579 74.7856L35.3862 133.472L32.8847 134.181ZM18.1644 74.0184L39.5741 86.5648L38.2595 88.808L16.8498 76.2616L18.1644 74.0184ZM37.6604 87.3526L52.5622 31.2606L55.075 31.9282L40.1732 88.0202L37.6604 87.3526ZM54.494 30.4837L167.617 99.2727L166.266 101.494L53.1432 32.7052L54.494 30.4837ZM165.832 99.7049L166.195 99.1116L168.413 100.469L168.05 101.062L165.832 99.7049ZM166.629 100.901L52.7003 31.6161L54.0513 29.3946L167.98 98.6795L166.629 100.901ZM54.6356 30.8261L54.5206 31.2777L52.001 30.6363L52.116 30.1847L54.6356 30.8261ZM54.5172 31.2908L39.7305 86.9489L37.2177 86.2813L52.0044 30.6232L54.5172 31.2908ZM37.8166 87.7365L15.7074 74.7739L17.0224 72.531L39.1316 85.4936L37.8166 87.7365ZM17.6157 73.2981L34.7044 133.622L32.2028 134.331L15.1141 74.0068L17.6157 73.2981ZM34.7536 133.977V172.227H32.1536V133.977H34.7536Z" fill="#383838" mask="url(#path-42-inside-6_334_15)"/>
<mask id="path-44-inside-7_334_15" fill="white">
<path d="M90.8391 203.032L91.5385 202.925L87.4922 175.158L110.655 178.505L110.735 178.204L127.257 114.001L126.584 113.824L110.133 177.726L86.6688 174.326L90.8391 203.032Z"/>
</mask>
<path d="M90.8391 203.032L91.5385 202.925L87.4922 175.158L110.655 178.505L110.735 178.204L127.257 114.001L126.584 113.824L110.133 177.726L86.6688 174.326L90.8391 203.032Z" fill="#D1D9FA"/>
<path d="M90.8391 203.032L91.0345 204.317L89.7407 204.514L89.5526 203.218L90.8391 203.032ZM91.5385 202.925L92.825 202.738L93.0113 204.016L91.734 204.21L91.5385 202.925ZM87.4922 175.158L86.2058 175.346L85.9547 173.622L87.6781 173.871L87.4922 175.158ZM110.655 178.505L111.912 178.838L111.615 179.957L110.469 179.792L110.655 178.505ZM110.735 178.204L111.994 178.528L111.991 178.537L110.735 178.204ZM127.257 114.001L127.588 112.744L128.838 113.073L128.516 114.325L127.257 114.001ZM126.584 113.824L125.325 113.5L125.651 112.234L126.915 112.567L126.584 113.824ZM110.133 177.726L111.392 178.05L111.101 179.18L109.946 179.012L110.133 177.726ZM86.6688 174.326L85.3823 174.513L85.1319 172.79L86.8552 173.039L86.6688 174.326ZM90.6436 201.746L91.3431 201.64L91.734 204.21L91.0345 204.317L90.6436 201.746ZM90.2521 203.113L86.2058 175.346L88.7786 174.971L92.825 202.738L90.2521 203.113ZM87.6781 173.871L110.841 177.218L110.469 179.792L87.3063 176.445L87.6781 173.871ZM109.398 178.172L109.478 177.871L111.991 178.537L111.912 178.838L109.398 178.172ZM109.476 177.88L125.998 113.677L128.516 114.325L111.994 178.528L109.476 177.88ZM126.926 115.259L126.253 115.081L126.915 112.567L127.588 112.744L126.926 115.259ZM127.843 114.148L111.392 178.05L108.874 177.402L125.325 113.5L127.843 114.148ZM109.946 179.012L86.4823 175.612L86.8552 173.039L110.319 176.439L109.946 179.012ZM87.9552 174.139L92.1255 202.845L89.5526 203.218L85.3823 174.513L87.9552 174.139Z" fill="#383838" mask="url(#path-44-inside-7_334_15)"/>
<defs>
<linearGradient id="paint0_linear_334_15" x1="58.359" y1="51.5244" x2="160.802" y2="166.706" gradientUnits="userSpaceOnUse">
<stop stop-color="#CBC1FF"/>
<stop offset="1" stop-color="#C79DFF"/>
</linearGradient>
<linearGradient id="paint1_linear_334_15" x1="103.365" y1="150.823" x2="73.6828" y2="177.223" gradientUnits="userSpaceOnUse">
<stop stop-color="#B9E4D9"/>
<stop offset="1" stop-color="#9DFFE6"/>
</linearGradient>
<linearGradient id="paint2_linear_334_15" x1="129.546" y1="44.4293" x2="28.6749" y2="134.144" gradientUnits="userSpaceOnUse">
<stop stop-color="#B9E4D9"/>
<stop offset="1" stop-color="#9DFFE6"/>
</linearGradient>
<linearGradient id="paint3_linear_334_15" x1="182.748" y1="75.4023" x2="119.647" y2="131.525" gradientUnits="userSpaceOnUse">
<stop stop-color="#B9E4D9"/>
<stop offset="1" stop-color="#9DFFE6"/>
</linearGradient>
</defs>
</svg>
