<svg width="258" height="265" viewBox="0 0 258 265" fill="none" xmlns="http://www.w3.org/2000/svg">
<path d="M240.712 201.869L132.83 264.563L22.624 200.936L130.506 138.242L240.712 201.869Z" fill="#FFD0E9"/>
<path d="M131.418 221.35L257.281 148.207L257.238 163.47L131.375 236.614L131.418 221.35Z" fill="#FE61B1" stroke="black"/>
<path d="M1.33429 146.825L130.413 221.349L130.37 236.617L1.29086 162.094L1.33429 146.825Z" fill="#FF91CC" stroke="black"/>
<path d="M127.705 72.8149L256.784 147.339L130.916 220.484L1.83691 145.96L127.705 72.8149Z" fill="#FEBADE" stroke="black"/>
<mask id="path-5-inside-1_1299_28" fill="white">
<path d="M225.902 136.515C225.876 136.796 225.857 137.077 225.806 137.357C225.763 137.585 225.694 137.812 225.634 138.04C225.565 138.307 225.499 138.574 225.404 138.839C225.327 139.057 225.224 139.273 225.13 139.49C225.009 139.769 224.888 140.048 224.739 140.323C224.534 140.704 224.314 141.081 224.057 141.453C224.015 141.514 223.968 141.573 223.925 141.634C223.659 142.005 223.365 142.371 223.046 142.732C222.986 142.799 222.933 142.868 222.872 142.935C222.528 143.311 222.148 143.679 221.746 144.041C221.49 144.271 221.204 144.494 220.925 144.718C220.678 144.916 220.441 145.118 220.176 145.31C219.874 145.53 219.541 145.739 219.216 145.95C218.88 146.169 218.561 146.394 218.199 146.604L152.143 184.991C151.343 185.456 150.493 185.873 149.622 186.267C149.372 186.379 149.115 186.484 148.861 186.591C148.177 186.878 147.476 187.143 146.759 187.388C146.503 187.475 146.253 187.569 145.993 187.651C145.542 187.793 145.079 187.918 144.617 188.044C144.268 188.139 143.922 188.24 143.567 188.326C143.081 188.443 142.587 188.542 142.093 188.642C141.756 188.71 141.423 188.785 141.082 188.846C140.083 189.023 139.07 189.162 138.047 189.269C137.733 189.302 137.415 189.321 137.099 189.348C136.498 189.398 135.897 189.442 135.293 189.469C134.907 189.485 134.522 189.493 134.135 189.501C133.649 189.51 133.161 189.514 132.674 189.507C132.265 189.502 131.856 189.49 131.448 189.473C130.996 189.455 130.546 189.432 130.096 189.401C129.684 189.372 129.273 189.337 128.862 189.297C128.416 189.254 127.971 189.205 127.529 189.149C127.129 189.098 126.729 189.041 126.333 188.98C125.858 188.905 125.387 188.822 124.918 188.733C124.548 188.663 124.178 188.589 123.811 188.509C123.252 188.386 122.699 188.248 122.152 188.102C121.846 188.021 121.537 187.944 121.235 187.856C120.253 187.569 119.292 187.249 118.364 186.887C117.904 186.707 117.459 186.51 117.014 186.312C116.784 186.21 116.545 186.117 116.32 186.01C115.645 185.69 114.989 185.351 114.358 184.986L42.5709 143.54C37.2999 140.498 34.6676 136.504 34.6786 132.516L34.6475 143.463C34.6365 147.451 37.2688 151.445 42.5397 154.488L114.327 195.934C114.958 196.298 115.614 196.638 116.289 196.959C116.514 197.066 116.753 197.158 116.983 197.26C117.383 197.438 117.777 197.623 118.189 197.786C118.236 197.804 118.287 197.816 118.333 197.834C119.262 198.196 120.222 198.517 121.204 198.803C121.283 198.827 121.357 198.859 121.437 198.882C121.662 198.946 121.896 198.99 122.122 199.051C122.669 199.195 123.219 199.334 123.777 199.456C123.928 199.489 124.073 199.535 124.225 199.566C124.444 199.611 124.67 199.64 124.89 199.682C125.358 199.771 125.828 199.854 126.301 199.927C126.494 199.957 126.681 200 126.874 200.027C127.08 200.056 127.292 200.07 127.499 200.097C127.941 200.152 128.384 200.202 128.829 200.245C129.044 200.266 129.255 200.299 129.47 200.316C129.668 200.333 129.868 200.335 130.067 200.348C130.515 200.38 130.965 200.403 131.416 200.421C131.644 200.43 131.871 200.452 132.1 200.457C132.281 200.462 132.463 200.452 132.644 200.455C133.131 200.461 133.617 200.457 134.104 200.448C134.348 200.444 134.591 200.453 134.834 200.445C134.978 200.44 135.12 200.423 135.263 200.416C135.867 200.39 136.467 200.347 137.068 200.296C137.31 200.276 137.553 200.272 137.794 200.248C137.869 200.24 137.942 200.224 138.016 200.217C139.039 200.109 140.052 199.97 141.051 199.793C141.1 199.785 141.151 199.782 141.199 199.773C141.491 199.721 141.773 199.648 142.062 199.589C142.557 199.489 143.05 199.39 143.536 199.273C143.891 199.187 144.236 199.086 144.586 198.991C145.049 198.866 145.51 198.74 145.962 198.598C146.058 198.568 146.159 198.546 146.255 198.515C146.417 198.463 146.566 198.39 146.727 198.335C147.446 198.091 148.146 197.826 148.831 197.539C149.087 197.431 149.341 197.327 149.591 197.214C150.462 196.82 151.312 196.404 152.112 195.938L218.168 157.552C218.278 157.488 218.387 157.423 218.495 157.358C218.74 157.211 218.949 157.052 219.183 156.9C219.51 156.687 219.842 156.476 220.145 156.257C220.41 156.064 220.647 155.864 220.894 155.666C221.173 155.442 221.458 155.219 221.714 154.988C221.766 154.941 221.83 154.897 221.881 154.851C222.224 154.534 222.541 154.211 222.841 153.884C222.902 153.816 222.956 153.746 223.016 153.678C223.194 153.476 223.377 153.275 223.539 153.068C223.665 152.907 223.779 152.744 223.895 152.581C223.938 152.521 223.984 152.461 224.026 152.401C224.238 152.094 224.438 151.784 224.615 151.471C224.652 151.405 224.674 151.336 224.709 151.27C224.858 150.995 224.978 150.717 225.098 150.439C225.169 150.276 225.265 150.117 225.327 149.953C225.347 149.898 225.355 149.842 225.374 149.787C225.469 149.523 225.533 149.257 225.602 148.99C225.65 148.81 225.721 148.63 225.758 148.449C225.767 148.401 225.765 148.353 225.774 148.305C225.826 148.026 225.845 147.746 225.871 147.466C225.887 147.283 225.927 147.1 225.933 146.916C225.935 146.839 225.937 146.759 225.937 146.681L225.968 135.733C225.967 135.994 225.926 136.255 225.902 136.515Z"/>
</mask>
<path d="M225.902 136.515C225.876 136.796 225.857 137.077 225.806 137.357C225.763 137.585 225.694 137.812 225.634 138.04C225.565 138.307 225.499 138.574 225.404 138.839C225.327 139.057 225.224 139.273 225.13 139.49C225.009 139.769 224.888 140.048 224.739 140.323C224.534 140.704 224.314 141.081 224.057 141.453C224.015 141.514 223.968 141.573 223.925 141.634C223.659 142.005 223.365 142.371 223.046 142.732C222.986 142.799 222.933 142.868 222.872 142.935C222.528 143.311 222.148 143.679 221.746 144.041C221.49 144.271 221.204 144.494 220.925 144.718C220.678 144.916 220.441 145.118 220.176 145.31C219.874 145.53 219.541 145.739 219.216 145.95C218.88 146.169 218.561 146.394 218.199 146.604L152.143 184.991C151.343 185.456 150.493 185.873 149.622 186.267C149.372 186.379 149.115 186.484 148.861 186.591C148.177 186.878 147.476 187.143 146.759 187.388C146.503 187.475 146.253 187.569 145.993 187.651C145.542 187.793 145.079 187.918 144.617 188.044C144.268 188.139 143.922 188.24 143.567 188.326C143.081 188.443 142.587 188.542 142.093 188.642C141.756 188.71 141.423 188.785 141.082 188.846C140.083 189.023 139.07 189.162 138.047 189.269C137.733 189.302 137.415 189.321 137.099 189.348C136.498 189.398 135.897 189.442 135.293 189.469C134.907 189.485 134.522 189.493 134.135 189.501C133.649 189.51 133.161 189.514 132.674 189.507C132.265 189.502 131.856 189.49 131.448 189.473C130.996 189.455 130.546 189.432 130.096 189.401C129.684 189.372 129.273 189.337 128.862 189.297C128.416 189.254 127.971 189.205 127.529 189.149C127.129 189.098 126.729 189.041 126.333 188.98C125.858 188.905 125.387 188.822 124.918 188.733C124.548 188.663 124.178 188.589 123.811 188.509C123.252 188.386 122.699 188.248 122.152 188.102C121.846 188.021 121.537 187.944 121.235 187.856C120.253 187.569 119.292 187.249 118.364 186.887C117.904 186.707 117.459 186.51 117.014 186.312C116.784 186.21 116.545 186.117 116.32 186.01C115.645 185.69 114.989 185.351 114.358 184.986L42.5709 143.54C37.2999 140.498 34.6676 136.504 34.6786 132.516L34.6475 143.463C34.6365 147.451 37.2688 151.445 42.5397 154.488L114.327 195.934C114.958 196.298 115.614 196.638 116.289 196.959C116.514 197.066 116.753 197.158 116.983 197.26C117.383 197.438 117.777 197.623 118.189 197.786C118.236 197.804 118.287 197.816 118.333 197.834C119.262 198.196 120.222 198.517 121.204 198.803C121.283 198.827 121.357 198.859 121.437 198.882C121.662 198.946 121.896 198.99 122.122 199.051C122.669 199.195 123.219 199.334 123.777 199.456C123.928 199.489 124.073 199.535 124.225 199.566C124.444 199.611 124.67 199.64 124.89 199.682C125.358 199.771 125.828 199.854 126.301 199.927C126.494 199.957 126.681 200 126.874 200.027C127.08 200.056 127.292 200.07 127.499 200.097C127.941 200.152 128.384 200.202 128.829 200.245C129.044 200.266 129.255 200.299 129.47 200.316C129.668 200.333 129.868 200.335 130.067 200.348C130.515 200.38 130.965 200.403 131.416 200.421C131.644 200.43 131.871 200.452 132.1 200.457C132.281 200.462 132.463 200.452 132.644 200.455C133.131 200.461 133.617 200.457 134.104 200.448C134.348 200.444 134.591 200.453 134.834 200.445C134.978 200.44 135.12 200.423 135.263 200.416C135.867 200.39 136.467 200.347 137.068 200.296C137.31 200.276 137.553 200.272 137.794 200.248C137.869 200.24 137.942 200.224 138.016 200.217C139.039 200.109 140.052 199.97 141.051 199.793C141.1 199.785 141.151 199.782 141.199 199.773C141.491 199.721 141.773 199.648 142.062 199.589C142.557 199.489 143.05 199.39 143.536 199.273C143.891 199.187 144.236 199.086 144.586 198.991C145.049 198.866 145.51 198.74 145.962 198.598C146.058 198.568 146.159 198.546 146.255 198.515C146.417 198.463 146.566 198.39 146.727 198.335C147.446 198.091 148.146 197.826 148.831 197.539C149.087 197.431 149.341 197.327 149.591 197.214C150.462 196.82 151.312 196.404 152.112 195.938L218.168 157.552C218.278 157.488 218.387 157.423 218.495 157.358C218.74 157.211 218.949 157.052 219.183 156.9C219.51 156.687 219.842 156.476 220.145 156.257C220.41 156.064 220.647 155.864 220.894 155.666C221.173 155.442 221.458 155.219 221.714 154.988C221.766 154.941 221.83 154.897 221.881 154.851C222.224 154.534 222.541 154.211 222.841 153.884C222.902 153.816 222.956 153.746 223.016 153.678C223.194 153.476 223.377 153.275 223.539 153.068C223.665 152.907 223.779 152.744 223.895 152.581C223.938 152.521 223.984 152.461 224.026 152.401C224.238 152.094 224.438 151.784 224.615 151.471C224.652 151.405 224.674 151.336 224.709 151.27C224.858 150.995 224.978 150.717 225.098 150.439C225.169 150.276 225.265 150.117 225.327 149.953C225.347 149.898 225.355 149.842 225.374 149.787C225.469 149.523 225.533 149.257 225.602 148.99C225.65 148.81 225.721 148.63 225.758 148.449C225.767 148.401 225.765 148.353 225.774 148.305C225.826 148.026 225.845 147.746 225.871 147.466C225.887 147.283 225.927 147.1 225.933 146.916C225.935 146.839 225.937 146.759 225.937 146.681L225.968 135.733C225.967 135.994 225.926 136.255 225.902 136.515Z" fill="#9AB0F6" stroke="black" stroke-width="2" mask="url(#path-5-inside-1_1299_28)"/>
<path d="M217.834 125.146C222.982 128.118 225.455 131.942 225.475 135.663C225.495 139.383 223.064 143.203 217.955 146.172L151.9 184.56C146.793 187.527 140.058 189.026 133.287 189.025C126.516 189.025 119.761 187.525 114.616 184.554L42.8284 143.108C37.6842 140.138 35.209 136.315 35.1862 132.595C35.1634 128.876 37.59 125.056 42.6987 122.087L108.754 83.6992C113.861 80.7316 120.6 79.2333 127.374 79.2333C134.149 79.2333 140.905 80.7316 146.047 83.6999L217.834 125.146Z" fill="#D1D9FA" stroke="black"/>
<path d="M113.289 91.4577L113.038 91.0254L113.289 91.4577C117.333 89.1074 122.677 87.9177 128.055 87.9177C133.433 87.9177 138.791 89.1074 142.863 91.4584L199.989 124.441C204.067 126.795 206.003 129.81 206.018 132.722C206.034 135.632 204.132 138.644 200.085 140.995L147.521 171.543C143.477 173.893 138.136 175.083 132.761 175.083C127.385 175.082 122.029 173.892 117.953 171.539L60.8275 138.557L60.5775 138.99L60.8275 138.557C56.7521 136.204 54.8145 133.19 54.7965 130.278C54.7785 127.368 56.6771 124.357 60.7234 122.005L113.289 91.4577Z" fill="#9AB0F6" stroke="black"/>
<path d="M221.72 133.762C221.712 133.784 221.709 133.807 221.701 133.829C221.636 134.018 221.538 134.203 221.418 134.384C221.396 134.417 221.375 134.449 221.352 134.482C221.221 134.662 221.064 134.837 220.878 135.005C220.758 135.113 220.604 135.211 220.461 135.313C220.337 135.401 220.231 135.495 220.09 135.577C219.734 135.784 219.334 135.949 218.92 136.092C218.773 136.142 218.621 136.185 218.469 136.228C218.272 136.283 218.075 136.336 217.871 136.378C217.631 136.427 217.388 136.472 217.14 136.503C217.082 136.511 217.025 136.521 216.966 136.527C216.634 136.563 216.297 136.58 215.96 136.583C215.907 136.584 215.853 136.583 215.799 136.583C215.467 136.58 215.135 136.563 214.808 136.529C214.757 136.523 214.707 136.518 214.657 136.511C214.331 136.472 214.01 136.418 213.697 136.348C213.641 136.335 213.585 136.32 213.529 136.306C213.245 136.237 212.969 136.152 212.703 136.055C212.653 136.037 212.6 136.024 212.552 136.005C212.232 135.881 211.927 135.74 211.645 135.577C211.056 135.237 210.616 134.845 210.322 134.426C210.029 134.007 209.884 133.56 209.885 133.115L209.875 136.4C209.873 137.29 210.459 138.182 211.636 138.862C211.903 139.016 212.19 139.153 212.491 139.272C212.508 139.278 212.526 139.283 212.543 139.289C212.592 139.309 212.643 139.322 212.694 139.341C212.865 139.403 213.035 139.464 213.214 139.516C213.313 139.544 213.416 139.566 213.518 139.591C213.575 139.604 213.631 139.619 213.688 139.632C213.739 139.643 213.786 139.658 213.837 139.669C214.032 139.709 214.231 139.744 214.43 139.772C214.503 139.782 214.576 139.788 214.648 139.796C214.699 139.801 214.748 139.808 214.798 139.813C214.87 139.821 214.941 139.831 215.014 139.837C215.21 139.854 215.407 139.864 215.604 139.868C215.667 139.87 215.728 139.867 215.79 139.867C215.844 139.867 215.897 139.867 215.951 139.867C216.04 139.866 216.129 139.868 216.219 139.865C216.442 139.858 216.664 139.843 216.885 139.821C216.91 139.819 216.932 139.814 216.957 139.811C217.016 139.805 217.073 139.794 217.131 139.787C217.304 139.765 217.478 139.745 217.649 139.715C217.722 139.702 217.789 139.677 217.861 139.662C218.065 139.62 218.262 139.568 218.459 139.513C218.565 139.484 218.676 139.467 218.779 139.434C218.826 139.419 218.864 139.392 218.911 139.375C219.326 139.233 219.725 139.069 220.08 138.862C220.105 138.848 220.129 138.833 220.153 138.819C220.267 138.75 220.35 138.67 220.452 138.597C220.595 138.495 220.748 138.397 220.868 138.289C220.879 138.279 220.896 138.27 220.907 138.26C221.047 138.131 221.17 137.999 221.277 137.862C221.302 137.831 221.319 137.798 221.342 137.766C221.365 137.733 221.386 137.701 221.408 137.668C221.444 137.614 221.486 137.561 221.517 137.506C221.581 137.394 221.634 137.281 221.677 137.166C221.683 137.149 221.685 137.131 221.691 137.113C221.699 137.091 221.703 137.068 221.711 137.046C221.734 136.974 221.758 136.902 221.773 136.829C221.796 136.716 221.809 136.601 221.812 136.487C221.813 136.469 221.813 136.451 221.813 136.434L221.822 133.149C221.821 133.354 221.783 133.56 221.72 133.762Z" fill="#E2E7FD"/>
<path d="M220.06 130.687C222.392 132.034 222.413 134.226 220.088 135.578C217.771 136.924 213.975 136.924 211.643 135.578C209.302 134.226 209.299 132.034 211.616 130.687C213.941 129.335 217.719 129.335 220.06 130.687Z" fill="#F0F2FF"/>
<path d="M137.623 181.803C137.616 181.825 137.611 181.847 137.604 181.869C137.539 182.058 137.441 182.243 137.321 182.424C137.299 182.457 137.278 182.49 137.254 182.523C137.123 182.704 136.967 182.878 136.781 183.045C136.661 183.153 136.508 183.252 136.365 183.354C136.24 183.442 136.135 183.536 135.993 183.619C135.636 183.826 135.235 183.99 134.819 184.134C134.671 184.185 134.52 184.229 134.367 184.272C134.171 184.327 133.974 184.378 133.771 184.42C133.529 184.469 133.286 184.515 133.037 184.546C132.98 184.554 132.924 184.563 132.867 184.569C132.535 184.605 132.198 184.622 131.861 184.625C131.807 184.625 131.753 184.626 131.7 184.626C131.368 184.623 131.036 184.605 130.708 184.57C130.659 184.565 130.609 184.559 130.56 184.554C130.234 184.514 129.914 184.46 129.601 184.39C129.543 184.377 129.487 184.361 129.43 184.348C129.146 184.278 128.871 184.193 128.605 184.097C128.556 184.079 128.505 184.065 128.456 184.046C128.137 183.923 127.831 183.782 127.549 183.619C126.371 182.938 125.782 182.046 125.785 181.156L125.775 184.44C125.773 185.33 126.362 186.222 127.539 186.903C127.808 187.058 128.095 187.195 128.398 187.314C128.413 187.321 128.431 187.324 128.446 187.331C128.495 187.349 128.547 187.363 128.596 187.381C128.769 187.443 128.942 187.507 129.122 187.559C129.219 187.586 129.321 187.607 129.42 187.632C129.477 187.647 129.534 187.661 129.593 187.674C129.644 187.686 129.694 187.701 129.746 187.712C129.941 187.752 130.139 187.786 130.338 187.814C130.409 187.824 130.48 187.83 130.551 187.838C130.6 187.845 130.65 187.849 130.699 187.855C130.772 187.862 130.846 187.873 130.92 187.879C131.116 187.896 131.313 187.907 131.51 187.911C131.57 187.913 131.63 187.91 131.69 187.91C131.744 187.91 131.797 187.91 131.851 187.91C131.942 187.909 132.033 187.911 132.123 187.909C132.345 187.901 132.566 187.886 132.786 187.864C132.81 187.861 132.834 187.856 132.858 187.854C132.916 187.847 132.971 187.838 133.027 187.831C133.201 187.809 133.376 187.79 133.548 187.758C133.621 187.746 133.689 187.719 133.762 187.704C133.965 187.662 134.162 187.611 134.358 187.556C134.464 187.527 134.575 187.509 134.678 187.476C134.725 187.461 134.763 187.435 134.81 187.419C135.226 187.275 135.627 187.11 135.984 186.902C136.009 186.888 136.032 186.875 136.056 186.86C136.171 186.791 136.253 186.712 136.356 186.638C136.499 186.537 136.652 186.438 136.772 186.33C136.783 186.32 136.8 186.311 136.811 186.301C136.95 186.172 137.074 186.039 137.181 185.903C137.206 185.872 137.222 185.84 137.245 185.808C137.269 185.775 137.29 185.742 137.312 185.709C137.348 185.655 137.39 185.601 137.421 185.547C137.484 185.435 137.537 185.321 137.58 185.207C137.587 185.189 137.589 185.171 137.595 185.154C137.602 185.132 137.607 185.109 137.614 185.087C137.637 185.014 137.662 184.943 137.676 184.871C137.699 184.757 137.712 184.642 137.716 184.527C137.717 184.51 137.717 184.492 137.717 184.475L137.726 181.191C137.725 181.396 137.687 181.601 137.623 181.803Z" fill="#E2E7FD"/>
<path d="M135.968 178.728C138.3 180.074 138.321 182.267 135.996 183.618C133.67 184.97 129.883 184.965 127.551 183.618C125.21 182.267 125.198 180.079 127.524 178.728C129.849 177.376 133.627 177.376 135.968 178.728Z" fill="#F0F2FF"/>
<path d="M51.2274 130.644C51.22 130.666 51.2154 130.689 51.2081 130.711C51.1431 130.9 51.0451 131.085 50.9251 131.266C50.9031 131.299 50.8821 131.333 50.8582 131.365C50.7273 131.546 50.5707 131.72 50.3847 131.887C50.2648 131.995 50.1118 132.094 49.9689 132.196C49.8444 132.284 49.739 132.378 49.5971 132.461C49.2399 132.669 48.8387 132.832 48.4229 132.976C48.2754 133.027 48.1243 133.071 47.9714 133.114C47.7754 133.169 47.5784 133.22 47.3751 133.262C47.1333 133.311 46.8897 133.357 46.6406 133.388C46.5838 133.396 46.5279 133.405 46.4711 133.411C46.1387 133.447 45.8016 133.464 45.4646 133.467C45.4115 133.467 45.3574 133.468 45.3043 133.468C44.9718 133.465 44.6403 133.447 44.3124 133.412C44.2629 133.407 44.2135 133.401 44.164 133.396C43.8389 133.356 43.5192 133.302 43.206 133.232C43.1483 133.219 43.0915 133.203 43.0338 133.19C42.7499 133.12 42.4751 133.035 42.2095 132.939C42.16 132.921 42.1088 132.907 42.0602 132.888C41.7406 132.765 41.4347 132.624 41.1526 132.461C39.9747 131.78 39.3858 130.888 39.3886 129.998L39.3794 133.282C39.3767 134.172 39.9656 135.065 41.1434 135.745C41.4118 135.9 41.6994 136.037 42.0016 136.156C42.0172 136.163 42.0346 136.166 42.0501 136.173C42.0987 136.191 42.1509 136.205 42.2003 136.223C42.3734 136.285 42.5456 136.349 42.7261 136.401C42.8231 136.428 42.9248 136.449 43.0237 136.474C43.0814 136.489 43.1382 136.503 43.1968 136.516C43.2481 136.528 43.2976 136.543 43.3498 136.554C43.5449 136.594 43.7427 136.628 43.9424 136.656C44.0129 136.666 44.0843 136.672 44.1549 136.68C44.2043 136.687 44.2538 136.691 44.3032 136.697C44.3765 136.704 44.4498 136.715 44.524 136.721C44.72 136.738 44.9169 136.749 45.1138 136.753C45.1742 136.755 45.2338 136.752 45.2942 136.752C45.3483 136.752 45.4014 136.752 45.4554 136.752C45.5461 136.751 45.6368 136.753 45.7265 136.751C45.9491 136.743 46.1698 136.728 46.3896 136.706C46.4134 136.703 46.4372 136.698 46.4611 136.696C46.5188 136.689 46.5755 136.679 46.6333 136.672C46.8073 136.65 46.9813 136.632 47.1516 136.6C47.2249 136.588 47.2927 136.561 47.366 136.546C47.5693 136.504 47.7662 136.453 47.9622 136.398C48.0675 136.369 48.1793 136.351 48.2819 136.318C48.3295 136.303 48.367 136.277 48.4137 136.261C48.8296 136.117 49.2307 135.952 49.5879 135.744C49.6126 135.73 49.6365 135.717 49.6603 135.702C49.7757 135.632 49.8572 135.553 49.9607 135.479C50.1036 135.378 50.2556 135.28 50.3756 135.172C50.3866 135.162 50.404 135.153 50.415 135.143C50.5542 135.014 50.6778 134.881 50.785 134.745C50.8097 134.714 50.8262 134.682 50.8491 134.65C50.8729 134.617 50.894 134.584 50.9159 134.551C50.9517 134.497 50.9938 134.444 51.0249 134.389C51.0881 134.277 51.1413 134.163 51.1843 134.049C51.1907 134.031 51.1925 134.013 51.199 133.996C51.2063 133.974 51.2109 133.952 51.2182 133.93C51.2411 133.857 51.2658 133.785 51.2805 133.713C51.3034 133.599 51.3162 133.484 51.3199 133.369C51.3208 133.352 51.3208 133.334 51.3208 133.317L51.3299 130.033C51.329 130.238 51.2905 130.442 51.2274 130.644Z" fill="#E2E7FD"/>
<path d="M49.5723 127.568C51.9042 128.915 51.9252 131.107 49.5998 132.459C47.2744 133.811 43.4871 133.805 41.1553 132.459C38.8143 131.107 38.8024 128.92 41.1278 127.568C43.4533 126.216 47.2313 126.216 49.5723 127.568Z" fill="#F0F2FF"/>
<path d="M139.413 209.2L139.403 212.485L130.884 217.436L130.893 214.151L139.413 209.2Z" fill="#D6DEFC"/>
<path d="M130.892 214.15L130.882 217.434L122.865 212.805L122.874 209.521L130.892 214.15Z" fill="#E2E7FD"/>
<path d="M139.407 209.199L130.888 214.15L122.872 209.521L131.39 204.57L139.407 209.199Z" fill="#F0F2FF"/>
<path d="M27.5083 143.999L27.4991 147.284L18.9795 152.235L18.9887 148.951L27.5083 143.999Z" fill="#D6DEFC"/>
<path d="M18.9873 148.951L18.9781 152.236L10.9604 147.607L10.9696 144.323L18.9873 148.951Z" fill="#E2E7FD"/>
<path d="M27.5047 144L18.986 148.951L10.9692 144.322L19.4879 139.371L27.5047 144Z" fill="#F0F2FF"/>
<path d="M247.99 145.324L247.981 148.608L239.461 153.56L239.471 150.275L247.99 145.324Z" fill="#D6DEFC"/>
<path d="M239.473 150.275L239.464 153.56L231.446 148.931L231.455 145.646L239.473 150.275Z" fill="#E2E7FD"/>
<path d="M247.994 145.325L239.476 150.276L231.459 145.647L239.978 140.696L247.994 145.325Z" fill="#F0F2FF"/>
<path d="M88.2442 202.052C89.531 202.795 90.5769 204.605 90.5724 206.084C90.5678 207.57 89.5163 208.168 88.2295 207.426L40.5318 179.888C39.2386 179.141 38.199 177.335 38.2036 175.849C38.2082 174.369 39.2532 173.768 40.5465 174.514L88.2442 202.052Z" fill="#F0F2FF"/>
<path d="M217.315 176.688C218.627 175.931 219.699 176.535 219.704 178.05C219.708 179.558 218.643 181.403 217.33 182.16L168.696 210.24C167.377 211.001 166.312 210.387 166.307 208.879C166.303 207.364 167.361 205.528 168.68 204.767L217.315 176.688Z" fill="#F0F2FF"/>
<path d="M197.283 73.5345C197.283 113.423 164.947 145.759 125.059 145.759C85.1703 145.759 52.8345 113.423 52.8345 73.5345C52.8345 33.6462 85.1703 1.31042 125.059 1.31042C164.947 1.31042 197.283 33.6462 197.283 73.5345Z" fill="#CBC1FF"/>
<path d="M197.283 73.5345C197.283 113.423 164.947 145.759 125.059 145.759C85.1703 145.759 52.8345 113.423 52.8345 73.5345C52.8345 33.6462 85.1703 1.31042 125.059 1.31042C164.947 1.31042 197.283 33.6462 197.283 73.5345Z" stroke="black" stroke-width="1.5" stroke-miterlimit="10"/>
<path d="M206.273 73.5344C206.273 113.423 173.938 145.758 134.049 145.758C94.161 145.758 61.8252 113.423 61.8252 73.5344C61.8252 33.6461 94.161 1.3103 134.049 1.3103C173.938 1.3103 206.273 33.6461 206.273 73.5344Z" fill="#CBC1FF"/>
<path d="M206.273 73.5344C206.273 113.423 173.938 145.758 134.049 145.758C94.161 145.758 61.8252 113.423 61.8252 73.5344C61.8252 33.6461 94.161 1.3103 134.049 1.3103C173.938 1.3103 206.273 33.6461 206.273 73.5344Z" stroke="black" stroke-width="1.5" stroke-miterlimit="10"/>
<path d="M158.972 82.0412C158.638 76.8637 155.925 73.5278 151.071 71.841C150.516 71.6482 149.847 71.7145 149.393 71.1362C149.512 71.0096 149.609 70.843 149.754 70.7593C153.044 68.8565 154.573 65.9427 154.903 62.2136C155.407 56.5102 152.545 51.8746 147.219 49.8544C144.495 48.8211 141.68 48.3014 138.801 48.0832C137.738 48.0023 137.263 47.6941 137.319 46.4935C137.452 43.6676 137.385 40.8325 137.483 38.0042C137.494 37.6636 137.459 37.4002 137.394 37.1724L130.476 37.0869C130.47 37.1668 130.454 37.23 130.456 37.3233C130.506 40.2913 130.449 43.2611 130.494 46.2293C130.507 47.0572 130.262 47.4398 129.414 47.4424C128.348 47.4456 127.277 47.4515 126.216 47.5476C125.076 47.6509 124.805 47.1964 124.854 46.0976C124.981 43.2253 124.954 40.3464 125.033 37.4714C125.038 37.2938 125.021 37.1516 124.995 37.0195L118.381 36.9379C118.325 37.1136 118.293 37.3227 118.295 37.583C118.31 40.2719 118.238 42.9609 118.235 45.65C118.232 47.691 118.161 47.7923 116.192 47.8239C116.006 47.8268 115.82 47.8152 115.634 47.8145C112.297 47.805 108.959 47.801 105.621 47.7838C105.558 47.7835 105.5 47.7852 105.44 47.7858L105.527 55.268C106.751 55.2398 107.977 55.2423 109.201 55.2673C111.507 55.3144 112.723 56.4234 112.872 58.7482C112.973 60.321 112.9 61.9052 112.908 63.484C112.948 71.9792 112.997 80.4743 113.025 88.9697C113.032 90.8308 112.187 91.6683 110.31 91.7194C109.291 91.7471 108.27 91.7616 107.251 91.7323C107.005 93.3232 106.452 96.8752 105.922 100.076C109.506 100.088 113.088 100.348 116.674 100.194C117.704 100.15 117.981 100.525 117.941 101.578C117.826 104.573 117.873 107.574 117.831 110.572L124.897 110.778C124.898 110.729 124.909 110.7 124.908 110.649C124.859 107.819 124.968 104.987 124.958 102.157C124.954 101.106 125.201 100.494 126.42 100.586C127.341 100.655 128.279 100.617 129.199 100.528C130.284 100.422 130.671 100.795 130.632 101.916C130.529 104.836 130.551 107.76 130.486 110.681C130.483 110.78 130.498 110.852 130.502 110.941L137.625 111.149C137.625 111.14 137.627 111.136 137.628 111.127C137.619 108.209 137.799 105.291 137.789 102.373C137.785 101.075 138.275 100.607 139.538 100.528C142.512 100.342 145.441 99.8116 148.284 98.9076C152.53 97.5581 156.02 95.236 157.748 90.9293C158.887 88.0895 159.168 85.0856 158.972 82.0412ZM125.69 69.945C125.706 65.9165 125.686 61.8875 125.654 57.8588C125.647 57.0748 125.809 56.7625 126.736 56.7783C130.488 56.8419 134.265 56.6884 137.836 58.1172C142.328 59.9144 143.518 65.3033 140.076 68.1951C138.738 69.3185 137.137 69.9359 135.809 70.1702C132.507 70.963 129.54 70.8943 126.573 70.8449C125.946 70.8347 125.687 70.6312 125.69 69.945ZM141.241 91.1885C140.269 91.6403 139.276 92.024 138.439 92.1741C134.357 93.2113 130.405 93.0698 126.47 93.155C125.802 93.1695 125.568 92.8383 125.564 92.2188C125.536 87.7247 125.504 83.2307 125.461 78.7368C125.455 78.1556 125.52 77.7913 126.268 77.789C130.253 77.7781 134.244 77.5783 138.183 78.437C139.506 78.7256 140.761 79.1621 141.943 79.8432C144.224 81.157 145.306 83.1309 145.146 85.7214C144.986 88.3192 143.578 90.1021 141.241 91.1885Z" fill="#7876FE"/>
</svg>
