<svg width="306" height="246" viewBox="0 0 306 246" fill="none" xmlns="http://www.w3.org/2000/svg">
<g clip-path="url(#clip0_338_285)">
<path d="M39.2129 137.82C39.2129 137.82 54.1596 126.472 57.7517 127.668C61.3437 128.864 67.3224 138.422 48.1809 147.378C48.1809 147.37 33.2342 143.791 39.2129 137.82Z" fill="#F7C19B"/>
<path opacity="0.19" d="M59.1798 128.503C59.4611 136.769 53.7717 142.7 47.2305 147.114C47.8171 147.282 48.1787 147.37 48.1787 147.37C64.8933 139.554 62.4504 131.279 59.1798 128.503Z" fill="white"/>
<path d="M20.6743 136.022C20.6743 136.022 39.2131 113.92 43.3998 112.732C47.5865 111.537 58.3465 101.978 60.1465 103.174C61.9466 104.37 73.3013 115.718 46.3891 130.051C46.3891 130.051 41.0051 150.958 24.861 155.139L20.6743 136.022Z" fill="#F7C19B"/>
<path opacity="0.19" d="M54.1741 116.681C50.0597 121.071 44.8284 124.634 41.3729 129.594C35.8201 137.555 32.8067 147.089 24.0396 151.399L24.8592 155.139C41.0033 150.958 46.3873 130.052 46.3873 130.052C68.5262 118.262 64.7654 108.495 61.7358 104.731C59.984 109.145 57.509 113.118 54.1741 116.681Z" fill="white"/>
<path d="M16.5117 118.615C16.5117 118.615 33.2344 95.1164 37.3086 93.5915C41.3828 92.0667 51.3553 81.6818 53.2357 82.7332C55.1161 83.7845 67.3467 94.1935 41.664 110.613C41.664 110.613 37.9675 131.881 22.2011 137.33L16.5117 118.615Z" fill="#F7C19B"/>
<path opacity="0.19" d="M55.8075 85.1815C55.3977 85.6309 54.9798 86.0723 54.57 86.5218C49.7002 95.422 42.1465 102.396 36.7625 111.232C32.7204 117.853 30.3659 126.432 25.1426 132.21C25.5042 133.302 25.8337 134.417 26.1149 135.533C38.5946 128.278 41.6724 110.614 41.6724 110.614C60.9987 98.2549 58.8531 89.2986 55.8075 85.1815Z" fill="white"/>
<path d="M69.7157 332.517C69.7157 332.517 77.4864 272.198 70.913 257.263C64.3317 242.335 12.902 201.719 12.902 201.719C12.902 201.719 11.11 193.356 13.4967 189.175C15.8914 184.994 53.5636 157.523 53.5636 157.523C53.5636 157.523 72.1024 176.037 80.4757 179.023C88.8491 182.008 124.729 208.885 121.74 238.748C118.751 268.611 125.927 334.909 125.927 334.909L69.7157 332.517Z" fill="#F7C19B"/>
<path opacity="0.19" d="M55.5312 170.925C56.0295 172.498 56.7688 174.031 57.8054 175.484C60.2162 178.862 63.6234 181.35 67.3279 183.268C68.011 182.819 68.903 182.739 69.811 183.373C70.6146 183.934 71.4423 184.432 72.2861 184.906C72.8084 184.801 73.395 184.857 73.9977 185.162C74.2709 185.323 74.5522 185.459 74.8254 185.604C75.4843 185.323 76.2558 185.315 76.987 185.764C77.1076 185.836 77.2281 185.901 77.3406 185.965C77.6058 185.965 77.879 185.997 78.1603 186.101C78.7549 186.326 79.3576 186.511 79.9603 186.703C80.6675 185.893 81.8005 185.54 82.9577 186.366C91.974 192.762 98.9411 201.374 104.18 211.052C113.39 228.058 117.833 247.255 121.112 266.227C120.863 255.874 120.975 246.188 121.723 238.756C124.712 208.893 88.8319 182.016 80.4585 179.031C74.5924 176.936 63.7359 167.226 57.7652 161.592C57.4036 164.786 56.6723 167.956 55.5312 170.925Z" fill="white"/>
<path opacity="0.25" d="M120.737 312.124C103.565 336.024 85.0983 286.371 80.4455 274.389C76.2508 263.579 71.9435 250.529 63.4657 242.207C62.3246 241.083 57.3504 237.809 55.478 238.7C62.9192 246.003 68.9221 252.792 70.8989 257.271C77.4803 272.198 69.7015 332.525 69.7015 332.525L123.405 334.804C122.971 326.474 122.899 318.119 122.256 309.805C121.782 310.591 121.284 311.37 120.737 312.124Z" fill="black"/>
<path d="M17.6839 186.197C17.6839 186.197 -0.260205 142.001 0.342486 136.03C0.937141 130.051 -0.260205 72.7178 5.12383 74.5075C10.5079 76.2971 19.4759 76.2971 18.8813 105.566L24.2653 142.595L41.0121 170.066C41.004 170.066 33.828 197.545 17.6839 186.197Z" fill="#F7C19B"/>
<path opacity="0.19" d="M14.1812 109.916C14.4142 121.328 17.8214 132.515 23.1091 142.579C26.0421 148.165 29.2886 153.839 33.4914 158.582C33.9977 159.16 34.52 159.721 35.0504 160.275L24.2662 142.595L18.8822 105.566C19.4768 76.2973 10.5088 76.2973 5.12476 74.5076C4.5944 74.331 4.12028 74.7403 3.71045 75.6231C15.3705 79.676 13.9803 100.085 14.1812 109.916Z" fill="white"/>
<path d="M12.8877 201.068C12.8877 201.068 0.488375 160.139 3.30897 144.987C3.30897 144.987 19.5495 188.011 20.6745 196.349C21.7995 204.688 15.1378 205.619 12.8877 201.068Z" fill="#F7C19B"/>
<path d="M66.1245 218.443C66.1245 218.443 55.3565 199.335 52.9698 192.168C50.5751 185.001 11.7056 151.551 23.6629 140.212C35.6203 128.872 48.7831 149.168 57.1485 159.922C65.5218 170.676 80.4686 179.031 80.4686 179.031C80.4686 179.031 102.607 233.379 66.1245 218.443Z" fill="#F7C19B"/>
<path opacity="0.19" d="M54.7133 162.401C58.6267 168.188 63.7858 173.364 69.1136 177.85C72.6654 180.836 77.7762 184.784 82.8951 185.812C81.5852 181.751 80.4763 179.03 80.4763 179.03C80.4763 179.03 65.5296 170.668 57.1562 159.922C51.2418 152.329 42.9407 139.962 34.3584 137.362C43.4229 141.864 50.0203 155.459 54.7133 162.401Z" fill="white"/>
<g opacity="0.57">
<path d="M18.0065 186.013L4.2732 148.446C4.20088 148.254 3.99195 148.157 3.79909 148.23C3.60623 148.302 3.50979 148.511 3.58212 148.703L17.3395 186.326L17.3958 186.431C17.4922 186.551 19.8467 189.472 22.2495 191.27C22.3137 191.318 22.3941 191.342 22.4664 191.342C22.5789 191.342 22.6914 191.294 22.7638 191.198C22.8843 191.037 22.8522 190.805 22.6914 190.684C20.5217 189.055 18.3199 186.391 18.0065 186.013Z" fill="black"/>
<path d="M56.9 200.988L53.308 192.032L53.2276 191.912C52.9062 191.591 20.9395 159.489 21.6948 145.131C21.7993 143.157 22.5386 141.592 23.8967 140.501L23.985 140.404C23.9931 140.388 24.6038 139.393 25.8092 138.398L25.8333 138.502L26.2994 138.101C26.3155 138.093 26.4521 137.973 26.6851 137.756C27.7057 137.098 29.0155 136.544 30.6227 136.424C35.6451 136.039 41.4631 139.803 47.9079 147.611C48.0364 147.772 48.2695 147.788 48.4221 147.659C48.5829 147.531 48.5989 147.298 48.4704 147.146C46.2123 144.409 44.0265 142.17 41.9051 140.404C41.9131 140.388 41.9292 140.38 41.9372 140.364L46.7185 130.212C46.8069 130.028 46.7266 129.811 46.5418 129.723C46.3569 129.634 46.14 129.715 46.0516 129.899L41.3265 139.923C37.4692 136.849 33.8611 135.429 30.5423 135.686C29.7628 135.75 29.0557 135.902 28.4128 136.111C32.1254 132.459 39.5747 124.265 41.3586 115.799C41.3988 115.598 41.2702 115.405 41.0774 115.365C40.8845 115.325 40.6836 115.453 40.6434 115.646C38.5782 125.477 28.6298 134.987 26.3074 137.106C26.2994 137.114 26.2913 137.122 26.2833 137.122L21.0439 113.848C20.9957 113.648 20.8028 113.527 20.6019 113.568C20.401 113.616 20.2805 113.808 20.3207 114.009L25.6324 137.58C24.2984 138.599 23.5591 139.69 23.3904 139.963C21.8957 141.191 21.0841 142.916 20.9636 145.091C20.6421 151.279 25.8896 161.134 36.5773 174.384C44.1631 183.798 51.9419 191.655 52.6571 192.385L56.217 201.277C56.2732 201.422 56.4098 201.51 56.5625 201.51C56.6107 201.51 56.6509 201.502 56.6991 201.486C56.8839 201.39 56.9723 201.181 56.9 200.988Z" fill="black"/>
</g>
<path d="M32.0561 137.051C32.192 137.067 32.303 137.081 32.3855 137.092C32.3909 137.098 32.3964 137.105 32.4022 137.111C32.4902 137.211 32.6192 137.358 32.781 137.549C33.1046 137.93 33.5594 138.481 34.0814 139.159C35.1269 140.518 36.4349 142.377 37.5003 144.396C38.57 146.422 39.3712 148.565 39.4507 150.499C39.5289 152.403 38.9126 154.091 37.1348 155.322C35.3467 156.558 33.5722 156.568 31.8675 155.88C30.1328 155.18 28.4714 153.751 27.0125 152.112C25.5596 150.48 24.3405 148.677 23.4826 147.276C23.0544 146.577 22.7178 145.981 22.4886 145.561C22.3741 145.35 22.2865 145.184 22.2278 145.071C22.2079 145.033 22.1913 145.001 22.1781 144.975C21.8687 142.464 22.3676 140.771 23.2247 139.618C24.0975 138.443 25.3936 137.759 26.7824 137.378C28.1712 136.996 29.614 136.929 30.7202 136.96C31.2711 136.976 31.7331 137.016 32.0561 137.051Z" fill="#BFB2FF" stroke="#545454"/>
<path opacity="0.34" d="M29.7152 140.533C33.5322 143.775 37.5019 149.056 38.8841 154.312C43.2717 148.269 32.6322 136.624 32.6322 136.624C32.6322 136.624 27.3366 135.717 24.082 138.085C26.1633 137.876 28.1723 139.216 29.7152 140.533Z" fill="white"/>
<path d="M2.73992 93.3689C2.45484 93.4945 2.19937 93.5759 1.99544 93.6282C1.58962 88.2575 1.59806 84.3872 1.83849 81.6064C2.08767 78.7243 2.58345 77.0472 3.09816 76.0881C3.60389 75.1458 4.10358 74.9346 4.39115 74.8896C4.52394 74.8688 4.63987 74.8787 4.729 74.8968C7.61179 84.2439 6.66915 88.9285 5.15809 91.2594C4.39655 92.4341 3.46937 93.0473 2.73992 93.3689Z" fill="#BFB2FF" stroke="#545454"/>
<path opacity="0.34" d="M5.12478 74.5073C5.12478 74.5073 4.82745 74.3468 4.40155 74.3869C5.5105 80.5585 5.80783 86.7702 4.37744 92.9016C6.61142 90.9755 8.78914 86.2244 5.12478 74.5073Z" fill="white"/>
<path d="M52.9441 83.0759C52.9958 83.1185 53.0352 83.1636 53.0649 83.2057C48.9925 89.8958 45.6932 91.7989 43.5247 92.1307C42.4292 92.2983 41.5812 92.0731 41.0105 91.8129C40.8372 91.7339 40.6891 91.6514 40.5675 91.5754C43.55 88.5057 45.8605 86.468 47.6456 85.1403C49.5139 83.7507 50.779 83.1597 51.6147 82.9601C52.4322 82.765 52.7931 82.9517 52.9441 83.0759Z" fill="#BFB2FF" stroke="#545454"/>
<path d="M59.5498 103.272C59.5831 103.3 59.6103 103.328 59.6323 103.356C55.9478 109.391 52.9734 111.096 51.0322 111.394C50.0502 111.545 49.2917 111.343 48.7821 111.111C48.6503 111.05 48.5349 110.988 48.4366 110.929C51.118 108.173 53.1967 106.341 54.8035 105.146C56.4944 103.888 57.6352 103.356 58.3841 103.177C59.115 103.003 59.4266 103.171 59.5498 103.272ZM48.0307 110.634C48.0305 110.634 48.0305 110.634 48.0309 110.635L48.0307 110.634Z" fill="#BFB2FF" stroke="#545454"/>
<path d="M266.201 137.82C266.201 137.82 251.254 126.472 247.662 127.668C244.07 128.864 238.091 138.422 257.233 147.378C257.225 147.37 272.179 143.791 266.201 137.82Z" fill="#F7C19B"/>
<path opacity="0.19" d="M246.231 128.503C245.95 136.769 251.639 142.7 258.181 147.114C257.594 147.282 257.232 147.37 257.232 147.37C240.518 139.554 242.961 131.279 246.231 128.503Z" fill="white"/>
<path d="M284.74 136.022C284.74 136.022 266.201 113.92 262.015 112.732C257.828 111.537 247.068 101.978 245.268 103.174C243.468 104.37 232.113 115.718 259.025 130.051C259.025 130.051 264.409 150.958 280.554 155.139L284.74 136.022Z" fill="#F7C19B"/>
<path opacity="0.19" d="M251.24 116.681C255.355 121.071 260.586 124.634 264.041 129.594C269.594 137.555 272.608 147.089 281.375 151.399L280.555 155.139C264.411 150.958 259.027 130.052 259.027 130.052C236.888 118.262 240.649 108.495 243.678 104.731C245.43 109.145 247.905 113.118 251.24 116.681Z" fill="white"/>
<path d="M288.902 118.615C288.902 118.615 272.179 95.1164 268.105 93.5915C264.031 92.0667 254.058 81.6818 252.178 82.7332C250.297 83.7845 238.067 94.1935 263.749 110.613C263.749 110.613 267.446 131.881 283.212 137.33L288.902 118.615Z" fill="#F7C19B"/>
<path opacity="0.19" d="M249.609 85.1815C250.019 85.6309 250.436 86.0723 250.846 86.5218C255.716 95.422 263.27 102.396 268.654 111.232C272.696 117.853 275.05 126.432 280.274 132.21C279.912 133.302 279.583 134.417 279.301 135.533C266.822 128.278 263.744 110.614 263.744 110.614C244.417 98.2549 246.563 89.2986 249.609 85.1815Z" fill="white"/>
<path d="M235.698 332.516C235.698 332.516 227.927 272.197 234.5 257.262C241.082 242.334 292.511 201.718 292.511 201.718C292.511 201.718 294.303 193.355 291.917 189.174C289.522 184.993 251.85 157.522 251.85 157.522C251.85 157.522 233.311 176.036 224.938 179.022C216.564 182.007 180.684 208.885 183.674 238.747C186.663 268.61 179.487 334.908 179.487 334.908L235.698 332.516Z" fill="#F7C19B"/>
<path opacity="0.19" d="M249.88 170.924C249.381 172.497 248.642 174.03 247.605 175.483C245.195 178.862 241.787 181.349 238.083 183.267C237.4 182.818 236.508 182.738 235.6 183.372C234.796 183.934 233.969 184.431 233.125 184.905C232.603 184.8 232.016 184.857 231.413 185.161C231.14 185.322 230.859 185.458 230.585 185.603C229.927 185.322 229.155 185.314 228.424 185.763C228.303 185.836 228.183 185.9 228.07 185.964C227.805 185.964 227.532 185.996 227.251 186.1C226.656 186.325 226.053 186.51 225.451 186.702C224.743 185.892 223.61 185.539 222.453 186.365C213.437 192.762 206.47 201.373 201.23 211.051C192.021 228.057 187.577 247.254 184.299 266.226C184.548 255.873 184.435 246.187 183.688 238.755C180.699 208.893 216.579 182.016 224.952 179.03C230.819 176.935 241.675 167.225 247.646 161.591C248.007 164.785 248.739 167.955 249.88 170.924Z" fill="white"/>
<path opacity="0.25" d="M184.669 312.124C201.842 336.024 220.308 286.371 224.961 274.389C229.156 263.579 233.463 250.529 241.941 242.207C243.082 241.083 248.056 237.809 249.928 238.7C242.487 246.003 236.484 252.792 234.507 257.271C227.926 272.198 235.705 332.525 235.705 332.525L182.001 334.804C182.435 326.474 182.507 318.119 183.15 309.805C183.632 310.591 184.13 311.37 184.669 312.124Z" fill="black"/>
<path d="M287.73 186.197C287.73 186.197 305.674 142.001 305.071 136.03C304.477 130.059 305.666 72.7258 300.29 74.5155C294.906 76.3052 285.938 76.3052 286.533 105.574L281.149 142.595L264.402 170.066C264.402 170.066 271.578 197.545 287.73 186.197Z" fill="#F7C19B"/>
<path opacity="0.19" d="M291.232 109.916C290.999 121.328 287.592 132.515 282.304 142.579C279.371 148.165 276.125 153.839 271.922 158.582C271.415 159.16 270.893 159.721 270.363 160.275L281.147 142.595L286.531 105.566C285.936 76.2973 294.904 76.2973 300.288 74.5076C300.827 74.331 301.293 74.7403 301.703 75.6231C290.043 79.676 291.433 100.085 291.232 109.916Z" fill="white"/>
<path d="M292.526 201.068C292.526 201.068 304.925 160.139 302.104 144.987C302.104 144.987 285.864 188.011 284.739 196.349C283.606 204.688 290.276 205.619 292.526 201.068Z" fill="#F7C19B"/>
<path d="M239.289 218.443C239.289 218.443 250.057 199.334 252.443 192.168C254.838 185.001 293.708 151.551 281.75 140.211C269.793 128.863 256.63 149.168 248.257 159.922C239.883 170.676 224.937 179.03 224.937 179.03C224.937 179.03 202.806 233.378 239.289 218.443Z" fill="#F7C19B"/>
<path opacity="0.19" d="M250.702 162.401C246.789 168.188 241.63 173.364 236.302 177.85C232.75 180.836 227.639 184.784 222.521 185.812C223.83 181.751 224.939 179.03 224.939 179.03C224.939 179.03 239.886 170.668 248.259 159.922C254.174 152.329 262.475 139.962 271.057 137.362C261.993 141.864 255.395 155.459 250.702 162.401Z" fill="white"/>
<g opacity="0.57">
<path d="M287.403 186.012L301.136 148.446C301.209 148.253 301.417 148.157 301.61 148.229C301.803 148.301 301.9 148.51 301.827 148.702L288.07 186.325L288.014 186.43C287.917 186.55 285.563 189.471 283.16 191.269C283.096 191.317 283.015 191.341 282.943 191.341C282.831 191.341 282.718 191.293 282.646 191.197C282.525 191.036 282.557 190.804 282.718 190.683C284.896 189.054 287.098 186.39 287.403 186.012Z" fill="black"/>
<path d="M248.518 200.988L252.11 192.031L252.19 191.911C252.512 191.59 284.478 159.488 283.723 145.131C283.618 143.156 282.879 141.591 281.521 140.5L281.433 140.404C281.425 140.388 280.814 139.392 279.609 138.397L279.584 138.502L279.118 138.1C279.102 138.092 278.966 137.972 278.733 137.755C277.712 137.097 276.402 136.543 274.795 136.423C269.773 136.038 263.955 139.802 257.51 147.61C257.381 147.771 257.148 147.787 256.996 147.659C256.835 147.53 256.819 147.297 256.947 147.145C259.205 144.408 261.391 142.169 263.513 140.404C263.505 140.388 263.489 140.38 263.481 140.364L258.699 130.211C258.611 130.027 258.691 129.81 258.876 129.722C259.061 129.634 259.278 129.714 259.366 129.898L264.091 139.922C267.949 136.848 271.557 135.428 274.875 135.685C275.655 135.749 276.362 135.901 277.005 136.11C273.292 132.458 265.843 124.265 264.059 115.798C264.019 115.597 264.148 115.404 264.34 115.364C264.533 115.324 264.734 115.453 264.774 115.645C266.848 125.476 276.796 134.995 279.118 137.105C279.126 137.113 279.134 137.121 279.142 137.121L284.382 113.848C284.43 113.647 284.623 113.527 284.824 113.567C285.025 113.615 285.145 113.807 285.105 114.008L279.793 137.579C281.127 138.598 281.867 139.689 282.035 139.962C283.53 141.19 284.342 142.916 284.462 145.09C284.784 151.278 279.536 161.133 268.849 174.383C261.263 183.797 253.484 191.654 252.769 192.384L249.209 201.276C249.153 201.421 249.016 201.509 248.863 201.509C248.815 201.509 248.775 201.501 248.727 201.485C248.534 201.389 248.445 201.18 248.518 200.988Z" fill="black"/>
</g>
<path d="M273.01 137.111C273.016 137.105 273.021 137.098 273.027 137.092C273.109 137.081 273.22 137.067 273.356 137.051C273.679 137.016 274.14 136.976 274.691 136.96C275.797 136.929 277.239 136.996 278.627 137.377C280.015 137.759 281.311 138.443 282.184 139.618C283.042 140.771 283.542 142.465 283.234 144.975C283.221 145.001 283.204 145.033 283.184 145.071C283.126 145.184 283.038 145.35 282.924 145.561C282.695 145.981 282.358 146.577 281.93 147.276C281.072 148.677 279.853 150.48 278.4 152.112C276.941 153.751 275.279 155.18 273.545 155.88C271.84 156.568 270.066 156.558 268.278 155.322C266.5 154.092 265.883 152.403 265.962 150.499C266.041 148.565 266.842 146.422 267.912 144.396C268.977 142.377 270.285 140.518 271.331 139.159C271.853 138.481 272.308 137.93 272.631 137.549C272.793 137.358 272.922 137.211 273.01 137.111Z" fill="#BFB2FF" stroke="#545454"/>
<path opacity="0.34" d="M275.699 140.533C271.882 143.775 267.912 149.056 266.53 154.312C262.143 148.269 272.782 136.624 272.782 136.624C272.782 136.624 278.078 135.717 281.332 138.085C279.243 137.876 277.242 139.216 275.699 140.533Z" fill="white"/>
<path d="M303.57 81.6063C303.811 84.3871 303.82 88.2574 303.417 93.628C303.213 93.5757 302.957 93.4944 302.672 93.3687C301.943 93.0472 301.016 92.434 300.254 91.2593C298.743 88.9284 297.8 84.2438 300.683 74.8965C300.772 74.8786 300.888 74.8687 301.02 74.8894C301.307 74.9344 301.806 75.1454 302.311 76.0879C302.825 77.047 303.321 78.7242 303.57 81.6063Z" fill="#BFB2FF" stroke="#545454"/>
<path opacity="0.34" d="M300.29 74.5073C300.29 74.5073 300.587 74.3468 301.013 74.3869C299.904 80.5585 299.607 86.7702 301.037 92.9016C298.795 90.9755 296.617 86.2244 300.29 74.5073Z" fill="white"/>
<path d="M264.847 91.5754C264.726 91.6514 264.578 91.7339 264.404 91.8129C263.834 92.0731 262.986 92.2983 261.89 92.1307C259.722 91.7989 256.422 89.8958 252.35 83.2057C252.38 83.1636 252.419 83.1185 252.471 83.0759C252.622 82.9517 252.983 82.765 253.8 82.9601C254.636 83.1597 255.901 83.7507 257.769 85.1403C259.554 86.468 261.865 88.5057 264.847 91.5754Z" fill="#BFB2FF" stroke="#545454"/>
<path d="M256.975 110.928C256.877 110.987 256.762 111.05 256.63 111.11C256.12 111.342 255.362 111.544 254.38 111.393C252.439 111.096 249.464 109.39 245.78 103.355C245.802 103.327 245.829 103.299 245.862 103.272C245.985 103.17 246.297 103.002 247.028 103.177C247.777 103.356 248.918 103.887 250.608 105.145C252.215 106.34 254.294 108.172 256.975 110.928Z" fill="#BFB2FF" stroke="#545454"/>
</g>
<path opacity="0.9" d="M76 163.438L153.97 1L232.46 162.918L179.7 190.467L152.93 209.44L129.539 191.767L76 163.438Z" fill="url(#paint0_linear_338_285)" stroke="black" stroke-width="0.365131"/>
<path opacity="0.5" d="M181.26 189.428L197.634 172.794L177.101 165.257L152.931 209.18L181.26 189.428Z" fill="url(#paint1_linear_338_285)" stroke="black" stroke-width="0.365131"/>
<path opacity="0.8" d="M197.374 173.054L231.73 162.51L152.931 144.205L177.361 165.517L197.374 173.054Z" fill="url(#paint2_linear_338_285)" stroke="black" stroke-width="0.365131"/>
<path d="M232.2 162.658L178.401 121.334L152.931 144.205L232.2 162.658Z" fill="url(#paint3_linear_338_285)" stroke="black" stroke-width="0.365131"/>
<path d="M177.101 165.257L152.931 144.205V209.18L177.101 165.257Z" fill="url(#paint4_linear_338_285)" stroke="black" stroke-width="0.365131"/>
<path d="M152.931 209.18V143.945L129.02 165.257L152.931 209.18Z" fill="url(#paint5_linear_338_285)" stroke="black" stroke-width="0.365131"/>
<path d="M129.019 165.257L152.67 144.205L76.7793 162.658L129.019 165.257Z" fill="url(#paint6_linear_338_285)" stroke="black" stroke-width="0.365131"/>
<path d="M152.931 144.205L178.401 121.334L153.71 1.77979L152.931 144.205Z" fill="url(#paint7_linear_338_285)" stroke="black" stroke-width="0.365131"/>
<path d="M152.67 144.205L131.099 121.334L153.71 2.03955L152.67 144.205Z" stroke="black" stroke-width="0.365131"/>
<path d="M76.5195 162.658L130.839 121.334L152.93 144.205L76.5195 162.658Z" fill="url(#paint8_linear_338_285)" stroke="black" stroke-width="0.365131"/>
<defs>
<linearGradient id="paint0_linear_338_285" x1="154.23" y1="1" x2="154.23" y2="209.44" gradientUnits="userSpaceOnUse">
<stop stop-color="#938FFF"/>
<stop offset="0.465" stop-color="#B7A9FF"/>
<stop offset="1" stop-color="#CB99FF"/>
</linearGradient>
<linearGradient id="paint1_linear_338_285" x1="175.282" y1="165.257" x2="175.282" y2="209.18" gradientUnits="userSpaceOnUse">
<stop stop-color="#91CAE2"/>
<stop offset="1" stop-color="#DEF5FF"/>
</linearGradient>
<linearGradient id="paint2_linear_338_285" x1="152.931" y1="158.629" x2="231.73" y2="158.629" gradientUnits="userSpaceOnUse">
<stop stop-color="white"/>
<stop offset="1" stop-color="#FCF4A7"/>
</linearGradient>
<linearGradient id="paint3_linear_338_285" x1="232.2" y1="141.996" x2="152.931" y2="141.996" gradientUnits="userSpaceOnUse">
<stop stop-color="#F7B7FB"/>
<stop offset="1" stop-color="#CD8DFE"/>
</linearGradient>
<linearGradient id="paint4_linear_338_285" x1="165.016" y1="144.205" x2="165.016" y2="209.18" gradientUnits="userSpaceOnUse">
<stop stop-color="#DAE1FF"/>
<stop offset="1" stop-color="#889FFF"/>
</linearGradient>
<linearGradient id="paint5_linear_338_285" x1="140.975" y1="143.945" x2="140.975" y2="209.18" gradientUnits="userSpaceOnUse">
<stop stop-color="#6482FF"/>
<stop offset="1" stop-color="#D4BEE4"/>
</linearGradient>
<linearGradient id="paint6_linear_338_285" x1="76.7793" y1="154.731" x2="152.67" y2="154.731" gradientUnits="userSpaceOnUse">
<stop stop-color="#D292FE"/>
<stop offset="1" stop-color="#EACCFF"/>
</linearGradient>
<linearGradient id="paint7_linear_338_285" x1="165.666" y1="1.77979" x2="165.666" y2="144.205" gradientUnits="userSpaceOnUse">
<stop stop-color="#FFFCDE"/>
<stop offset="1" stop-color="#8BA2FF"/>
</linearGradient>
<linearGradient id="paint8_linear_338_285" x1="152.93" y1="141.996" x2="76.5195" y2="141.996" gradientUnits="userSpaceOnUse">
<stop stop-color="#C787FF"/>
<stop offset="1" stop-color="#FFBFFA"/>
</linearGradient>
<clipPath id="clip0_338_285">
<rect width="305.01" height="260.529" fill="white" transform="translate(0.326172 74.3785)"/>
</clipPath>
</defs>
</svg>
