<svg width="1420" height="565" viewBox="0 0 1420 565" fill="none" xmlns="http://www.w3.org/2000/svg">
<rect y="96" width="1420" height="397" rx="37" fill="#3B37FE"/>
<mask id="mask0_661_65" style="mask-type:alpha" maskUnits="userSpaceOnUse" x="0" y="96" width="1420" height="397">
<rect y="96" width="1420" height="397" rx="36" fill="#3B37FE"/>
</mask>
<g mask="url(#mask0_661_65)">
</g>
<g clip-path="url(#clip0_661_65)">
<mask id="mask1_661_65" style="mask-type:luminance" maskUnits="userSpaceOnUse" x="50" y="0" width="1370" height="565">
<path d="M1388.29 0H81.8389C64.3259 0 50.1289 16.3834 50.1289 36.5933V528.407C50.1289 548.617 64.3259 565 81.8389 565H1388.29C1405.8 565 1420 548.617 1420 528.407V36.5933C1420 16.3834 1405.8 0 1388.29 0Z" fill="white"/>
</mask>
<g mask="url(#mask1_661_65)">
<path opacity="0.2" d="M400.353 37.2943C327.69 74.245 247.734 107.419 179.98 154.996C170.475 161.67 155.994 173.278 162.172 188.24C165.318 195.859 178.164 195.585 183.876 195.727C204.195 196.236 219.136 187.754 232.29 170.27C265.649 125.932 274.612 68.5129 269.576 13.3346C269.065 7.72582 269.608 1.34597 262.898 5.99697C244.286 18.8999 227.09 36.8555 211.144 53.1674C180.403 84.6144 166.237 124.515 145.199 163.382C117.805 213.99 87.198 259.622 76.4714 318.221C71.7133 344.215 66.9498 372 65.3415 398.486C64.4984 412.371 64.7849 426.363 64.7849 440.265C64.7849 442.66 60.9512 461.044 71.1846 451.347C81.9409 441.154 121.326 388.503 123.635 385.457C152.566 347.286 181.873 309.269 204.744 266.408C216.221 244.9 224.501 221.72 235.352 199.921C241.051 188.468 234.319 225.881 233.682 238.854C232.029 272.576 231.777 306.911 241.334 339.486C251.02 372.499 279.822 406.033 309.088 420.798C336.633 434.696 324.857 382.719 323.557 372.13C322.744 365.511 308.193 274.19 306.862 266.708C305.094 256.766 299.734 229.137 296.289 238.556C276.467 292.734 283.931 363.497 247.316 410.465C238.568 421.689 163.917 485.028 176.363 500.315C188.097 514.727 254.514 505.801 264.567 505.406C305.05 503.816 343.954 499.641 383.381 489.533C407.147 483.439 445.312 479.039 460.872 455.09C472.226 437.616 477.682 400.86 481.324 382.613C485.893 359.716 490.37 336.293 493.984 313.13C499.508 277.725 465.813 333.024 461.569 340.234C455.224 351.008 433.758 384.854 454.751 390.25C500.112 401.91 553.156 397.157 598.745 392.496C652.425 387.009 701.882 371.874 753.869 358.204C790.993 348.441 831.516 339.7 870.038 344.277C907.795 348.764 939.295 371.212 967.564 396.989C988.724 416.282 1030.26 453.292 1021.13 490.432C1012.22 526.662 962.892 537.966 935.426 540.597C876.475 546.241 818.094 526.205 760.686 515.887C680.723 501.516 600.71 494.965 520 488.185C408.198 478.792 552.452 473.584 559.234 473.06C674.272 464.177 789.56 457.962 904.818 453.592C948.463 451.938 991.675 451.952 1035.04 446.105C1085.37 439.321 1135.12 429.713 1185.85 426.638C1211.53 425.082 1240.13 429.381 1263.76 415.557C1305.69 391.024 1342.64 345.48 1373.39 307.439C1394.96 280.757 1418.25 251.24 1419.44 214.147C1420.38 184.967 1411.82 153.137 1403.71 125.645C1395.46 97.587 1388.21 91.0715 1380.91 126.095C1369.91 178.755 1366.52 234.514 1364.2 288.271C1362.45 329.008 1362.67 369.479 1370.19 409.568C1372.96 424.311 1395.22 471.775 1382.01 485.339C1356.31 511.744 1301.27 519.7 1269.05 523.674C1225.5 529.045 1182.94 524.995 1140.36 515.289C1117.68 510.122 1116.34 509.123 1130.2 489.533C1170.68 432.31 1201.93 374.09 1229.67 308.188C1259.71 236.836 1280.32 163.509 1305.22 90.3049C1317.35 54.6587 1323.7 58.3248 1351.96 76.2287C1395.76 103.97 1439.51 133.674 1488.86 149.006C1527.31 160.946 1549.4 149.368 1582.36 131.635" stroke="white" stroke-linecap="round"/>
<path opacity="0.2" d="M225.003 403.453C221.078 350.395 180.625 311.055 134.647 315.584C88.6696 320.113 54.5792 366.796 58.5039 419.854C62.4287 472.912 102.882 512.253 148.86 507.724C194.837 503.194 228.928 456.511 225.003 403.453Z" fill="url(#paint0_linear_661_65)"/>
<path opacity="0.2" d="M1459.05 447.893C1452.89 364.632 1389.41 302.898 1317.26 310.006C1245.11 317.113 1191.61 390.37 1197.77 473.631C1203.93 556.891 1267.41 618.625 1339.56 611.518C1411.71 604.41 1465.21 531.153 1459.05 447.893Z" fill="url(#paint1_linear_661_65)"/>
<path opacity="0.2" d="M236.525 339.799C234.662 314.62 215.465 295.951 193.645 298.1C171.826 300.249 155.648 322.404 157.511 347.583C159.373 372.762 178.571 391.431 200.39 389.282C222.209 387.133 238.387 364.978 236.525 339.799Z" fill="url(#paint2_linear_661_65)"/>
<path opacity="0.2" d="M1182.65 483.291C1180.18 450.003 1154.8 425.321 1125.96 428.163C1097.11 431.004 1075.72 460.293 1078.19 493.582C1080.65 526.87 1106.03 551.552 1134.87 548.71C1163.72 545.869 1185.11 516.58 1182.65 483.291Z" fill="url(#paint3_linear_661_65)"/>
</g>
</g>
<defs>
<linearGradient id="paint0_linear_661_65" x1="142.765" y1="489.204" x2="235.372" y2="416.694" gradientUnits="userSpaceOnUse">
<stop offset="0.128125" stop-color="#ECF0FA"/>
<stop offset="1" stop-color="white" stop-opacity="0"/>
</linearGradient>
<linearGradient id="paint1_linear_661_65" x1="1329.99" y1="582.462" x2="1475.32" y2="468.672" gradientUnits="userSpaceOnUse">
<stop offset="0.128125" stop-color="#ECF0FA"/>
<stop offset="1" stop-color="white" stop-opacity="0"/>
</linearGradient>
<linearGradient id="paint2_linear_661_65" x1="197.498" y1="380.493" x2="241.446" y2="346.083" gradientUnits="userSpaceOnUse">
<stop offset="0.128125" stop-color="#ECF0FA"/>
<stop offset="1" stop-color="white" stop-opacity="0"/>
</linearGradient>
<linearGradient id="paint3_linear_661_65" x1="1131.05" y1="537.091" x2="1189.15" y2="491.599" gradientUnits="userSpaceOnUse">
<stop offset="0.128125" stop-color="#ECF0FA"/>
<stop offset="1" stop-color="white" stop-opacity="0"/>
</linearGradient>
<clipPath id="clip0_661_65">
<rect width="1369.87" height="565" fill="white" transform="translate(50.1289)"/>
</clipPath>
</defs>
</svg>
