<svg width="422" height="422" viewBox="0 0 422 422" fill="none" xmlns="http://www.w3.org/2000/svg">
<g clip-path="url(#clip0_642_30)">
<path d="M311.27 186.221L86.5816 309.348L51.5423 289.642L276.247 166.515L311.27 186.221Z" fill="#9290FF"/>
<path d="M291.305 317.4L292.111 316.009L264.517 300.952C261.629 299.375 258.374 298.546 255.064 298.546C251.753 298.546 248.498 299.375 245.611 300.952L227.125 311.197C225.467 312.116 223.596 312.609 221.689 312.632C219.781 312.655 217.899 312.207 216.218 311.328L137.233 269.724L136.46 271.115L215.445 312.719C217.366 313.734 219.521 314.255 221.706 314.232C223.891 314.209 226.034 313.643 227.932 312.588L246.417 302.343C249.062 300.902 252.042 300.146 255.072 300.146C258.103 300.146 261.082 300.902 263.727 302.343L291.305 317.4Z" fill="#7876FE"/>
<path d="M0.0336685 393.195V393.096V393.015V392.916V392.802V392.72V392.622V392.54V392.442V392.36V392.262V392.18V392.082V392V391.902V391.82V391.722V391.64V391.542H6.62138C7.46789 388.908 9.16557 386.612 11.4613 384.995L8.10026 382.982H8.20109H8.28512H8.38595H8.46996H8.57081H8.65482H8.73885H8.82288H8.90691H9.00774H9.09177H9.1926H9.27663H9.37746H9.46149H9.56232H9.64635H9.73035L20.2842 377.875L24.5527 380.412C29.6133 378.698 34.9107 377.738 40.2658 377.564V375.257V373.162V373.08V372.998V372.916V372.834V372.752V372.671H53.626V372.752V372.834V372.916V372.998V373.08V373.162V373.244V375.584C58.8272 376.21 63.916 377.526 68.7509 379.496L74.2294 376.648L84.2118 382.262H84.3127H84.3967H84.4975H84.5815H84.6656H84.7664H84.8672H84.9513H85.0521H85.1361H85.237H85.321H85.4218H85.5226H85.6067L80.7163 384.651C82.6121 386.519 84.0186 388.804 84.8168 391.312H90.5811V391.411V391.492V391.591V391.689V391.787V391.869V391.967V392.065V392.147V392.245V394.438V394.537V394.635V394.733V394.815V394.913V402.327H84.2118C83.2324 404.982 81.4807 407.303 79.1702 409.005L81.4557 410.641H81.5566H81.6574H81.7414H81.8423H81.9431H82.0439H82.1448H82.2288H82.3296H82.4136H82.5145H82.6153H82.5313H82.6321H82.7329H82.8338H82.9346H83.0355H83.1363H83.2203L72.4985 415.846L68.2467 413.244C63.1282 415.114 57.7291 416.154 52.2648 416.321L52.1135 419.725H37.1568L37.2912 415.993C31.9589 415.389 26.732 414.101 21.7462 412.164L17.0743 414.553L6.9911 408.858H7.10872H7.22637H7.12554H7.25999H7.15913H7.27679H7.19275H7.3104H7.20955H7.3272H7.24316H7.36082H7.25999H7.39441H7.29358H7.41123H7.52885H7.42802H7.56247H7.46165H7.57927H7.49526H7.61288H7.51206H7.64651H7.54568H7.6633H7.57927H7.69692H7.59609H7.73054H7.62968H7.74733H7.86498H7.76413H7.88178H7.79774H7.9154H7.81454L11.0244 407.565C8.87945 405.614 7.31228 403.138 6.48693 400.396H0.235329V393.096L0.0336685 393.195ZM59.3735 391.558C50.2634 388.186 40.2001 388.186 31.09 391.558C28.7373 392.33 26.7694 393.937 25.5778 396.059C25.7795 398.105 27.6785 400.118 31.3085 401.673C31.5881 401.801 31.8741 401.916 32.1656 402.016C40.6164 404.848 49.7967 404.848 58.2475 402.016C58.55 401.902 58.8525 401.787 59.155 401.64C62.785 400.085 64.684 398.072 64.8856 396.026C63.6757 393.923 61.7138 392.327 59.3735 391.542V391.558Z" fill="url(#paint0_linear_642_30)"/>
<path d="M14.9903 383.685L10.5537 381.001L20.9226 375.993L25.0904 378.497C30.0627 376.804 35.2699 375.855 40.5345 375.682L40.6689 371.869H53.962L53.8443 375.682C59.0426 376.295 64.1309 377.595 68.9692 379.545L74.3301 376.762L84.0436 382.262L78.397 385.028C81.5732 387.515 83.7411 387.483 84.2789 389.447L89.5054 392.9V400.052H83.4722C82.347 403.059 80.2469 405.627 77.4895 407.368L81.4052 410.216L71.0531 415.241L66.9358 412.736C61.9881 414.54 56.7716 415.546 51.4916 415.715L51.3404 418.988H38.0137L38.1313 415.388C32.9809 414.808 27.9335 413.559 23.1241 411.673L18.6203 413.997L8.90676 408.497L13.9484 406.452C11.185 404.378 9.15276 401.518 8.13371 398.268H2.10058V391.165L7.52871 387.122C8.7555 382.818 13.3602 384.324 14.9903 383.685ZM32.115 401.312L32.9721 401.64C41.2587 404.422 50.2632 404.422 58.5499 401.64L59.4405 401.28C66.9862 398.006 66.9862 392.769 59.4405 389.512C50.6338 386.277 40.9176 386.283 32.115 389.528C24.5526 392.802 24.5526 398.055 32.115 401.312Z" fill="#7876FE"/>
<path d="M51.8616 416.157C56.9778 415.937 62.0285 414.948 66.8352 413.227L70.9525 415.715L82.2121 410.265L78.1956 407.352C80.7096 405.657 82.6374 403.261 83.7246 400.478H89.9258V392.622L84.6153 389.136C84.212 387.908 83.2541 387.401 81.9264 386.697C80.9831 386.219 80.0785 385.672 79.2208 385.06L84.9682 382.245L74.28 376.206L68.8855 379.005C64.2265 377.146 59.3405 375.88 54.3488 375.24L54.4832 371.378H40.2155L40.081 375.207C34.9912 375.407 29.9583 376.328 25.1411 377.941L20.9397 375.437L9.61287 380.919L13.6966 383.375H13.0916C11.1253 383.375 8.1508 383.489 7.09206 386.779L1.59669 390.87V398.596H7.76427C8.76647 401.568 10.5997 404.209 13.058 406.222L7.79788 408.317L18.5365 414.406L23.074 412.082C27.7365 413.88 32.6161 415.09 37.5938 415.682L37.4762 419.332H51.7272L51.8616 416.157ZM38.5517 414.979H38.1316C33.0152 414.42 28.0005 413.187 23.2252 411.313L23.0236 411.231L18.5533 413.522L9.86494 408.612L14.7889 406.632L14.2176 406.157C11.5281 404.128 9.54961 401.338 8.55412 398.17V397.843H2.60503V391.443L7.96595 387.45V387.303C8.78941 384.504 11.1086 384.455 13.1588 384.406C13.8461 384.439 14.5342 384.356 15.1922 384.16L16.0325 383.833L11.5287 381.116L20.8893 376.435L25.057 378.923L25.2755 378.841C30.1886 377.171 35.3338 376.239 40.5348 376.075H40.9717L41.1062 372.278H53.5253L53.3909 376.026H53.811C58.9412 376.645 63.9613 377.938 68.7342 379.872L68.9359 379.954L74.2632 377.172L83.0356 382.082L77.4898 384.946L78.0444 385.371C79.0911 386.19 80.2167 386.908 81.4055 387.515C82.6659 388.186 83.4389 388.595 83.691 389.561V389.725L88.8671 393.129V399.676H82.9684L82.8507 399.954C81.7674 402.889 79.7169 405.393 77.0193 407.074L76.4983 407.434L80.3299 410.216L70.8685 414.782L66.768 412.295L66.5495 412.393C61.663 414.18 56.5074 415.169 51.2902 415.322H50.8533L50.702 418.596H38.2828L38.5517 414.979ZM58.7182 402.082L59.6593 401.722C63.4741 400.085 65.5748 397.843 65.5748 395.42C65.5748 392.998 63.4741 390.789 59.6593 389.136C50.7308 385.846 40.8757 385.846 31.9472 389.136C28.1324 390.772 26.0149 393.015 26.0149 395.42C26.0149 397.826 28.1324 400.069 31.9472 401.722L32.8211 402.065C41.2096 404.891 50.3297 404.891 58.7182 402.065V402.082ZM59.2728 389.97C62.7515 391.46 64.6505 393.391 64.6505 395.42C64.6505 397.45 62.7515 399.398 59.2728 400.903C58.9871 401.018 58.7014 401.149 58.3989 401.247C50.2323 403.99 41.3574 403.99 33.1908 401.247C32.9109 401.158 32.636 401.054 32.3673 400.936C28.9054 399.43 26.9896 397.499 26.9896 395.453C26.9896 393.407 28.9054 391.492 32.3673 390.003C36.6426 388.349 41.2121 387.537 45.8116 387.613C50.4041 387.519 54.9695 388.32 59.2392 389.97H59.2728Z" fill="#7876FE"/>
<path d="M83.9937 371.672V379.561L82.061 381.018L74.6499 376.337L76.1624 372.032L83.9937 371.672Z" fill="#7876FE"/>
<path d="M84.4639 379.708V371.198L75.8259 371.607L74.1454 376.517L82.1279 381.558L84.4639 379.708ZM76.4981 372.409L83.5396 372.065V379.266L82.0439 380.412L75.2041 376.091L76.4981 372.409Z" fill="#7876FE"/>
<path d="M10.5879 370.412V378.301L12.5205 379.757L19.9316 375.093L18.436 370.788L10.5879 370.412Z" fill="#7876FE"/>
<path d="M14.9903 373.162L10.5537 370.494L20.9226 365.469L25.0904 367.973C30.0627 366.28 35.2699 365.331 40.5345 365.158L40.6689 361.345H53.962L53.8443 365.158C59.0449 365.769 64.1344 367.074 68.9692 369.037L74.3301 366.238L84.0436 371.738L78.397 374.504C80.9777 376.523 82.8797 379.247 83.8588 382.327H89.5054V389.528H83.4722C82.3426 392.537 80.2363 395.106 77.4727 396.844L81.3884 399.692L71.0363 404.717L66.919 402.212C61.9713 404.016 56.7548 405.022 51.4748 405.191L51.3235 408.465H37.9969L38.1145 404.864C32.9641 404.284 27.9167 403.035 23.1073 401.149L18.6035 403.473L8.88995 397.973L13.9316 395.928C11.1682 393.854 9.13598 390.994 8.11691 387.744H2.08379V380.674H8.55384C9.03776 379.058 9.85926 377.556 10.9668 376.263C12.0744 374.971 13.4442 373.915 14.9903 373.162ZM32.115 390.707L32.9721 391.034C41.2587 393.816 50.2632 393.816 58.5499 391.034L59.4405 390.674C66.9862 387.401 66.9862 382.163 59.4405 378.923C50.639 375.666 40.9166 375.666 32.115 378.923C24.5526 382.196 24.5526 387.466 32.115 390.707Z" fill="white"/>
<path d="M51.7773 405.47C56.9454 405.271 62.0494 404.283 66.9021 402.54L71.0194 405.061L82.1278 399.676L78.1281 396.779C80.6868 395.075 82.6461 392.647 83.7411 389.823H89.9087V381.918H84.1613C83.206 379.054 81.4622 376.501 79.1196 374.537L84.8839 371.721L74.3637 365.764L68.986 368.579C64.298 366.696 59.377 365.42 54.3485 364.782L54.4829 360.936H40.3832L40.2488 364.766C35.1248 364.955 30.0572 365.876 25.208 367.499L21.0234 364.995L9.86464 370.396L14.2845 373.064C11.4624 374.658 9.344 377.211 8.33537 380.232H1.76446V388.023H7.89841C8.90672 391.045 10.7779 393.724 13.293 395.748L8.06647 397.843L18.6203 403.817L23.1577 401.493C27.8404 403.321 32.751 404.537 37.7616 405.11L37.6439 408.759H51.7269L51.7773 405.47ZM38.4674 404.455H38.1145C32.9927 403.896 27.9724 402.663 23.1913 400.789H23.0233L18.553 403.08L9.67978 398.056L14.6374 396.075L14.1668 395.682C11.4616 393.648 9.47114 390.846 8.46979 387.663V387.384H2.5039V381.067H8.88992L8.97395 380.805C9.4463 379.247 10.2418 377.799 11.3113 376.552C12.3808 375.305 13.7016 374.285 15.1919 373.555L15.881 373.276L11.3939 370.576L20.973 365.944L25.0567 368.252L25.2416 368.17C30.1667 366.502 35.3227 365.569 40.5345 365.404H40.9042L41.0218 361.705H53.6091L53.4746 365.469H53.8275C58.9635 366.077 63.9901 367.365 68.7675 369.299H68.9356L74.2629 366.615L83.2033 371.672L77.6576 374.389L78.1113 374.749C80.6276 376.718 82.4826 379.374 83.4386 382.376L83.5226 382.638H89.0852V389.07H83.1529L83.0689 389.299C81.9688 392.244 79.9088 394.756 77.2038 396.452L76.7837 396.746L80.6153 399.545L71.0026 404.193L66.9021 401.689L66.7173 401.771C61.8208 403.566 56.6537 404.561 51.4244 404.717H51.0547L50.9202 407.99H38.333L38.4674 404.455ZM58.6339 391.362L59.5582 390.985C63.3394 389.348 65.4233 387.155 65.4233 384.782C65.4233 382.409 63.3394 380.199 59.5582 378.563C50.6528 375.273 40.8187 375.273 31.9133 378.563C28.1153 380.199 26.0314 382.393 26.0314 384.782C26.0314 387.172 28.1153 389.365 31.9133 390.985C32.199 391.116 32.5015 391.231 32.7872 391.329C36.9367 392.802 41.328 393.523 45.7441 393.456C50.143 393.534 54.5204 392.841 58.6675 391.411L58.6339 391.362ZM59.2389 379.234C62.7512 380.74 64.667 382.704 64.667 384.782C64.667 386.861 62.7512 388.808 59.2389 390.314L58.365 390.674C50.1604 393.431 41.2438 393.431 33.0393 390.674L32.2158 390.347C28.7203 388.841 26.7877 386.877 26.7877 384.815C26.7877 382.753 28.7203 380.772 32.2158 379.267C40.9223 376.058 50.5324 376.058 59.2389 379.267V379.234Z" fill="#7876FE"/>
<path d="M51.2734 408.383V418.989H37.9468V408.383H51.2734Z" fill="#EBE8FF"/>
<path d="M51.6602 408.006H37.5772V419.349H51.6602V408.006ZM38.3335 408.743H50.9039V418.563H38.3335V408.743Z" fill="#7876FE"/>
<path d="M2.06743 387.614V398.219H8.10059V387.63L2.06743 387.614Z" fill="#EBE8FF"/>
<path d="M8.48682 387.27H1.68063V398.612H8.48682V387.27ZM2.43687 387.974H7.73058V397.794H2.43687V387.974Z" fill="#7876FE"/>
<path d="M18.5532 403.391V414.079C18.5532 414.079 8.31874 408.776 8.83971 408.579C9.36068 408.383 8.83971 397.974 8.83971 397.974L18.5532 403.473V403.391Z" fill="#EBE8FF"/>
<path d="M18.9229 403.178L8.41949 397.221V397.908C8.66891 401.334 8.70261 404.772 8.52034 408.203H8.41949V408.432C8.41949 408.71 8.41949 409.087 18.3515 414.242L18.9061 414.537L18.9229 403.178ZM9.24296 398.546L18.1666 403.604V413.424C14.8055 411.787 10.1168 409.152 9.24296 408.514C9.44462 407.695 9.56226 405.486 9.24296 398.546Z" fill="#7876FE"/>
<path d="M70.9858 404.635V415.241L81.3379 410.216V399.61L70.9858 404.635Z" fill="#EBE8FF"/>
<path d="M81.7246 410.445V398.988L70.5994 404.373V415.83L81.7246 410.445ZM80.9684 400.216V410.036L71.3557 414.7V404.88L80.9684 400.216Z" fill="#7876FE"/>
<path d="M89.4549 389.528C89.4549 389.528 89.6398 400.134 89.4549 400.134H83.4218V389.528H89.4549Z" fill="#EBE8FF"/>
<path d="M89.6225 400.429L89.7402 400.314C89.8746 400.167 90.0091 400.036 89.841 389.446V389.086H83.1189V400.429H89.7066H89.6225ZM83.7911 389.823H89.0848C89.0848 393.293 89.1856 398.432 89.0848 399.643H83.7407L83.7911 389.823Z" fill="#7876FE"/>
<path d="M136.813 386.255V386.173V386.091V386.01V385.928V385.846H142.224C142.901 383.652 144.301 381.737 146.207 380.396L143.468 378.759H143.552H143.636H143.72H143.804H143.888H143.972L153.114 372.049L156.609 374.144C160.764 372.726 165.116 371.937 169.516 371.803V369.888H180.843V371.82C185.127 372.357 189.316 373.458 193.296 375.093L197.783 372.752L205.933 377.368H206.017H206.101H206.185H206.269L202.253 379.332C203.813 380.86 204.967 382.737 205.614 384.798H210.353V386.255V386.337V386.419V386.501V386.582V392.671H205.227C204.857 395.189 203.674 397.528 201.85 399.348L203.732 400.723H203.816H203.9H203.984H204.068H204.152H204.236H204.32H204.404H204.488L195.665 404.979L192.17 402.851C187.965 404.385 183.532 405.242 179.045 405.388L178.91 408.17H167.583L167.684 405.11C163.302 404.622 159.006 403.565 154.912 401.967L151.08 403.931L142.829 399.25H142.93H142.846H142.947H142.863H142.963H143.064H142.98H143.081H143.182H143.283H143.384H143.3H143.4H143.501H143.602H143.518H143.619H143.72H143.636H143.736H143.837H143.753H143.854H143.955H143.871H143.972H144.073H144.173L146.812 398.203C145.046 396.596 143.757 394.555 143.081 392.294H137.939V386.255H136.813ZM185.548 384.897C178.061 382.131 169.794 382.131 162.306 384.897C160.377 385.535 158.764 386.855 157.786 388.595C157.954 390.232 159.466 391.869 162.491 393.211C162.719 393.326 162.955 393.424 163.197 393.505C170.133 395.837 177.671 395.837 184.607 393.505C184.865 393.415 185.117 393.311 185.363 393.195C188.355 391.918 189.901 390.265 190.069 388.579C189.08 386.864 187.477 385.564 185.565 384.929L185.548 384.897Z" fill="url(#paint1_linear_642_30)"/>
<path d="M149.098 378.481L145.451 376.288L153.971 372.163L157.332 374.209C161.419 372.825 165.696 372.047 170.02 371.901L170.121 368.775H181.078L180.977 371.901C185.228 372.441 189.384 373.542 193.329 375.175L197.732 372.867L205.732 377.401L201.094 379.659C203.698 381.705 205.48 381.672 205.917 383.293L210.252 386.042V391.934H205.211C204.293 394.409 202.562 396.521 200.287 397.941L203.53 400.281L195.01 404.406L191.649 402.344C187.586 403.834 183.3 404.664 178.961 404.799L178.843 407.483H167.886L167.987 404.52C163.754 404.048 159.605 403.024 155.652 401.476L151.955 403.375L143.972 398.857L148.157 397.221C145.887 395.506 144.214 393.151 143.367 390.478H138.325V384.618L142.779 381.345C143.972 377.777 147.753 379.005 149.098 378.481ZM163.197 392.965L163.886 393.244C170.698 395.527 178.098 395.527 184.91 393.244L185.649 392.949C191.834 390.281 191.834 385.944 185.649 383.293C178.419 380.608 170.428 380.608 163.197 383.293C156.963 385.96 156.963 390.298 163.197 392.965Z" fill="#7876FE"/>
<path d="M179.397 405.159C183.595 404.982 187.74 404.17 191.682 402.753L195.043 404.831L204.303 400.347L200.942 397.941C203.02 396.559 204.61 394.588 205.496 392.294H210.538V385.846L206.185 382.982C205.866 381.983 205.059 381.558 203.967 380.985C203.228 380.614 202.52 380.187 201.849 379.708L206.572 377.401L197.799 372.491L193.362 374.798C189.537 373.258 185.519 372.218 181.414 371.705L181.532 368.53H169.768L169.667 371.672C165.482 371.835 161.344 372.59 157.382 373.914L154.021 371.852L144.711 376.369L148.072 378.383H147.585C145.904 378.383 143.518 378.464 142.661 381.181L138.14 384.455V390.805H143.182C144.01 393.246 145.516 395.416 147.534 397.073L143.215 398.808L152.038 403.8L155.769 401.885C159.597 403.374 163.608 404.37 167.701 404.848L167.6 407.859H179.364L179.397 405.159ZM168.44 404.193H168.104C163.904 403.727 159.789 402.708 155.87 401.165H155.702L152.021 403.064L144.896 399.021L148.929 397.384L148.459 396.992C146.256 395.324 144.632 393.039 143.803 390.445V390.167H138.913V384.913L143.333 381.64V381.525C144.005 379.234 145.904 379.185 147.585 379.152C148.152 379.175 148.72 379.108 149.265 378.955L149.954 378.677L146.257 376.451L153.987 372.703L157.349 374.749H157.517C161.56 373.382 165.792 372.615 170.07 372.474H170.423L170.541 369.364H180.742L180.641 372.441H180.977C185.193 372.947 189.319 374.004 193.245 375.584H193.413L197.782 373.309L204.992 377.384L200.438 379.61L200.908 379.97C201.787 380.641 202.726 381.232 203.715 381.738C204.757 382.278 205.395 382.605 205.597 383.374V383.505L209.899 386.255V391.574H205.059L204.958 391.82C204.076 394.246 202.391 396.319 200.169 397.712L199.749 398.006L202.891 400.281L195.127 404.046L191.766 402H191.581C187.569 403.478 183.332 404.296 179.044 404.422H178.675L178.574 407.123H168.373L168.44 404.193ZM185.044 393.604L185.817 393.293C188.959 391.951 190.69 390.019 190.69 388.137C190.69 386.255 189.01 384.324 185.817 382.965C178.485 380.265 170.394 380.265 163.062 382.965C159.903 384.324 158.172 386.157 158.172 388.137C158.172 390.118 159.853 391.951 163.046 393.293C163.28 393.4 163.522 393.492 163.768 393.571C167.185 394.785 170.802 395.379 174.44 395.322C178.051 395.37 181.643 394.788 185.044 393.604ZM185.514 383.636C188.354 384.864 189.934 386.451 189.934 388.137C189.934 389.823 188.354 391.41 185.514 392.622L184.775 392.916C178.051 395.175 170.744 395.175 164.02 392.916C163.796 392.843 163.577 392.756 163.365 392.654C160.508 391.427 158.928 389.839 158.928 388.17C158.928 386.5 160.508 384.897 163.365 383.669C170.499 381.028 178.38 381.028 185.514 383.669V383.636Z" fill="#7876FE"/>
<path d="M205.799 368.612V375.093L204.202 376.288L198.119 372.442L199.362 368.906L205.799 368.612Z" fill="#7876FE"/>
<path d="M206.168 375.273V368.252L199.077 368.595L197.665 372.638L204.219 376.779L206.168 375.273ZM199.631 369.266L205.412 368.988V374.913L204.185 375.846L198.572 372.294L199.631 369.266Z" fill="#7876FE"/>
<path d="M145.485 367.581V374.062L147.081 375.257L153.165 371.41L151.921 367.875L145.485 367.581Z" fill="#7876FE"/>
<path d="M149.098 369.757L145.451 367.564L153.971 363.44L157.332 365.502C161.419 364.118 165.696 363.34 170.02 363.194L170.121 360.068H181.078L180.977 363.194C185.224 363.702 189.379 364.77 193.329 366.369L197.732 364.078L205.732 368.595L201.093 370.87C203.21 372.534 204.772 374.773 205.58 377.302H210.219V383.178H205.177C204.255 385.656 202.526 387.771 200.253 389.201L203.53 391.574L195.01 395.699L191.649 393.636C187.585 395.12 183.299 395.944 178.961 396.075L178.843 398.776H167.886L167.987 395.813C163.754 395.341 159.605 394.317 155.652 392.769L151.954 394.668L143.972 390.15L148.156 388.514C145.882 386.796 144.209 384.435 143.367 381.754H138.325V375.944H143.636C144.057 374.601 144.76 373.357 145.7 372.292C146.64 371.228 147.797 370.364 149.098 369.757ZM163.197 384.242L163.886 384.52C170.698 386.803 178.098 386.803 184.91 384.52C185.162 384.436 185.409 384.338 185.649 384.226C191.834 381.558 191.834 377.237 185.649 374.569C178.416 371.901 170.431 371.901 163.197 374.569C156.962 377.253 156.962 381.574 163.197 384.242Z" fill="#DFE1FF"/>
<path d="M179.398 396.452C183.594 396.259 187.736 395.447 191.682 394.046L195.128 396.075L204.387 391.607L201.026 389.201C203.097 387.812 204.685 385.843 205.58 383.555H210.622V377.008H205.9C205.101 374.698 203.686 372.636 201.799 371.034L206.555 368.71L197.783 363.8L193.447 365.96C189.617 364.435 185.601 363.396 181.498 362.867L181.616 359.692H169.852L169.751 362.834C165.566 363.005 161.428 363.765 157.467 365.093L154.106 363.031L144.795 367.532L148.442 369.725C146.163 371.03 144.453 373.103 143.636 375.551H138.208V382.098H143.249C144.082 384.537 145.587 386.706 147.602 388.366L143.283 390.085L152.106 395.093L155.837 393.178C159.668 394.658 163.678 395.653 167.768 396.141L167.668 399.136H179.431L179.398 396.452ZM168.441 395.486H168.104C163.905 395.029 159.789 394.016 155.87 392.474H155.702L152.022 394.357L144.896 390.314L148.929 388.677L148.459 388.285C146.254 386.619 144.629 384.334 143.804 381.738V381.46H138.913V376.386H144.14V376.124C144.527 374.857 145.174 373.679 146.04 372.661C146.906 371.643 147.975 370.805 149.182 370.199L149.871 369.937L146.173 367.695L153.904 363.964L157.265 366.009H157.433C161.474 364.633 165.708 363.865 169.987 363.734H170.34L170.457 360.608H180.658L180.557 363.702H180.893C185.11 364.213 189.236 365.276 193.161 366.861H193.329L197.699 364.586L204.908 368.661L200.354 370.887L200.825 371.247C202.88 372.851 204.395 375.017 205.177 377.466V377.744H209.731V382.9H204.891L204.791 383.129C203.9 385.542 202.216 387.602 200.001 388.988L199.581 389.267L202.724 391.558L194.959 395.322L191.598 393.26L191.414 393.342C187.399 394.812 183.164 395.63 178.877 395.764H178.507L178.406 398.448H168.205L168.441 395.486ZM185.044 384.88C185.308 384.799 185.567 384.701 185.817 384.586C188.96 383.227 190.691 381.394 190.691 379.414C190.691 377.433 189.01 375.6 185.817 374.258C178.49 371.537 170.39 371.537 163.063 374.258C159.903 375.6 158.172 377.433 158.172 379.414C158.172 381.394 159.853 383.227 163.046 384.586L163.769 384.864C167.188 386.07 170.804 386.664 174.44 386.615C178.054 386.668 181.647 386.08 185.044 384.88ZM185.515 374.929C188.355 376.157 189.935 377.744 189.935 379.414C189.935 381.083 188.355 382.687 185.498 383.915L184.775 384.193C178.051 386.451 170.745 386.451 164.021 384.193L163.365 383.931C160.508 382.704 158.929 381.1 158.929 379.43C158.929 377.761 160.508 376.157 163.365 374.946C170.5 372.305 178.381 372.305 185.515 374.946V374.929Z" fill="#7876FE"/>
<path d="M178.911 398.776V407.483H167.954V398.776H178.911Z" fill="#EBE8FF"/>
<path d="M179.297 398.399H167.533V407.859H179.297V398.399ZM168.34 399.136H178.541V407.123H168.34V399.136Z" fill="#7876FE"/>
<path d="M138.476 381.705V390.412H143.434V381.721L138.476 381.705Z" fill="#EBE8FF"/>
<path d="M143.821 381.345H138.09V390.789H143.821V381.345ZM138.779 382.065H143.031V390.019H138.813L138.779 382.065Z" fill="#7876FE"/>
<path d="M152.022 394.668V403.375C152.022 403.375 143.619 399.021 144.039 398.857C144.46 398.694 144.039 390.15 144.039 390.15L152.022 394.668Z" fill="#EBE8FF"/>
<path d="M152.391 394.438L143.619 389.528V390.199C143.823 392.999 143.856 395.808 143.72 398.612H143.619V398.841C143.619 399.136 143.619 399.43 151.82 403.751L152.374 404.046L152.391 394.438ZM144.442 390.789L151.635 394.864V402.753C148.475 401.116 145.165 399.299 144.459 398.776C144.698 396.123 144.692 393.456 144.442 390.805V390.789Z" fill="#7876FE"/>
<path d="M195.093 395.699V404.406L203.614 400.281V391.574L195.093 395.699Z" fill="#EBE8FF"/>
<path d="M203.984 400.51V390.969L194.724 395.469V404.995L203.984 400.51ZM203.228 392.163V400.052L195.48 403.817V395.928L203.228 392.163Z" fill="#7876FE"/>
<path d="M210.252 383.211C210.252 383.211 210.387 391.934 210.252 391.934H205.211V383.211H210.252Z" fill="#EBE8FF"/>
<path d="M210.454 392.294L210.555 392.196C210.706 392.049 210.807 391.951 210.656 383.211V382.851H204.942V392.294H210.454ZM205.698 383.587H209.916C209.916 386.386 209.916 390.445 209.916 391.558H205.664L205.698 383.587Z" fill="#7876FE"/>
<path d="M272.836 326.631C272.298 316.402 282.112 309.331 290.666 305.731C299.847 302.017 309.76 300.34 319.689 300.821C329.423 300.967 338.978 303.386 347.552 307.875C353.888 311.41 360.005 317.106 360.593 324.651C361.148 331.656 360.879 339.544 355.552 344.798L364.862 350.248C365.517 350.608 366.542 351.492 367.534 351.983C368.609 351.901 369.399 351.197 370.643 351.41H372.239C372.481 351.443 372.718 351.504 372.945 351.59C373.05 351.639 373.151 351.693 373.248 351.754C379.23 354.225 385.012 358.055 390.625 361.116L414.152 373.849C415.833 374.766 417.648 375.6 419.194 376.631C424.571 379.905 420.773 388.088 417.059 391.361C414.135 393.964 411.698 393.718 408.657 392.098L400.254 387.548L375.416 374.193L366.274 369.283C364.835 368.686 363.563 367.766 362.56 366.599C362.01 365.801 361.723 364.859 361.736 363.898C361.736 362.687 361.854 362.261 361.736 361.95C359.929 360.758 358.055 359.665 356.123 358.677L350.409 355.404C348.847 353.965 347.061 352.777 345.116 351.885C343.301 351.492 339.822 353.734 337.839 354.323C333.927 355.42 329.923 356.176 325.873 356.582C317.278 357.584 308.568 357.102 300.144 355.158C291.237 353.014 281.658 348.873 276.281 341.246C274.3 338.485 273.137 335.246 272.92 331.885C272.768 330.461 273.34 327.744 272.836 326.631Z" fill="url(#paint2_linear_642_30)"/>
<path d="M292.951 308.955C307.555 301.41 331.301 301.426 345.821 308.955C354.409 313.423 357.887 319.544 356.291 325.322C355.199 321.345 351.72 317.482 345.821 314.405C331.301 306.86 307.555 306.844 292.951 314.405C290.431 315.71 288.208 317.498 286.414 319.661C284.621 321.823 283.295 324.317 282.515 326.991C280.835 321.148 284.196 313.439 292.951 308.955Z" fill="#7876FE"/>
<path d="M299.875 309.757C317.118 304.225 339.855 307.269 350.577 316.516C361.299 325.764 355.989 337.793 338.814 343.325C321.638 348.857 298.834 345.813 288.129 336.549C277.423 327.286 282.65 315.272 299.875 309.757Z" fill="#F1F3FF"/>
<path d="M338.83 343.571C348.543 340.444 354.845 335.174 356.139 329.102C357.08 324.618 355.215 320.199 350.745 316.336C339.973 307.024 317.134 303.963 299.791 309.511C290.094 312.621 283.775 317.891 282.498 323.963C281.557 328.399 283.473 332.932 287.876 336.746C295.018 342.916 307.437 346.336 320.058 346.336C326.425 346.375 332.759 345.441 338.83 343.571ZM350.392 316.713C354.778 320.444 356.459 324.7 355.618 328.971C354.375 334.863 348.19 339.986 338.662 343.047C321.503 348.546 298.883 345.535 288.246 336.336C283.91 332.588 282.112 328.349 283.019 324.045C284.28 318.153 290.447 313.014 299.976 309.97C306.001 308.105 312.291 307.177 318.613 307.22C331.066 307.253 343.35 310.624 350.392 316.713Z" fill="#7876FE"/>
<path d="M360.207 324.814V330.608C360.193 333.648 359.445 336.642 358.022 339.348C356.288 341.94 354.036 344.167 351.401 345.895L350.527 339.806C350.527 339.806 359.216 329.79 360.207 324.814Z" fill="white"/>
<path d="M351.569 346.026C354.237 344.304 356.523 342.078 358.291 339.479C359.715 336.727 360.463 333.69 360.476 330.608V324.88H359.971C358.997 329.79 350.443 339.61 350.359 339.61V339.708L351.3 346.255L351.569 346.026ZM359.971 326.516V330.608C359.964 333.601 359.233 336.551 357.837 339.217C356.203 341.663 354.09 343.771 351.619 345.42L350.829 339.888C351.636 338.873 357.938 331.492 359.955 326.516H359.971Z" fill="#7876FE"/>
<path d="M345.334 340.805C340.511 342.67 338.763 343.243 336.931 343.751C333.481 344.723 329.949 345.396 326.378 345.764C320.163 346.428 313.883 346.236 307.724 345.191C301.572 344.212 295.659 342.137 290.28 339.07C282.364 334.372 278.381 325.453 278.381 325.453V329.773C278.381 335.944 282.364 342.114 290.28 346.828C293.289 348.586 296.498 349.998 299.842 351.034C302.823 351.967 305.874 352.672 308.967 353.145C312.101 353.646 315.27 353.904 318.445 353.914C324.966 353.914 337.049 353.096 345.334 348.808V340.805Z" fill="white"/>
<path d="M345.468 349.021H345.603V340.428L345.25 340.575C340.611 342.359 338.796 342.965 336.931 343.505C333.496 344.47 329.982 345.144 326.428 345.518C320.196 346.177 313.9 345.985 307.723 344.945C301.592 343.953 295.701 341.866 290.346 338.791C282.599 334.192 278.583 325.371 278.583 325.289L278.079 324.143V329.708C278.079 336.255 282.364 342.376 290.094 346.975C293.117 348.751 296.343 350.173 299.707 351.214C302.701 352.145 305.763 352.857 308.866 353.341C312.017 353.837 315.203 354.089 318.395 354.094C323.537 354.16 336.46 353.669 345.468 349.021ZM290.01 339.299C295.416 342.38 301.357 344.467 307.538 345.453C313.771 346.495 320.123 346.687 326.411 346.026C329.993 345.647 333.536 344.968 336.998 343.996C338.847 343.456 340.611 342.867 345.014 341.181V348.611C336.124 353.129 323.403 353.62 318.327 353.62C312.052 353.588 305.818 352.622 299.841 350.755C296.519 349.733 293.332 348.332 290.346 346.582C282.767 342.081 278.583 336.091 278.583 329.741V326.467C281.21 331.641 285.171 336.062 290.078 339.299H290.01Z" fill="#7876FE"/>
<path d="M345.351 348.808L377.466 367.171L377.432 361.672L345.351 343.309V348.808Z" fill="white"/>
<path d="M377.701 361.525L345.082 342.867V348.955L377.718 367.613L377.701 361.525ZM345.619 343.702L377.18 361.705V366.615L345.603 348.612L345.619 343.702Z" fill="#7876FE"/>
<path d="M345.35 343.341C324.041 351.361 304.244 349.217 290.195 341.214C282.431 336.778 278.431 331.017 278.314 325.207C278.257 322.318 279.063 319.475 280.633 317.024C281.087 316.291 281.587 315.586 282.129 314.912C282.431 314.569 282.717 314.225 283.036 313.898C283.355 313.57 283.675 313.227 284.011 312.883C284.729 312.204 285.487 311.564 286.279 310.968C286.683 310.657 287.103 310.33 287.557 310.019L288.229 309.577C288.683 309.266 289.153 308.971 289.624 308.693L290.38 308.251C306.429 299.168 332.393 299.168 348.342 308.251L349.064 308.677L350.325 309.462C351.451 310.197 352.523 311.006 353.535 311.885C353.904 312.196 354.257 312.523 354.577 312.85C354.896 313.178 355.198 313.456 355.484 313.75C355.77 314.045 357.265 315.944 357.265 315.96C357.265 315.976 357.551 316.385 357.686 316.598C357.82 316.811 358.274 317.58 358.442 317.858L358.727 318.431C358.727 318.595 358.879 318.759 358.946 318.922C359.013 319.086 359.164 319.43 359.265 319.691C359.326 319.824 359.376 319.961 359.417 320.101C359.517 320.379 359.753 321.197 359.786 321.312C359.82 321.426 359.954 322.016 360.005 322.376C360.021 322.561 360.021 322.747 360.005 322.932C360.08 323.442 360.114 323.956 360.106 324.471C360.106 324.471 360.106 324.552 360.106 324.602V324.88C360.153 327.971 359.335 331.017 357.739 333.69C356.143 336.363 353.83 338.563 351.047 340.052L384.658 359.266L378.877 362.54L345.35 343.341ZM340.645 340.363C344.156 338.901 347.474 337.032 350.526 334.798C354.19 331.737 356.156 328.251 356.223 324.814V324.471C356.241 324.133 356.241 323.794 356.223 323.456C356.215 323.391 356.215 323.325 356.223 323.259C356.223 323.259 356.223 323.079 356.223 323.03C356.223 322.981 356.123 322.507 356.055 322.245L355.787 321.345L355.686 321.066L355.434 320.461C355.434 320.346 355.316 320.215 355.266 320.084L355.047 319.675C354.913 319.446 354.543 318.824 354.442 318.677C354.341 318.529 354.274 318.415 354.19 318.284C354.106 318.153 352.896 316.647 352.627 316.353L351.938 315.633C351.619 315.322 351.35 315.076 351.064 314.831C350.114 314.058 349.109 313.353 348.056 312.719C347.686 312.474 347.333 312.245 346.947 312.032L346.544 311.786L346.224 311.606C339.183 307.58 329.604 305.338 319.336 305.338C309.921 305.134 300.612 307.305 292.313 311.639L291.607 312.032L290.346 312.834L289.775 313.227C289.388 313.489 289.019 313.767 288.666 314.045C287.994 314.569 287.338 315.125 286.733 315.682L285.91 316.516L285.154 317.384C284.736 317.904 284.355 318.451 284.011 319.02C282.818 320.83 282.198 322.942 282.229 325.093C282.364 329.741 285.876 334.274 292.128 337.826C300.382 342.148 309.647 344.308 319.016 344.094C326.386 344.063 333.698 342.824 340.645 340.428V340.363Z" fill="white"/>
<path d="M385.515 359.266L351.904 340.052C354.598 338.491 356.822 336.268 358.353 333.604C359.884 330.941 360.668 327.932 360.626 324.88V324.602C360.633 324.558 360.633 324.514 360.626 324.471C360.633 323.923 360.599 323.376 360.526 322.834C360.542 322.643 360.542 322.452 360.526 322.261C360.526 321.917 360.391 321.574 360.29 321.165C360.29 321.034 360.021 320.215 359.921 319.937C359.9 319.853 359.872 319.771 359.837 319.692V319.495L359.517 318.71L359.282 318.235C359.195 318.032 359.094 317.835 358.979 317.646C358.828 317.351 358.324 316.484 358.223 316.353C358.122 316.222 357.938 315.911 357.786 315.698C357.467 315.223 356.005 313.489 355.988 313.456C355.702 313.145 355.4 312.85 355.081 312.539C354.761 312.228 354.375 311.852 354.022 311.557C352.996 310.677 351.913 309.862 350.778 309.119L349.501 308.317L348.779 307.891C332.746 298.758 306.597 298.758 290.464 307.891L289.691 308.333L288.279 309.217L287.607 309.675L286.397 310.559C285.597 311.17 284.834 311.826 284.111 312.523C283.764 312.872 283.428 313.216 283.103 313.554C282.784 313.898 282.498 314.241 282.196 314.585C281.636 315.265 281.125 315.981 280.666 316.729C279.061 319.234 278.238 322.14 278.297 325.093C278.482 331.263 282.767 337.04 290.346 341.377C305.437 350.248 325.587 351.099 345.317 343.702L379.028 362.965L385.515 359.266ZM345.182 343.014C325.604 350.396 305.606 349.561 290.329 340.919C282.952 336.713 278.801 331.099 278.566 325.207C278.507 322.386 279.296 319.61 280.834 317.22C281.276 316.494 281.77 315.799 282.313 315.142C282.599 314.814 282.885 314.471 283.187 314.143C283.49 313.816 283.826 313.472 284.162 313.145C284.871 312.468 285.617 311.829 286.397 311.23C286.783 310.952 287.17 310.657 287.59 310.379L288.246 309.921L289.64 309.053L290.397 308.611C306.328 299.593 332.158 299.593 347.989 308.611L348.711 309.037C349.148 309.299 349.552 309.544 349.955 309.822C351.074 310.54 352.136 311.339 353.131 312.212C353.493 312.507 353.836 312.824 354.156 313.161C354.476 313.456 354.761 313.75 355.047 314.045C355.333 314.34 356.543 315.878 356.728 316.189C356.881 316.387 357.021 316.595 357.148 316.811C357.148 316.926 357.719 317.76 357.87 318.039C358.022 318.317 358.072 318.415 358.156 318.595L358.374 319.07C358.49 319.309 358.591 319.555 358.677 319.806L358.761 320.003C358.761 320.003 358.761 320.15 358.761 320.232C358.761 320.313 359.08 321.295 359.114 321.41C359.147 321.525 359.282 322.097 359.349 322.474C359.358 322.648 359.358 322.823 359.349 322.998C359.419 323.491 359.453 323.989 359.45 324.487C359.444 324.53 359.444 324.574 359.45 324.618V324.896C359.516 327.932 358.721 330.927 357.153 333.552C355.584 336.177 353.303 338.33 350.56 339.774L350.039 340.068L383.65 359.283L378.608 362.18L344.997 342.981L345.182 343.014ZM340.712 340.69C344.262 339.215 347.614 337.324 350.694 335.06C354.442 331.934 356.459 328.399 356.526 324.814V324.471C356.55 324.105 356.55 323.739 356.526 323.374C356.526 323.374 356.526 323.292 356.526 323.259V323.096C356.526 323.096 356.526 322.981 356.526 322.965C356.484 322.689 356.428 322.416 356.358 322.147L356.089 321.246L355.971 320.935L355.719 320.33C355.723 320.259 355.723 320.188 355.719 320.117L355.585 319.855C355.53 319.737 355.468 319.623 355.4 319.511C355.282 319.282 354.896 318.644 354.812 318.497L354.61 318.186L354.459 317.989C354.106 317.547 353.198 316.435 352.896 316.091C352.593 315.747 352.459 315.616 352.224 315.403C351.95 315.114 351.658 314.84 351.35 314.585C350.447 313.81 349.493 313.094 348.493 312.441L347.384 311.737L346.964 311.492L346.644 311.295C338.338 306.949 329.015 304.778 319.588 304.994C310.108 304.793 300.736 306.981 292.38 311.344L291.775 311.688H291.674L290.38 312.49L289.825 312.883C289.439 313.145 289.052 313.423 288.699 313.701C288.01 314.213 287.348 314.76 286.716 315.338C286.447 315.6 286.162 315.878 285.91 316.156C285.658 316.435 285.372 316.746 285.137 317.04C284.704 317.557 284.311 318.104 283.96 318.677C282.742 320.545 282.106 322.716 282.128 324.929C282.263 329.708 285.842 334.34 292.212 338.022C300.522 342.377 309.851 344.554 319.285 344.34C326.603 344.3 333.863 343.066 340.762 340.69H340.712ZM346.056 311.885L346.375 312.081L346.779 312.327C347.148 312.539 347.501 312.768 347.871 313.014C348.847 313.639 349.773 314.334 350.644 315.092C350.913 315.322 351.165 315.567 351.501 315.878L352.173 316.565C352.425 316.86 353.316 317.973 353.669 318.415L353.787 318.579L353.971 318.857C354.055 318.988 354.425 319.61 354.543 319.839L354.711 320.15L354.828 320.412L354.929 320.592C354.929 320.788 355.081 320.985 355.165 321.181L355.265 321.459C355.265 321.672 355.501 322.228 355.518 322.327C355.534 322.425 355.635 322.834 355.686 323.096V323.194C355.693 323.226 355.693 323.26 355.686 323.292C355.675 323.357 355.675 323.424 355.686 323.489C355.686 323.816 355.686 324.143 355.686 324.471V324.814C355.686 328.186 353.686 331.541 350.106 334.536C347.096 336.758 343.817 338.611 340.342 340.052C333.515 342.415 326.329 343.648 319.083 343.702C308.899 343.702 299.404 341.492 292.38 337.482C286.229 333.98 282.784 329.561 282.649 325.027C282.612 322.946 283.196 320.899 284.33 319.135C284.656 318.562 285.027 318.015 285.439 317.498L286.195 316.631L287.002 315.813C287.6 315.23 288.234 314.683 288.901 314.176C289.237 313.914 289.607 313.636 289.993 313.374L290.548 312.998L291.791 312.212H291.909L292.497 311.868C300.758 307.564 310.02 305.41 319.386 305.616C329.57 305.682 339.099 307.891 346.107 311.885H346.056Z" fill="#7876FE"/>
<path d="M364.677 351.885C366.223 350.134 369.114 347.728 371.651 349.004L415.463 372.572C415.173 372.42 414.862 372.31 414.539 372.245C413.189 372.106 411.836 372.475 410.757 373.276C409.616 374.052 408.616 375.01 407.8 376.108C406.044 378.336 405.077 381.057 405.044 383.866C404.983 384.626 405.129 385.388 405.469 386.075C405.808 386.762 406.328 387.349 406.976 387.777L363.282 364.242C362.638 363.816 362.121 363.231 361.784 362.546C361.447 361.862 361.303 361.103 361.366 360.347C361.333 359.889 361.333 359.429 361.366 358.972C361.748 356.349 362.897 353.888 364.677 351.885Z" fill="#DFE1FF"/>
<path d="M407.094 387.548C406.492 387.14 406.01 386.585 405.698 385.939C405.385 385.293 405.252 384.578 405.313 383.865C405.336 381.114 406.286 378.445 408.018 376.271C408.801 375.186 409.774 374.244 410.892 373.489C411.918 372.725 413.205 372.374 414.489 372.507C414.79 372.556 415.08 372.655 415.346 372.802L415.598 372.343L371.769 348.759C368.761 347.253 365.434 350.625 364.476 351.705C362.665 353.752 361.498 356.263 361.115 358.939C361.076 359.407 361.076 359.878 361.115 360.346C361.053 361.151 361.212 361.956 361.575 362.681C361.938 363.406 362.493 364.024 363.182 364.471L406.876 387.99L407.094 387.548ZM371.584 349.217L413.749 371.934C412.616 372.027 411.53 372.417 410.606 373.063C409.434 373.852 408.41 374.832 407.581 375.96C405.8 378.234 404.816 381.006 404.775 383.865C404.776 384.852 405.024 385.824 405.498 386.697L363.484 364.029C362.879 363.623 362.394 363.069 362.078 362.423C361.762 361.776 361.627 361.06 361.686 360.346C361.647 359.9 361.647 359.451 361.686 359.004C362.044 356.431 363.152 354.011 364.879 352.032C365.602 351.214 367.87 348.89 370.139 348.89C370.641 348.879 371.138 348.992 371.584 349.217Z" fill="#7876FE"/>
<path d="M411.026 373.162C414.387 371.132 417.278 372.638 417.396 376.533C417.323 378.648 416.745 380.717 415.706 382.575C414.667 384.434 413.197 386.03 411.413 387.237C408.052 389.283 405.144 387.761 405.044 383.865C405.115 381.751 405.693 379.681 406.731 377.823C407.77 375.964 409.241 374.368 411.026 373.162Z" fill="#7876FE"/>
<path d="M309.773 252.49L317.117 256.745L324.478 252.588L317.117 248.333L309.773 252.49Z" fill="#DFE1FF"/>
<path d="M325 252.588L317.118 248.038L309.253 252.49L317.118 257.04L325 252.588ZM317.118 248.627L323.958 252.588L317.118 256.45L310.278 252.49L317.118 248.627Z" fill="#7876FE"/>
<path d="M317.117 321.148L324.478 316.991V252.588L317.117 256.745V321.148Z" fill="#DFE1FF"/>
<path d="M324.748 317.138V252.146L316.866 256.598V321.59L324.748 317.138ZM324.21 253.03V316.86L317.387 320.788V256.958L324.21 253.03Z" fill="#7876FE"/>
<path d="M309.773 316.893L317.117 321.148V256.745L309.773 252.49V316.893Z" fill="#DFE1FF"/>
<path d="M317.386 256.598L309.505 252.048V317.04L317.386 321.59V256.598ZM310.025 252.932L316.865 256.958V320.788L310.025 316.844V252.932Z" fill="#7876FE"/>
<path d="M328.864 280.166L336.208 284.405L343.569 280.264L336.208 276.009L328.864 280.166Z" fill="white"/>
<path d="M344.09 280.264L336.293 275.714L328.411 280.149L336.209 284.781L344.09 280.264ZM336.209 276.303L343.015 280.248L336.293 284.11L329.453 280.166L336.209 276.303Z" fill="#7876FE"/>
<path d="M336.208 326.893L343.569 322.736V280.264L336.208 284.405V326.893Z" fill="white"/>
<path d="M343.838 322.883V279.871L335.956 284.323V327.335L343.838 322.883ZM343.317 280.706V322.589L336.477 326.451V284.552L343.317 280.706Z" fill="#7876FE"/>
<path d="M328.865 322.637L336.208 326.893V284.405L328.865 280.166V322.637Z" fill="white"/>
<path d="M336.478 284.257L328.596 279.708V322.785L336.478 327.335V284.257ZM329.117 280.608L335.957 284.552V326.435L329.117 322.425V280.608Z" fill="#7876FE"/>
<path d="M295.052 274.405L302.413 278.66L309.773 274.503L302.413 270.264L295.052 274.405Z" fill="#DFE1FF"/>
<path d="M310.126 274.519L302.413 270.051L294.682 274.405L302.413 278.873L310.126 274.519ZM302.413 270.477L309.404 274.503L302.413 278.447L295.422 274.421L302.413 270.477Z" fill="#7876FE"/>
<path d="M302.413 330.674L309.773 326.516V274.503L302.413 278.66V330.674Z" fill="#DFE1FF"/>
<path d="M309.958 326.615V274.241L302.228 278.611V330.984L309.958 326.615ZM309.588 274.83V326.418L302.597 330.363V278.775L309.588 274.83Z" fill="#7876FE"/>
<path d="M295.052 326.418L302.413 330.674V278.66L295.052 274.405V326.418Z" fill="#DFE1FF"/>
<path d="M302.598 278.562L294.867 274.094V326.467L302.598 330.935V278.562ZM295.237 274.732L302.228 278.775V330.346L295.237 326.32V274.732Z" fill="#7876FE"/>
<path d="M319.437 296.222L326.797 300.461L334.158 296.303L326.797 292.064L319.437 296.222Z" fill="#F1F3FF"/>
<path d="M334.612 296.32L326.797 291.803L319 296.238L326.797 300.755L334.612 296.32ZM326.797 292.31L333.704 296.238L326.797 300.133L319.89 296.238L326.797 292.31Z" fill="#7876FE"/>
<path d="M326.797 337.089L334.158 332.932V296.303L326.797 300.461V337.089Z" fill="#F1F3FF"/>
<path d="M334.376 333.063V295.927L326.579 300.33V337.466L334.376 333.063ZM333.923 296.696V332.801L327.033 336.697V300.592L333.923 296.696Z" fill="#7876FE"/>
<path d="M319.437 332.834L326.797 337.089V300.461L319.437 296.222V332.834Z" fill="#F1F3FF"/>
<path d="M327.033 300.33L319.218 295.829V332.965L327.033 337.482V300.33ZM319.672 296.598L326.579 300.592V336.697L319.672 332.703V296.598Z" fill="#7876FE"/>
<path d="M116.326 197.285L131.334 215.124L149.937 226.548L173.918 230.591L170.809 206.532L116.326 197.285Z" fill="#7876FE"/>
<path d="M189.531 59.7386L204.539 77.562L223.142 88.986L247.14 93.045L244.014 68.9859L189.531 59.7386Z" fill="#7876FE"/>
<path d="M116.327 197.285L187.061 64.8451L200.522 77.2838L216.319 81.8665L144.358 213.341L128.813 209.412L116.327 197.285Z" fill="#DFE1FF"/>
<path d="M144.712 214.044L217.244 81.4737L200.875 76.7273L186.893 63.8303L115.571 197.367L128.494 209.92L144.712 214.044ZM215.462 82.2265L144.073 212.637L129.167 208.872L117.1 197.17L187.229 65.8271L200.354 77.8566L215.462 82.2265Z" fill="#7876FE"/>
<path d="M311.521 91.5229L283.49 75.6144L288.262 59.3459L314.764 47.2836L322.881 61.3917L311.521 91.5229Z" fill="#D35600"/>
<path d="M220.706 142.358L217.479 169.33L196.523 186.401L115.353 140.197L134.696 122.227L137.922 95.2871L220.706 142.358Z" fill="#9290FF"/>
<path d="M38.3832 235.436L10.335 219.527L28.8209 189.576L63.272 195.255L38.3832 235.436Z" fill="#D35600"/>
<path d="M10.7725 225.501L29.9138 206.319L47.8116 205.223C47.8116 205.223 48.0132 232.571 72.3306 232.735C96.648 232.899 113.806 202.211 113.806 202.211L126.612 215.534L142.779 219.773C135.183 235.288 109.168 272.343 69.6586 278.611C67.6587 283.93 65.2388 289.691 65.2388 289.691L36.9553 273.619C14.0664 259.593 10.7725 225.501 10.7725 225.501Z" fill="#EBE8FF"/>
<path d="M65.5414 290.542L65.8103 289.904C65.8103 289.904 68.1631 284.323 70.1125 279.135C108.193 272.899 134.645 237.776 143.334 220.018L143.653 219.38L126.847 215.01L113.588 201.196L113.185 201.933C113.017 202.227 95.9928 232.146 72.4316 232.146H72.2468C48.8369 231.982 48.3495 206.303 48.3495 205.206V204.584L29.5611 205.73L10.0668 225.37V225.632C10.0668 225.976 13.6464 260.002 36.3505 274.077L36.5689 274.208L65.5414 290.542ZM141.905 220.165C132.965 237.972 106.866 272.097 69.6419 278.005H69.2722L69.1546 278.333C67.5749 282.572 65.6927 287.105 65.0037 288.758L37.342 273.03C16.0664 259.937 11.865 228.84 11.4785 225.566L30.2501 206.745L47.2403 205.861C47.4756 210.002 49.7948 233.193 72.3308 233.341H72.4484C94.6483 233.341 111.101 207.841 113.857 203.209L126.226 216.041L141.905 220.165Z" fill="#7876FE"/>
<path d="M75.8428 221.131L48.4668 205.795L31.1909 205.173L10.7723 225.501L38.8037 241.409L57.945 222.228L75.8428 221.131Z" fill="#7876FE"/>
<path d="M221.495 171.491L224.402 144.027C224.402 144.027 248.115 157.121 271.457 121.899C283.221 104.272 282.969 81.9482 282.969 81.9482L305.186 62.8646L321 61.3916C321 61.3916 326.024 114.043 291.792 153.847C257.559 193.651 224.873 198.414 201.295 189.265L221.495 171.491Z" fill="#DFE1FF"/>
<path d="M222.57 193.848C240.855 193.848 265.323 185.664 292.262 154.273C326.209 114.698 321.672 61.8662 321.621 61.3425V60.7369L305.001 62.3736L282.364 81.8337V82.0955C282.364 82.3247 282.364 104.452 270.953 121.736C248.216 155.975 224.94 143.782 224.705 143.651L223.898 143.193L220.907 171.278L200.169 189.494L201.093 189.854C207.928 192.499 215.216 193.854 222.57 193.848ZM320.445 62.0463C320.848 67.9874 323.033 116.58 291.321 153.504C252.669 198.414 219.428 195.337 202.454 189.085L222.016 171.851L224.856 145.058C229.309 146.941 250.955 153.929 271.911 122.358C282.885 105.827 283.473 84.9924 283.507 82.341L305.354 63.5029L320.445 62.0463Z" fill="#7876FE"/>
<path d="M252.45 160.001L224.402 144.093L201.295 189.298L229.343 205.206L249.526 187.399L252.45 160.001Z" fill="#7876FE"/>
<path d="M144.359 213.193L215.109 80.7535L228.554 93.1923L244.351 97.7586L173.919 230.591L158.374 226.679L144.359 213.193Z" fill="#E6E7FE"/>
<path d="M174.238 231.295L174.473 230.869L245.241 97.3985L228.872 92.6521L214.941 79.7715L143.602 213.308L158.071 227.219L174.238 231.295ZM243.459 98.2004L173.599 229.969L158.693 226.205L145.114 213.111L215.294 81.7355L228.402 93.765L243.459 98.2004Z" fill="#7876FE"/>
<path d="M248.753 158.266L245.526 185.239L224.553 202.309L143.383 156.106L162.743 138.135L165.97 111.196L248.753 158.266Z" fill="#F1F3FF"/>
<path d="M224.621 203.046L246.098 185.533L249.459 157.939L165.433 110.214L162.071 137.857L142.292 156.221L224.621 203.046ZM244.939 184.944L224.503 201.606L144.409 156.008L163.332 138.414L166.474 112.227L248.081 158.594L244.939 184.944Z" fill="#7876FE"/>
<path d="M196.589 155.582C195.759 157.477 195.67 159.602 196.339 161.555C197.008 163.509 198.388 165.157 200.219 166.188C201.075 166.697 202.033 167.021 203.028 167.139C204.023 167.257 205.033 167.165 205.988 166.87C206.944 166.576 207.824 166.085 208.568 165.43C209.312 164.776 209.904 163.974 210.303 163.078C211.126 161.184 211.21 159.061 210.539 157.111C209.867 155.16 208.486 153.516 206.656 152.489C205.803 151.98 204.847 151.655 203.854 151.536C202.861 151.417 201.853 151.507 200.898 151.801C199.944 152.094 199.066 152.583 198.322 153.236C197.579 153.888 196.988 154.688 196.589 155.582Z" fill="#7876FE"/>
<path d="M197.984 156.613C197.162 158.509 197.077 160.631 197.745 162.583C198.413 164.535 199.789 166.183 201.614 167.219C202.47 167.728 203.428 168.052 204.423 168.17C205.418 168.288 206.428 168.196 207.383 167.901C208.339 167.607 209.219 167.116 209.963 166.461C210.707 165.807 211.299 165.005 211.698 164.109C212.527 162.217 212.615 160.095 211.946 158.144C211.277 156.193 209.897 154.548 208.068 153.52C207.214 153.008 206.257 152.68 205.262 152.56C204.267 152.44 203.257 152.529 202.3 152.823C201.344 153.116 200.463 153.607 199.719 154.261C198.974 154.915 198.383 155.717 197.984 156.613Z" fill="#EBE8FF"/>
<path d="M207.563 168.217C208.544 167.897 209.445 167.381 210.209 166.701C210.973 166.022 211.583 165.195 212 164.273C212.864 162.29 212.955 160.069 212.255 158.025C211.556 155.982 210.115 154.258 208.202 153.176C207.284 152.654 206.264 152.324 205.208 152.208C204.151 152.093 203.082 152.194 202.068 152.505C201.084 152.823 200.179 153.338 199.412 154.017C198.644 154.697 198.032 155.525 197.615 156.45C196.751 158.437 196.662 160.662 197.364 162.709C198.067 164.755 199.512 166.481 201.429 167.563C202.58 168.209 203.882 168.558 205.211 168.577C206.009 168.578 206.803 168.456 207.563 168.217ZM198.354 156.761C198.726 155.937 199.272 155.199 199.955 154.592C200.638 153.986 201.443 153.526 202.32 153.242C203.225 152.96 204.182 152.868 205.126 152.972C206.07 153.077 206.981 153.375 207.799 153.847C209.537 154.829 210.849 156.395 211.486 158.251C212.123 160.107 212.043 162.126 211.26 163.929C210.894 164.754 210.353 165.494 209.673 166.1C208.992 166.707 208.187 167.166 207.311 167.448C206.414 167.736 205.466 167.84 204.526 167.753C203.586 167.665 202.674 167.389 201.849 166.941C200.109 165.956 198.798 164.387 198.16 162.528C197.523 160.669 197.604 158.648 198.388 156.842L198.354 156.761Z" fill="#7876FE"/>
<path d="M38.8377 241.409C38.8377 241.409 41.6274 270.329 59.9452 285.861C66.4355 291.428 74.6401 294.738 83.2711 295.272C85.0868 295.432 86.9113 295.476 88.7329 295.403C133.267 293.881 162.677 252.326 170.827 235.681L154.66 231.442L141.855 218.12C141.855 218.12 124.696 248.791 100.396 248.66C76.0952 248.529 75.8095 221.131 75.8095 221.131L57.9118 222.244L38.8377 241.409Z" fill="#F1F3FF"/>
<path d="M86.9342 296.042H88.7324C131.603 294.585 161.517 256.107 171.365 235.976L171.667 235.321L154.962 230.935L141.703 217.137L141.3 217.874C141.132 218.169 124.091 248.087 100.53 248.087H100.379C76.9518 247.94 76.4645 222.244 76.4645 221.147V220.525L57.6929 221.687L38.1986 241.229V241.508C38.1986 241.802 41.2404 270.837 59.5247 286.352C66.1187 291.993 74.445 295.348 83.2034 295.894C84.4437 296.005 85.6889 296.054 86.9342 296.042ZM169.919 236.074C159.836 256.156 130.511 293.357 88.6988 294.814C86.8996 294.881 85.0978 294.838 83.3043 294.683C74.808 294.144 66.7323 290.887 60.3313 285.419C43.3579 271.017 39.8119 244.601 39.459 241.622L58.2306 222.817L75.2545 221.769C75.4898 225.91 77.8257 249.102 100.463 249.265H100.614C122.831 249.265 139.266 223.75 142.039 219.118L154.391 231.966L169.919 236.074Z" fill="#7876FE"/>
<path d="M88.1107 269.413C87.2896 271.31 87.207 273.434 87.8783 275.386C88.5496 277.338 89.9288 278.985 91.7575 280.019C92.6093 280.516 93.5601 280.831 94.5466 280.942C95.5331 281.054 96.5327 280.959 97.4788 280.665C98.4249 280.371 99.2957 279.884 100.033 279.236C100.771 278.588 101.358 277.795 101.757 276.909C102.586 275.017 102.674 272.895 102.005 270.943C101.336 268.992 99.9565 267.347 98.1267 266.32C97.2754 265.819 96.3241 265.501 95.3365 265.387C94.3489 265.273 93.3476 265.365 92.3996 265.658C91.4516 265.951 90.5787 266.437 89.8391 267.085C89.0994 267.732 88.5102 268.526 88.1107 269.413Z" fill="#7876FE"/>
<path d="M89.522 270.444C88.693 272.336 88.6046 274.458 89.2735 276.41C89.9424 278.361 91.3222 280.006 93.152 281.033C94.005 281.548 94.9621 281.878 95.9579 282C96.9537 282.122 97.9647 282.033 98.922 281.739C99.8793 281.445 100.76 280.954 101.505 280.298C102.249 279.643 102.839 278.838 103.235 277.94C104.064 276.048 104.153 273.926 103.484 271.975C102.815 270.023 101.435 268.378 99.6052 267.351C98.7522 266.836 97.7951 266.506 96.7993 266.384C95.8035 266.263 94.7924 266.352 93.8352 266.645C92.8779 266.939 91.997 267.43 91.2526 268.086C90.5083 268.742 89.9179 269.546 89.522 270.444Z" fill="#EBE8FF"/>
<path d="M99.0846 282.048C100.067 281.73 100.969 281.215 101.734 280.536C102.498 279.856 103.107 279.027 103.521 278.104C104.393 276.122 104.488 273.898 103.787 271.852C103.087 269.807 101.641 268.083 99.7232 267.007C98.8075 266.479 97.7874 266.147 96.7301 266.031C95.6728 265.916 94.6023 266.019 93.5892 266.336C92.6085 266.656 91.7072 267.173 90.9433 267.852C90.1793 268.531 89.5694 269.358 89.1526 270.28C88.2848 272.263 88.192 274.486 88.8917 276.53C89.5914 278.574 91.0352 280.298 92.9506 281.377C94.1221 282.033 95.4479 282.383 96.7991 282.392C97.5745 282.392 98.3454 282.276 99.0846 282.048ZM89.8921 270.591C90.2608 269.768 90.8029 269.03 91.4832 268.424C92.1635 267.818 92.9668 267.357 93.8413 267.073C94.7466 266.791 95.7029 266.699 96.6473 266.803C97.5916 266.907 98.5026 267.206 99.3199 267.678C101.064 268.655 102.38 270.22 103.018 272.078C103.656 273.937 103.572 275.958 102.782 277.76C102.416 278.585 101.875 279.325 101.194 279.931C100.513 280.538 99.7085 280.997 98.8325 281.279C97.9273 281.561 96.9709 281.653 96.0266 281.548C95.0822 281.444 94.1713 281.146 93.354 280.673C91.6125 279.694 90.299 278.128 89.6613 276.271C89.0236 274.414 89.1057 272.394 89.8921 270.591Z" fill="#7876FE"/>
<path d="M39.2069 122.751C77.708 80.197 107.168 81.1954 130.662 91.0645L158.71 106.973L141.72 119.674L118.192 126.924L108.109 136.744C104.672 136.051 101.164 135.749 97.656 135.844L63.3394 167.153L38.4506 235.452L10.268 219.527C10.268 219.527 0.722534 165.386 39.2069 122.751ZM87.7576 136.859C74.3133 139.657 58.0289 148.986 50.6681 176.45L87.7576 136.859Z" fill="#DFE1FF"/>
<path d="M38.7195 236.319L63.81 167.481L97.8409 136.384C101.228 136.338 104.609 136.656 107.924 137.333H108.26L118.512 127.366L142.039 120.066L159.836 106.957L131.015 90.5899C111.1 82.2919 80.1784 76.5963 38.7531 122.407C0.504089 164.715 9.64622 219.085 9.74706 219.625V219.903L9.99913 220.034L38.7195 236.319ZM98.3114 135.238H97.3367L97.1687 135.402L62.7512 166.81V166.941L38.0977 234.552L10.957 219.151C10.3016 214.944 3.26016 163.504 39.7279 123.209C80.1112 78.4621 109.42 82.8484 130.427 91.6537L157.601 107.071L141.35 119.183L117.822 126.548L107.958 136.139C104.783 135.516 101.55 135.214 98.3114 135.238ZM49.4414 178.692L89.5222 135.926L87.64 136.319C74.6662 139.019 57.6256 148.168 50.0632 176.352L49.4414 178.692ZM85.8923 137.939L51.8781 174.24C59.2389 149.87 74.0108 140.967 85.8923 137.939Z" fill="#7876FE"/>
<path d="M158.71 107.022L155.467 133.978L136.191 152.702C136.191 152.702 79.8255 138.839 75.0695 215.861L56.1971 217.007L38.3834 235.436C38.3834 235.436 28.7539 181.294 67.2551 138.725C105.756 96.1546 135.199 97.153 158.71 107.022Z" fill="#E6E7FE"/>
<path d="M37.9803 236.712L56.483 217.678L75.658 216.516V215.992C77.3385 189.298 85.3043 170.656 99.4208 160.59C116.226 148.675 135.821 153.324 136.006 153.373H136.342L156.055 134.207L159.416 106.597L158.996 106.433C139.283 98.1514 108.26 92.4394 66.8352 138.266C28.5861 180.591 37.7282 234.945 37.8291 235.485L37.9803 236.712ZM74.4984 215.304L55.9117 216.434L38.8374 234.126C37.745 225.943 33.0563 177.481 67.7426 139.117C107.924 94.6653 137.098 98.7078 158.072 107.399L154.929 133.7L136.006 152.047C133.25 151.474 114.697 148.184 98.7318 159.543C84.3968 169.772 76.2462 188.529 74.4984 215.304Z" fill="#7876FE"/>
<path d="M76.5486 148.479C75.7196 150.371 75.6312 152.493 76.3001 154.445C76.9689 156.396 78.3487 158.041 80.1785 159.068C81.0316 159.583 81.9886 159.913 82.9844 160.035C83.9803 160.157 84.9913 160.068 85.9486 159.774C86.9058 159.48 87.7867 158.989 88.5311 158.333C89.2755 157.678 89.8658 156.873 90.2618 155.975C91.0917 154.081 91.1807 151.956 90.5119 150.002C89.8431 148.048 88.4629 146.4 86.6318 145.369C85.777 144.858 84.8191 144.531 83.8231 144.412C82.8272 144.293 81.8166 144.384 80.86 144.679C79.9035 144.974 79.0233 145.466 78.2793 146.122C77.5354 146.777 76.9451 147.581 76.5486 148.479Z" fill="#7876FE"/>
<path d="M349.048 77.3002L321 61.3917L305.186 62.8647L282.986 82.0138L311.018 97.9223L333.234 78.7732L349.048 77.3002Z" fill="#7876FE"/>
<path d="M273.861 0.932853C280.504 1.675 286.945 3.62357 292.851 6.67758L321.269 22.7825L315.151 32.0624C318.292 39.7095 320.06 47.8256 320.378 56.056L302.43 57.2835L299.321 60.295L306.396 61.3916L311.555 64.845C311.555 64.845 314.345 69.1985 314.345 71.0971C314.345 72.9956 311.555 91.5228 311.555 91.5228L291.389 82.8975L283.574 75.6143C283.574 75.3361 282.969 52.7009 264.298 48.8874C235.443 43.0608 218.285 77.1528 218.285 77.1528L201.648 71.9809L188.926 59.984C188.926 59.984 227.41 -4.68094 273.861 0.932853Z" fill="#EBE8FF"/>
<path d="M312.026 92.3739L312.143 91.6538C312.244 90.9009 314.933 73.0611 314.933 71.1462C314.933 69.2313 312.345 65.0251 312.043 64.5995L311.874 64.4195L306.463 60.8843L300.581 59.9677L302.682 57.8237L321 56.6126V56.0561C320.677 47.8554 318.939 39.7662 315.857 32.1279L322.143 22.5698L292.599 5.81021C286.763 2.91059 280.438 1.05884 273.928 0.343722C227.612 -5.2537 188.691 59.0185 188.22 59.6731L187.985 60.0823L201.295 72.5374L218.437 77.8566L218.672 77.3983C218.84 77.0546 235.948 43.7974 264.046 49.4603C282.095 53.1101 282.801 74.6978 282.835 75.6471V75.8926L283.02 76.0726L291.053 83.4704L312.026 92.3739ZM311.085 65.2542C312.305 67.0363 313.193 69.0143 313.706 71.0971C313.706 72.5047 312.026 84.076 311.051 90.7372L291.674 82.5538L284.112 75.5162C283.994 72.7829 282.431 52.1281 264.366 48.4619C237.225 42.9791 220.117 72.4883 217.899 76.58L201.9 71.67L189.632 60.0987C192.993 54.6649 230.167 -3.50246 273.793 1.76763C280.355 2.41948 286.734 4.26251 292.599 7.20139L293.069 7.44689L320.395 22.9135L314.446 31.997L314.563 32.2916C317.578 39.6997 319.321 47.5404 319.723 55.4996L302.144 56.6617L297.976 60.6879L306.043 61.9645L311.085 65.2542Z" fill="#7876FE"/>
<path d="M77.9434 149.494C77.1134 151.388 77.0244 153.513 77.6932 155.467C78.362 157.421 79.7422 159.069 81.5733 160.1C82.4288 160.609 83.3866 160.933 84.3818 161.051C85.377 161.168 86.3866 161.077 87.3424 160.782C88.2982 160.487 89.1779 159.996 89.9221 159.342C90.6664 158.688 91.2578 157.886 91.6565 156.99C92.4803 155.095 92.5643 152.973 91.8926 151.023C91.2209 149.072 89.8398 147.428 88.0098 146.401C87.1566 145.891 86.2011 145.566 85.2079 145.447C84.2147 145.329 83.2068 145.419 82.2525 145.712C81.2982 146.006 80.4196 146.495 79.6762 147.147C78.9328 147.8 78.3419 148.6 77.9434 149.494Z" fill="#EBE8FF"/>
<path d="M87.5731 161.098C88.5497 160.772 89.445 160.249 90.2006 159.564C90.9563 158.878 91.5555 158.046 91.9593 157.121C92.8219 155.136 92.9103 152.913 92.2077 150.869C91.5052 148.826 90.0602 147.103 88.1445 146.024C87.2275 145.499 86.2068 145.169 85.1495 145.057C84.0922 144.944 83.0224 145.05 82.0105 145.369C81.0097 145.681 80.0886 146.196 79.309 146.882C78.5294 147.568 77.9092 148.408 77.4899 149.347C76.6433 151.332 76.5707 153.551 77.2855 155.585C78.0004 157.62 79.4536 159.33 81.3719 160.394C82.5433 161.05 83.8691 161.4 85.2204 161.409C86.017 161.435 86.8124 161.33 87.5731 161.098ZM87.8084 146.744C89.5528 147.721 90.8698 149.285 91.5107 151.143C92.1516 153 92.0721 155.022 91.2871 156.826C90.916 157.667 90.3639 158.421 89.6681 159.036C88.9723 159.652 88.149 160.115 87.2538 160.394C86.3497 160.678 85.394 160.773 84.4497 160.671C83.5053 160.57 82.5938 160.275 81.7752 159.805C80.0325 158.823 78.7186 157.254 78.0809 155.394C77.4433 153.534 77.526 151.511 78.3133 149.707C78.8119 148.578 79.6328 147.612 80.6785 146.925C81.7242 146.237 82.9506 145.856 84.212 145.828C85.4512 145.822 86.6696 146.138 87.7412 146.744H87.8084Z" fill="#7876FE"/>
<path d="M246.232 93.0449C246.232 93.0449 263.391 58.9203 292.262 64.796C311.084 68.593 311.521 91.5228 311.521 91.5228L330.461 73.143L348.409 72.0137C348.409 72.0137 348.409 22.5207 301.892 16.8905C255.375 11.2603 216.873 75.9253 216.873 75.9253L229.595 87.9222L246.232 93.0449Z" fill="#F1F3FF"/>
<path d="M246.552 93.765L246.787 93.3067C246.955 92.963 264.063 59.7058 292.162 65.3687C310.244 69.0349 310.95 91.31 310.95 91.5555V92.963L330.73 73.7321L349.031 72.521V72.0136C349.031 71.5062 348.409 21.9314 301.976 16.3667C255.543 10.802 216.756 75.0415 216.37 75.6961L216.117 76.1053L229.411 88.3804L246.552 93.765ZM285.725 63.5193C262.45 63.5193 247.964 88.5768 245.93 92.3247L229.915 87.4147L217.664 75.8434C221.025 70.4097 258.181 12.2423 301.808 17.5124C344.544 22.6843 347.569 66.007 347.788 71.5226L330.192 72.6847L330.024 72.832L312.043 90.2789C311.572 85.2543 308.682 67.6273 292.38 64.3212C290.197 63.8272 287.966 63.5584 285.725 63.5193Z" fill="#7876FE"/>
<path d="M249.527 187.399L252.451 160.001C252.451 160.001 276.163 173.095 299.506 137.89C311.236 120.246 311.085 97.9221 311.085 97.9221L333.234 78.7731L349.048 77.3C349.048 77.3 354.09 129.952 319.823 169.788C285.557 209.625 252.904 214.355 229.343 205.206L249.527 187.399Z" fill="#E6E7FE"/>
<path d="M250.585 209.756C268.852 209.756 293.338 201.573 320.277 170.181C354.308 130.607 349.737 77.7748 349.653 77.2511V76.6455L333.015 78.2822L310.395 97.6604V97.9223C310.395 98.1514 310.395 120.279 299.001 137.563C276.247 171.851 252.971 159.609 252.753 159.478L251.929 159.019L248.904 187.105L228.166 205.403L229.074 205.763C235.919 208.411 243.219 209.766 250.585 209.756ZM348.476 77.9548C348.88 83.896 351.064 132.489 319.352 169.412C280.835 214.404 247.459 211.246 230.418 204.993L250.047 187.694L252.904 160.901C257.341 162.784 278.986 169.772 299.959 138.201C311 121.687 311.605 100.836 311.622 98.2005L333.469 79.3624L348.476 77.9548Z" fill="#7876FE"/>
<path d="M290.615 38.6909C289.788 40.5892 289.704 42.7168 290.379 44.6712C291.055 46.6256 292.442 48.2712 294.279 49.2966C295.134 49.8056 296.092 50.1299 297.087 50.2477C298.083 50.3654 299.092 50.2738 300.048 49.979C301.004 49.6843 301.883 49.1932 302.628 48.539C303.372 47.8848 303.963 47.0827 304.362 46.1869C305.186 44.2925 305.27 42.1701 304.598 40.2196C303.926 38.2691 302.545 36.6252 300.715 35.5976C299.861 35.0825 298.903 34.7527 297.906 34.6309C296.909 34.509 295.896 34.5979 294.938 34.8915C293.979 35.185 293.097 35.6764 292.351 36.3321C291.605 36.9877 291.013 37.7923 290.615 38.6909Z" fill="#7876FE"/>
<path d="M292.01 39.7221C291.18 41.6166 291.091 43.7414 291.76 45.6954C292.429 47.6493 293.809 49.2972 295.64 50.3278C296.495 50.8368 297.453 51.1611 298.448 51.2789C299.444 51.3966 300.453 51.305 301.409 51.0102C302.365 50.7155 303.244 50.2244 303.989 49.5702C304.733 48.916 305.324 48.114 305.723 47.2181C306.548 45.3256 306.635 43.2046 305.966 41.2543C305.298 39.304 303.92 37.659 302.093 36.6288C301.239 36.1166 300.282 35.7892 299.287 35.6689C298.292 35.5486 297.282 35.6382 296.326 35.9316C295.369 36.225 294.489 36.7154 293.744 37.3694C293 38.0235 292.408 38.8258 292.01 39.7221Z" fill="#EBE8FF"/>
<path d="M301.572 51.3262C302.553 51.0225 303.458 50.5219 304.228 49.8566C304.998 49.1913 305.616 48.3761 306.042 47.4636C306.905 45.479 306.993 43.2559 306.291 41.2123C305.588 39.1688 304.143 37.4456 302.227 36.367C301.313 35.8436 300.296 35.5135 299.242 35.3978C298.188 35.2822 297.121 35.3838 296.11 35.6959C295.126 36.0134 294.221 36.5285 293.454 37.2079C292.687 37.8874 292.075 38.716 291.657 39.6403C290.799 41.622 290.709 43.8399 291.405 45.8812C292.1 47.9224 293.534 49.6481 295.438 50.737C296.616 51.3929 297.947 51.7423 299.303 51.7517C300.078 51.7241 300.843 51.5806 301.572 51.3262ZM292.38 39.8695C292.749 39.0442 293.294 38.3042 293.977 37.6978C294.66 37.0915 295.468 36.6324 296.346 36.3506C297.251 36.0686 298.207 35.9768 299.152 36.0812C300.096 36.1856 301.007 36.4838 301.824 36.9562C303.563 37.9378 304.874 39.5037 305.511 41.36C306.149 43.2162 306.069 45.2353 305.286 47.0381C304.919 47.865 304.376 48.6065 303.692 49.2132C303.008 49.8199 302.2 50.2779 301.32 50.5569C300.416 50.8413 299.46 50.9359 298.516 50.8343C297.572 50.7328 296.66 50.4374 295.841 49.9677C294.101 48.9831 292.79 47.4143 292.152 45.5553C291.515 43.6962 291.596 41.6747 292.38 39.8695Z" fill="#7876FE"/>
<path d="M159.473 325.072V295.672L176.314 285.949V290.695L164.566 297.478V304.912L175.223 298.759V303.337L164.566 309.49V317.386L176.314 310.603V315.349L159.473 325.072ZM188.723 308.689C186.88 309.753 185.231 310.341 183.776 310.453C182.345 310.551 181.206 310.145 180.357 309.235C179.508 308.325 179.072 306.883 179.048 304.909L184.431 301.801C184.455 302.627 184.637 303.278 184.976 303.754C185.34 304.216 185.837 304.461 186.468 304.489C187.098 304.517 187.838 304.286 188.686 303.796C189.438 303.362 190.081 302.851 190.614 302.263C191.172 301.661 191.596 301.024 191.887 300.352C192.203 299.666 192.36 298.959 192.36 298.231C192.36 297.447 192.178 296.88 191.815 296.53C191.475 296.166 191.002 295.963 190.396 295.921C189.79 295.879 189.087 295.935 188.286 296.089C187.51 296.201 186.674 296.348 185.777 296.53C183.764 296.936 182.224 296.817 181.157 296.173C180.115 295.515 179.593 294.136 179.593 292.036C179.593 290.244 179.957 288.508 180.684 286.828C181.436 285.134 182.467 283.573 183.776 282.145C185.11 280.703 186.613 279.499 188.286 278.533C190.008 277.539 191.524 277.014 192.833 276.958C194.142 276.874 195.173 277.259 195.925 278.113C196.701 278.953 197.113 280.241 197.161 281.977L191.705 285.127C191.681 284.497 191.524 284 191.233 283.636C190.942 283.244 190.541 283.027 190.032 282.985C189.523 282.943 188.917 283.125 188.214 283.531C187.607 283.853 187.05 284.287 186.54 284.833C186.055 285.337 185.667 285.911 185.376 286.555C185.086 287.171 184.94 287.829 184.94 288.529C184.94 289.229 185.086 289.733 185.376 290.041C185.667 290.321 186.068 290.482 186.577 290.524C187.11 290.552 187.729 290.517 188.432 290.419C189.135 290.293 189.899 290.146 190.723 289.978C192.009 289.74 193.185 289.663 194.252 289.747C195.318 289.803 196.167 290.195 196.798 290.923C197.452 291.637 197.78 292.89 197.78 294.682C197.78 296.25 197.428 297.909 196.725 299.659C196.022 301.381 195.003 303.033 193.67 304.615C192.336 306.197 190.687 307.555 188.723 308.689ZM209.915 296.453C208.072 297.517 206.423 298.105 204.968 298.217C203.538 298.315 202.398 297.909 201.549 296.999C200.701 296.089 200.264 294.647 200.24 292.673L205.623 289.565C205.647 290.391 205.829 291.042 206.169 291.518C206.532 291.98 207.029 292.225 207.66 292.253C208.29 292.281 209.03 292.05 209.879 291.56C210.63 291.126 211.273 290.615 211.806 290.027C212.364 289.425 212.789 288.788 213.08 288.116C213.395 287.43 213.552 286.723 213.552 285.995C213.552 285.211 213.371 284.644 213.007 284.294C212.667 283.93 212.194 283.727 211.588 283.685C210.982 283.643 210.279 283.699 209.479 283.853C208.703 283.965 207.866 284.112 206.969 284.294C204.956 284.7 203.416 284.581 202.349 283.937C201.307 283.279 200.785 281.9 200.785 279.8C200.785 278.008 201.149 276.272 201.877 274.592C202.628 272.898 203.659 271.337 204.968 269.909C206.302 268.467 207.805 267.263 209.479 266.297C211.2 265.303 212.716 264.778 214.025 264.722C215.335 264.638 216.365 265.023 217.117 265.877C217.893 266.717 218.305 268.005 218.354 269.741L212.898 272.891C212.873 272.261 212.716 271.764 212.425 271.4C212.134 271.008 211.734 270.791 211.225 270.749C210.715 270.707 210.109 270.889 209.406 271.295C208.8 271.617 208.242 272.051 207.733 272.597C207.248 273.101 206.86 273.675 206.569 274.319C206.278 274.935 206.132 275.593 206.132 276.293C206.132 276.993 206.278 277.497 206.569 277.805C206.86 278.085 207.26 278.246 207.769 278.288C208.303 278.316 208.921 278.281 209.624 278.183C210.327 278.057 211.091 277.91 211.916 277.742C213.201 277.504 214.377 277.427 215.444 277.511C216.511 277.567 217.359 277.959 217.99 278.687C218.645 279.401 218.972 280.654 218.972 282.446C218.972 284.014 218.62 285.673 217.917 287.423C217.214 289.145 216.195 290.797 214.862 292.379C213.528 293.961 211.879 295.319 209.915 296.453ZM222.269 288.817V259.417L239.109 249.694V254.44L227.361 261.223V268.657L238.018 262.504V267.082L227.361 273.235V281.131L239.109 274.348V279.094L222.269 288.817ZM242.679 277.033V247.633L247.772 244.693L259.302 257.986V238.036L264.394 235.096V264.496L259.302 267.436L247.772 254.185V274.093L242.679 277.033ZM274.418 258.709V234.055L266.998 238.339V233.593L286.894 222.106V226.852L279.474 231.136V255.79L274.418 258.709ZM289.469 250.019V220.619L294.561 217.679V247.079L289.469 250.019ZM296.982 245.682L306.257 210.927L312.04 207.588L321.315 231.633L315.932 234.741L309.13 215.946L302.292 242.616L296.982 245.682ZM301.055 236.736L302.401 231.381L315.496 223.821L316.805 227.643L301.055 236.736ZM323.719 230.245V200.845L328.811 197.905V222.727L339.941 216.301V220.879L323.719 230.245ZM351.015 214.99C349.172 216.054 347.523 216.642 346.068 216.754C344.637 216.852 343.498 216.446 342.649 215.536C341.8 214.626 341.364 213.184 341.339 211.21L346.723 208.102C346.747 208.928 346.929 209.579 347.268 210.055C347.632 210.517 348.129 210.762 348.759 210.79C349.39 210.818 350.13 210.587 350.978 210.097C351.73 209.663 352.373 209.152 352.906 208.564C353.464 207.962 353.888 207.325 354.179 206.653C354.494 205.967 354.652 205.26 354.652 204.532C354.652 203.748 354.47 203.181 354.106 202.831C353.767 202.467 353.294 202.264 352.688 202.222C352.082 202.18 351.378 202.236 350.578 202.39C349.802 202.502 348.966 202.649 348.068 202.831C346.056 203.237 344.516 203.118 343.449 202.474C342.406 201.816 341.885 200.437 341.885 198.337C341.885 196.545 342.249 194.809 342.976 193.129C343.728 191.435 344.758 189.874 346.068 188.446C347.402 187.004 348.905 185.8 350.578 184.834C352.3 183.84 353.815 183.315 355.125 183.259C356.434 183.175 357.465 183.56 358.216 184.414C358.992 185.254 359.405 186.542 359.453 188.278L353.997 191.428C353.973 190.798 353.815 190.301 353.524 189.937C353.233 189.545 352.833 189.328 352.324 189.286C351.815 189.244 351.209 189.426 350.505 189.832C349.899 190.154 349.341 190.588 348.832 191.134C348.347 191.638 347.959 192.212 347.668 192.856C347.377 193.472 347.232 194.13 347.232 194.83C347.232 195.53 347.377 196.034 347.668 196.342C347.959 196.622 348.359 196.783 348.869 196.825C349.402 196.853 350.02 196.818 350.724 196.72C351.427 196.594 352.191 196.447 353.015 196.279C354.3 196.041 355.476 195.964 356.543 196.048C357.61 196.104 358.459 196.496 359.089 197.224C359.744 197.938 360.072 199.191 360.072 200.983C360.072 202.551 359.72 204.21 359.017 205.96C358.313 207.682 357.295 209.334 355.961 210.916C354.628 212.498 352.979 213.856 351.015 214.99Z" fill="#7876FE"/>
<path d="M163.473 326.072V296.672L180.314 286.949V291.695L168.566 298.478V305.912L179.223 299.759V304.337L168.566 310.49V318.386L180.314 311.603V316.349L163.473 326.072ZM192.723 309.689C190.88 310.753 189.231 311.341 187.776 311.453C186.345 311.551 185.206 311.145 184.357 310.235C183.508 309.325 183.072 307.883 183.048 305.909L188.431 302.801C188.455 303.627 188.637 304.278 188.976 304.754C189.34 305.216 189.837 305.461 190.468 305.489C191.098 305.517 191.838 305.286 192.686 304.796C193.438 304.362 194.081 303.851 194.614 303.263C195.172 302.661 195.596 302.024 195.887 301.352C196.203 300.666 196.36 299.959 196.36 299.231C196.36 298.447 196.178 297.88 195.815 297.53C195.475 297.166 195.002 296.963 194.396 296.921C193.79 296.879 193.087 296.935 192.286 297.089C191.51 297.201 190.674 297.348 189.777 297.53C187.764 297.936 186.224 297.817 185.157 297.173C184.115 296.515 183.593 295.136 183.593 293.036C183.593 291.244 183.957 289.508 184.684 287.828C185.436 286.134 186.467 284.573 187.776 283.145C189.11 281.703 190.613 280.499 192.286 279.533C194.008 278.539 195.524 278.014 196.833 277.958C198.142 277.874 199.173 278.259 199.925 279.113C200.701 279.953 201.113 281.241 201.161 282.977L195.705 286.127C195.681 285.497 195.524 285 195.233 284.636C194.942 284.244 194.541 284.027 194.032 283.985C193.523 283.943 192.917 284.125 192.214 284.531C191.607 284.853 191.05 285.287 190.54 285.833C190.055 286.337 189.667 286.911 189.376 287.555C189.086 288.171 188.94 288.829 188.94 289.529C188.94 290.229 189.086 290.733 189.376 291.041C189.667 291.321 190.068 291.482 190.577 291.524C191.11 291.552 191.729 291.517 192.432 291.419C193.135 291.293 193.899 291.146 194.723 290.978C196.009 290.74 197.185 290.663 198.252 290.747C199.318 290.803 200.167 291.195 200.798 291.923C201.452 292.637 201.78 293.89 201.78 295.682C201.78 297.25 201.428 298.909 200.725 300.659C200.022 302.381 199.003 304.033 197.67 305.615C196.336 307.197 194.687 308.555 192.723 309.689ZM213.915 297.453C212.072 298.517 210.423 299.105 208.968 299.217C207.538 299.315 206.398 298.909 205.549 297.999C204.701 297.089 204.264 295.647 204.24 293.673L209.623 290.565C209.647 291.391 209.829 292.042 210.169 292.518C210.532 292.98 211.029 293.225 211.66 293.253C212.29 293.281 213.03 293.05 213.879 292.56C214.63 292.126 215.273 291.615 215.806 291.027C216.364 290.425 216.789 289.788 217.08 289.116C217.395 288.43 217.552 287.723 217.552 286.995C217.552 286.211 217.371 285.644 217.007 285.294C216.667 284.93 216.194 284.727 215.588 284.685C214.982 284.643 214.279 284.699 213.479 284.853C212.703 284.965 211.866 285.112 210.969 285.294C208.956 285.7 207.416 285.581 206.349 284.937C205.307 284.279 204.785 282.9 204.785 280.8C204.785 279.008 205.149 277.272 205.877 275.592C206.628 273.898 207.659 272.337 208.968 270.909C210.302 269.467 211.805 268.263 213.479 267.297C215.2 266.303 216.716 265.778 218.025 265.722C219.335 265.638 220.365 266.023 221.117 266.877C221.893 267.717 222.305 269.005 222.354 270.741L216.898 273.891C216.873 273.261 216.716 272.764 216.425 272.4C216.134 272.008 215.734 271.791 215.225 271.749C214.715 271.707 214.109 271.889 213.406 272.295C212.8 272.617 212.242 273.051 211.733 273.597C211.248 274.101 210.86 274.675 210.569 275.319C210.278 275.935 210.132 276.593 210.132 277.293C210.132 277.993 210.278 278.497 210.569 278.805C210.86 279.085 211.26 279.246 211.769 279.288C212.303 279.316 212.921 279.281 213.624 279.183C214.327 279.057 215.091 278.91 215.916 278.742C217.201 278.504 218.377 278.427 219.444 278.511C220.511 278.567 221.359 278.959 221.99 279.687C222.645 280.401 222.972 281.654 222.972 283.446C222.972 285.014 222.62 286.673 221.917 288.423C221.214 290.145 220.195 291.797 218.862 293.379C217.528 294.961 215.879 296.319 213.915 297.453ZM226.269 289.817V260.417L243.109 250.694V255.44L231.361 262.223V269.657L242.018 263.504V268.082L231.361 274.235V282.131L243.109 275.348V280.094L226.269 289.817ZM246.679 278.033V248.633L251.772 245.693L263.302 258.986V239.036L268.394 236.096V265.496L263.302 268.436L251.772 255.185V275.093L246.679 278.033ZM278.418 259.709V235.055L270.998 239.339V234.593L290.894 223.106V227.852L283.474 232.136V256.79L278.418 259.709ZM293.469 251.019V221.619L298.561 218.679V248.079L293.469 251.019ZM300.982 246.682L310.257 211.927L316.04 208.588L325.315 232.633L319.932 235.741L313.13 216.946L306.292 243.616L300.982 246.682ZM305.055 237.736L306.401 232.381L319.496 224.821L320.805 228.643L305.055 237.736ZM327.719 231.245V201.845L332.811 198.905V223.727L343.941 217.301V221.879L327.719 231.245ZM355.015 215.99C353.172 217.054 351.523 217.642 350.068 217.754C348.637 217.852 347.498 217.446 346.649 216.536C345.8 215.626 345.364 214.184 345.339 212.21L350.723 209.102C350.747 209.928 350.929 210.579 351.268 211.055C351.632 211.517 352.129 211.762 352.759 211.79C353.39 211.818 354.13 211.587 354.978 211.097C355.73 210.663 356.373 210.152 356.906 209.564C357.464 208.962 357.888 208.325 358.179 207.653C358.494 206.967 358.652 206.26 358.652 205.532C358.652 204.748 358.47 204.181 358.106 203.831C357.767 203.467 357.294 203.264 356.688 203.222C356.082 203.18 355.378 203.236 354.578 203.39C353.802 203.502 352.966 203.649 352.068 203.831C350.056 204.237 348.516 204.118 347.449 203.474C346.406 202.816 345.885 201.437 345.885 199.337C345.885 197.545 346.249 195.809 346.976 194.129C347.728 192.435 348.758 190.874 350.068 189.446C351.402 188.004 352.905 186.8 354.578 185.834C356.3 184.84 357.815 184.315 359.125 184.259C360.434 184.175 361.465 184.56 362.216 185.414C362.992 186.254 363.405 187.542 363.453 189.278L357.997 192.428C357.973 191.798 357.815 191.301 357.524 190.937C357.233 190.545 356.833 190.328 356.324 190.286C355.815 190.244 355.209 190.426 354.505 190.832C353.899 191.154 353.341 191.588 352.832 192.134C352.347 192.638 351.959 193.212 351.668 193.856C351.377 194.472 351.232 195.13 351.232 195.83C351.232 196.53 351.377 197.034 351.668 197.342C351.959 197.622 352.359 197.783 352.869 197.825C353.402 197.853 354.02 197.818 354.724 197.72C355.427 197.594 356.191 197.447 357.015 197.279C358.3 197.041 359.476 196.964 360.543 197.048C361.61 197.104 362.459 197.496 363.089 198.224C363.744 198.938 364.072 200.191 364.072 201.983C364.072 203.551 363.72 205.21 363.017 206.96C362.313 208.682 361.295 210.334 359.961 211.916C358.628 213.498 356.979 214.856 355.015 215.99Z" fill="#DADCFF"/>
</g>
<defs>
<linearGradient id="paint0_linear_642_30" x1="90.4466" y1="396.828" x2="5.93973e-05" y2="396.828" gradientUnits="userSpaceOnUse">
<stop stop-color="#2A3B67"/>
<stop offset="1" stop-color="#4861B0"/>
</linearGradient>
<linearGradient id="paint1_linear_642_30" x1="211.092" y1="389.283" x2="136.779" y2="389.283" gradientUnits="userSpaceOnUse">
<stop stop-color="#2A3B67"/>
<stop offset="1" stop-color="#4861B0"/>
</linearGradient>
<linearGradient id="paint2_linear_642_30" x1="422" y1="347.188" x2="272.819" y2="347.188" gradientUnits="userSpaceOnUse">
<stop stop-color="#2A3B67"/>
<stop offset="1" stop-color="#4861B0"/>
</linearGradient>
<clipPath id="clip0_642_30">
<rect width="422" height="422" fill="white" transform="matrix(-1 0 0 1 422 0)"/>
</clipPath>
</defs>
</svg>
