<svg width="659" height="601" viewBox="0 0 659 601" fill="none" xmlns="http://www.w3.org/2000/svg">
<g clip-path="url(#clip0_654_7960)">
<path d="M36.3862 359.412L114.76 485.958L177.459 495.371L206.719 539.296L366.602 583.221L446.021 535.112L504.54 460.858L576.644 410.658L587.094 359.412H36.3862Z" fill="#DFE8FC"/>
<path d="M114.76 485.958L159.695 408.566L177.459 495.371L114.76 485.958Z" fill="#DFE8FC"/>
<path d="M114.76 485.958L159.695 408.566L36.3862 359.412L114.76 485.958Z" fill="#DFE8FC"/>
<path d="M36.3862 359.412L129.39 364.641L159.695 408.566L36.3862 359.412Z" fill="#D8E3FF"/>
<path d="M159.695 408.566L177.46 495.371L206.719 539.296L159.695 408.566Z" fill="#D8E3FF"/>
<path d="M159.695 408.566L206.719 539.296L291.363 436.804L159.695 408.566Z" fill="#D8E3FF"/>
<path d="M291.363 436.804L333.162 397.062L459.606 379.283L291.363 436.804Z" fill="#DFE8FC"/>
<path d="M207.764 536.158L292.408 433.666L367.647 580.083L207.764 536.158Z" fill="#D8E3FF"/>
<path d="M291.363 436.804L366.602 583.221L446.021 535.112L291.363 436.804Z" fill="#DFE8FC"/>
<path d="M446.021 535.112C446.021 531.975 454.381 379.283 454.381 379.283L505.585 457.721L446.021 535.112Z" fill="#DFE8FC"/>
<path d="M291.363 436.804L454.381 379.283L446.021 535.112L291.363 436.804Z" fill="#D8E3FF"/>
<path d="M366.602 582.175L407.357 511.058L446.021 535.112L366.602 582.175Z" fill="#DFE8FC"/>
<path d="M407.356 511.058L448.111 494.325L446.021 535.112L407.356 511.058Z" fill="#DFE8FC"/>
<path d="M206.719 539.296L308.083 601L366.602 583.221L206.719 539.296Z" fill="#DFE8FC"/>
<path d="M576.644 410.658L587.094 359.412L536.935 384.512L576.644 410.658Z" fill="#DFE8FC"/>
<path d="M505.585 457.721L536.935 384.512L454.381 379.283L505.585 457.721Z" fill="#DFE8FC"/>
<path d="M36.3862 359.412L147.155 382.42L327.938 402.291L454.35 379.095L536.935 384.512L587.094 359.412L502.45 319.67L340.477 297.708L155.515 309.212L36.3862 359.412Z" fill="#C0B4FB"/>
<path d="M416.939 457.02L442.615 428.887L503.213 437.023L573.802 465.69L629.678 461.036L659 481.691L641.946 508.088L559.371 531.567L470.171 527.216L458.425 496.678L397.921 491.417L361.827 463.096L416.939 457.02Z" fill="#ECF9FF"/>
<path d="M416.939 457.02L503.214 437.023L442.615 428.887L416.939 457.02Z" fill="white"/>
<path d="M361.827 463.096L416.939 457.02L442.615 428.887L361.827 463.096Z" fill="#D2E5ED"/>
<path d="M361.827 463.096L416.939 457.02L397.921 491.417L361.827 463.096Z" fill="#DFE8FC"/>
<path d="M416.939 457.02L479.618 462.939L503.214 437.023L416.939 457.02Z" fill="#DFE8FC"/>
<path d="M465.803 457.626L503.213 437.023L558.451 479.84L465.803 457.626Z" fill="white"/>
<path d="M556.268 479.181L573.802 465.69L629.678 461.036L556.268 479.181Z" fill="white"/>
<path d="M458.425 496.678L556.267 479.181L580.678 501.416L458.425 496.678Z" fill="white"/>
<path d="M416.939 457.02L465.803 457.626L503.214 437.023L416.939 457.02Z" fill="#DFE8FC"/>
<path d="M397.92 491.417L416.939 457.02L465.803 457.626L558.451 479.84L397.92 491.417Z" fill="#D8E3FF"/>
<path d="M397.92 491.417L554.115 479.254L458.425 496.678L397.92 491.417Z" fill="#DFE8FC"/>
<path d="M458.425 496.678L470.17 527.216L580.678 501.416L458.425 496.678Z" fill="#D8E3FF"/>
<path d="M470.171 527.216L580.678 501.416L559.371 531.567L470.171 527.216Z" fill="#DFE8FC"/>
<path d="M559.371 531.567L580.678 501.416L641.946 508.088L559.371 531.567Z" fill="#D8E3FF"/>
<path d="M580.678 501.416L629.678 461.036L556.268 479.181L580.678 501.416Z" fill="#D8E3FF"/>
<path d="M583.301 500.757L580.678 501.416L641.945 508.088L659 481.691L583.301 500.757Z" fill="#DFE8FC"/>
<g opacity="0.6">
<path d="M222.321 60.0414L199.06 33.9478L143.393 40.7562L78.3322 66.2746L27.1174 61.3905L0 80.0273L15.3509 104.427L90.8407 126.86L172.726 123.848L183.824 95.9659L239.386 91.8035L272.804 66.2119L222.321 60.0414Z" fill="#E0D9FF"/>
<path d="M222.321 60.0414L143.393 40.7562L199.06 33.9478L222.321 60.0414Z" fill="white"/>
<path d="M272.804 66.2119L222.321 60.0414L199.06 33.9478L272.804 66.2119Z" fill="#E1DBFF"/>
<path d="M272.804 66.2118L222.321 60.0414L239.385 91.8034L272.804 66.2118Z" fill="#DFE8FC"/>
<path d="M222.321 60.0414L164.753 64.779L143.393 40.7562L222.321 60.0414Z" fill="#DFE8FC"/>
<path d="M177.491 60.0623L143.393 40.7562L92.2617 79.4207L177.491 60.0623Z" fill="white"/>
<path d="M94.2576 78.8456L78.332 66.2746L27.1172 61.3906L94.2576 78.8456Z" fill="white"/>
<path d="M183.824 95.9659L94.2579 78.8456L71.6235 98.9674L183.824 95.9659Z" fill="white"/>
<path d="M222.321 60.0414L177.491 60.0623L143.393 40.7562L222.321 60.0414Z" fill="#DFE8FC"/>
<path d="M239.385 91.8034L222.321 60.0414L177.491 60.0623L92.2617 79.4208L239.385 91.8034Z" fill="#D8E3FF"/>
<path d="M239.386 91.8035L96.2329 78.9292L183.824 95.9659L239.386 91.8035Z" fill="#DFE8FC"/>
<path d="M183.824 95.9659L172.726 123.848L71.6235 98.9674L183.824 95.9659Z" fill="#D8E3FF"/>
<path d="M172.726 123.848L71.6235 98.9674L90.8408 126.86L172.726 123.848Z" fill="#DFE8FC"/>
<path d="M90.8409 126.86L71.6236 98.9674L15.3511 104.427L90.8409 126.86Z" fill="#D8E3FF"/>
<path d="M71.6232 98.9674L27.1172 61.3906L94.2576 78.8456L71.6232 98.9674Z" fill="#D8E3FF"/>
<path d="M69.2304 98.3399L71.6234 98.9674L15.3509 104.427L0 80.0273L69.2304 98.3399Z" fill="#DFE8FC"/>
</g>
<path d="M429.229 57.9393L525.158 74.5053L586.687 53.1703L646.419 39.4698L557.595 0L461.174 21.7429L380.407 17.2877L429.229 57.9393Z" fill="#D8E3FF"/>
<path d="M380.407 17.2877L461.174 21.7429L462.564 45.5984L380.407 17.2877Z" fill="white"/>
<path d="M489.347 14.443L512.002 38.5809L555.839 1.49555L557.595 0L489.347 14.443Z" fill="white"/>
<path d="M462.564 45.5984L461.174 21.7429L489.347 14.443L512.002 38.5809L462.564 45.5984Z" fill="#DFE8FC"/>
<path d="M380.407 17.2877L429.229 57.9393L462.564 45.5984L380.407 17.2877Z" fill="#D8E3FF"/>
<path d="M429.229 57.9393L462.564 45.5984L525.158 74.5054L429.229 57.9393Z" fill="#DFE8FC"/>
<path d="M569.581 59.7591L550.437 27.1499L646.419 39.4699L569.581 59.7591Z" fill="#DFE8FC"/>
<path d="M550.437 27.1499L557.595 0L646.419 39.4698L550.437 27.1499Z" fill="#DFE8FC"/>
<path d="M512.002 38.5809L550.437 27.1499L569.581 59.7591L512.002 38.5809Z" fill="#DFE8FC"/>
<path d="M462.563 45.5984L512.002 38.5809L569.581 59.759L462.563 45.5984Z" fill="#DFE8FC"/>
<path d="M525.158 74.5053L518.627 53.1389L569.581 59.7591L525.158 74.5053Z" fill="#DFE8FC"/>
<path d="M147.155 382.42L405.267 305.029L462.741 313.395L279.869 397.062L147.155 382.42Z" fill="#B19FFF"/>
<path d="M162.83 383.466L414.672 306.074L452.291 312.349L270.464 396.016L162.83 383.466Z" fill="#DCD5FF"/>
<path d="M339.924 325.14L289.796 315.403V179.852L339.924 187.341V325.14Z" fill="#AAA5FF"/>
<path d="M339.924 325.945L382.58 313.207V177.07L339.924 187.341V325.945Z" fill="#968FFF"/>
<path d="M289.796 179.852L339.924 187.341L382.58 177.07L336.183 170.639L289.796 179.852Z" fill="#C7C5FF"/>
<path d="M311.469 189.16L304.269 187.445V200.654L311.469 202.296V189.16Z" fill="#947DFF"/>
<path d="M321.47 191.168L314.27 189.453V202.662L321.47 204.294V191.168Z" fill="#947DFF"/>
<path d="M311.469 210.976L304.269 209.261V222.47L311.469 224.112V210.976Z" fill="#947DFF"/>
<path d="M321.47 212.984L314.27 211.259V224.468L321.47 226.11V212.984Z" fill="#947DFF"/>
<path d="M311.469 232.793L304.269 231.077V244.286L311.469 245.928V232.793Z" fill="#947DFF"/>
<path d="M321.47 234.79L314.27 233.075V246.284L321.47 247.926V234.79Z" fill="#947DFF"/>
<path d="M311.469 254.609L304.269 252.894V266.102L311.469 267.734V254.609Z" fill="#502BFF"/>
<path d="M321.47 256.606L314.27 254.891V268.1L321.47 269.742V256.606Z" fill="#502BFF"/>
<path d="M311.469 276.425L304.269 274.71V287.919L311.469 289.55V276.425Z" fill="#502BFF"/>
<path d="M321.47 278.422L314.27 276.707V289.916L321.47 291.558V278.422Z" fill="#502BFF"/>
<path d="M353.174 191.116L360.165 189.453V202.275L353.174 203.865V191.116Z" fill="#947DFF"/>
<path d="M343.466 193.061L350.457 191.398V204.22L343.466 205.81V193.061Z" fill="#947DFF"/>
<path d="M353.174 212.294L360.165 210.631V223.453L353.174 225.043V212.294Z" fill="#947DFF"/>
<path d="M343.466 214.239L350.457 212.577V225.398L343.466 226.988V214.239Z" fill="#947DFF"/>
<path d="M353.174 233.472L360.165 231.809V244.631L353.174 246.221V233.472Z" fill="#947DFF"/>
<path d="M343.466 235.418L350.457 233.755V246.577L343.466 248.166V235.418Z" fill="#947DFF"/>
<path d="M353.174 254.661L360.165 252.988V265.82L353.174 267.41V254.661Z" fill="#947DFF"/>
<path d="M343.466 256.596L350.457 254.933V267.755L343.466 269.345V256.596Z" fill="#947DFF"/>
<path d="M353.174 275.839L360.165 274.176V286.998L353.174 288.588V275.839Z" fill="#947DFF"/>
<path d="M343.466 277.784L350.457 276.111V288.943L343.466 290.533V277.784Z" fill="#947DFF"/>
<path d="M372.067 186.713L379.058 185.05V197.872L372.067 199.462V186.713Z" fill="#947DFF"/>
<path d="M362.37 188.658L369.351 186.985V199.817L362.37 201.407V188.658Z" fill="#947DFF"/>
<path d="M372.067 207.891L379.058 206.228V219.05L372.067 220.64V207.891Z" fill="#947DFF"/>
<path d="M362.37 209.836L369.351 208.174V220.996L362.37 222.585V209.836Z" fill="#947DFF"/>
<path d="M372.067 229.069L379.058 227.406V240.228L372.067 241.818V229.069Z" fill="#502BFF"/>
<path d="M362.37 231.015L369.351 229.352V242.174L362.37 243.763V231.015Z" fill="#947DFF"/>
<path d="M372.067 250.258L379.058 248.585V261.417L372.067 263.007V250.258Z" fill="#502BFF"/>
<path d="M362.37 252.193L369.351 250.53V263.352L362.37 264.942V252.193Z" fill="#502BFF"/>
<path d="M372.067 271.436L379.058 269.763V282.595L372.067 284.185V271.436Z" fill="#502BFF"/>
<path d="M362.37 273.381L369.351 271.708V284.541L362.37 286.12V273.381Z" fill="#502BFF"/>
<path d="M353.697 294.141L360.688 292.478V305.3L353.697 306.89V294.141Z" fill="#947DFF"/>
<path d="M343.989 296.087L350.98 294.413V307.246L343.989 308.835V296.087Z" fill="#947DFF"/>
<path d="M372.59 289.738L379.581 288.065V300.897L372.59 302.487V289.738Z" fill="#502BFF"/>
<path d="M362.893 291.684L369.873 290.01V302.843L362.893 304.422V291.684Z" fill="#502BFF"/>
<path d="M313.308 176.391L336.82 181.097V155.474L313.308 176.391Z" fill="#B8B4FF"/>
<path d="M336.82 155.474V181.097L356.153 175.868L336.82 155.474Z" fill="#A9A4FF"/>
<g opacity="0.7">
<path d="M430.023 308.323L206.636 388.936C208.621 389.093 210.565 389.438 212.32 389.909C212.477 389.95 212.624 390.013 212.78 390.055L435.718 309.599C433.753 309.505 431.82 309.076 430.023 308.323Z" fill="#C0B3FB"/>
</g>
<path opacity="0.1" d="M188.62 369.87L322.713 377.714L376.53 352.614L365.557 316.533L188.62 369.87Z" fill="#42382E"/>
<path d="M232.844 279.928V350.094L328.084 321.375V256.92L232.844 279.928Z" fill="#C7C4FF"/>
<path d="M327.07 257.108L241.141 277.638L241.214 259.859L292.471 249.631L327.07 257.108Z" fill="#E3E1FF"/>
<path d="M283.003 334.835V307.12L297.11 303.983V330.129L283.003 334.835Z" fill="#8970FF"/>
<path d="M246.951 284.656V298.231L258.456 295.344V281.769L246.951 284.656Z" fill="#A18EFF"/>
<path d="M259.564 280.953V294.528L271.08 291.642V278.067L259.564 280.953Z" fill="#A18EFF"/>
<path d="M272.188 277.659V291.234L283.693 288.358V274.783L272.188 277.659Z" fill="#A18EFF"/>
<path d="M284.801 275.003V288.577L296.317 285.701V272.126L284.801 275.003Z" fill="#A18EFF"/>
<path d="M297.424 271.321V284.896L308.94 282.02V268.445L297.424 271.321Z" fill="#A18EFF"/>
<path d="M310.758 267.64V281.215L322.274 278.339V264.764L310.758 267.64Z" fill="#A18EFF"/>
<path d="M246.951 299.82V313.395L258.456 310.509V296.934L246.951 299.82Z" fill="#A18EFF"/>
<path d="M259.564 296.118V309.693L271.08 306.806V293.231L259.564 296.118Z" fill="#A18EFF"/>
<path d="M272.188 292.824V306.399L283.693 303.522V289.948L272.188 292.824Z" fill="#A18EFF"/>
<path d="M284.801 290.167V303.742L296.317 300.866V287.291L284.801 290.167Z" fill="#A18EFF"/>
<path d="M297.424 286.486V300.061L308.94 297.185V283.61L297.424 286.486Z" fill="#A18EFF"/>
<path d="M310.758 282.804V296.379L322.274 293.503V279.928L310.758 282.804Z" fill="#A18EFF"/>
<path d="M246.951 313.395L258.456 295.344V310.509L246.951 313.395Z" fill="#AAA5FF"/>
<path d="M271.08 306.806L283.693 303.522L283.525 296.139L271.08 306.806Z" fill="#AAA5FF"/>
<path d="M283.693 288.347V274.783L271.08 291.642L296.18 285.22L283.693 288.347Z" fill="#AAA5FF"/>
<path d="M297.424 271.321V284.896L296.18 285.22L308.939 282.02L297.424 271.321Z" fill="#AAA5FF"/>
<path d="M278.813 337.449V308.166L247.474 316.01V346.339C247.474 346.339 280.527 336.927 278.813 337.449Z" fill="#827AFF"/>
<path d="M323.246 323.331V296.139L300.246 301.891V330.129C300.246 330.129 324.542 322.808 323.246 323.331Z" fill="#827AFF"/>
<path d="M244.338 272.085L311.218 256.397L292.93 252.214L244.338 262.149V272.085Z" fill="#D1CEFF"/>
<path d="M500.408 336.096L492 322.565L495.876 306.817L507.522 298L522.405 300.207L533.403 309.653L534.37 324.762L526.609 336.725L513.997 339.88L500.408 336.096Z" fill="#876E96"/>
<path d="M495.876 306.817L507.522 298L513.997 313.118L495.876 306.817Z" fill="#E0C9EE"/>
<path d="M495.876 306.817L492 322.565L513.997 313.118L495.876 306.817Z" fill="#C293DD"/>
<path d="M513.997 313.118L507.521 298L522.405 300.207L513.997 313.118Z" fill="#C293DD"/>
<path d="M513.997 313.118L533.404 309.653L524.019 326.02L513.997 313.118Z" fill="#9B76B1"/>
<path d="M533.404 309.653L524.02 326.02L534.37 324.762L533.404 309.653Z" fill="#88679B"/>
<path opacity="0.7" d="M524.02 326.02L526.61 336.725L534.37 324.762L524.02 326.02Z" fill="#A383B6"/>
<path d="M492 322.565L513.997 313.118L524.019 326.02L492 322.565Z" fill="#CCA2E6"/>
<path d="M492 322.565L500.408 336.096L524.019 326.02L492 322.565Z" fill="#9B76B1"/>
<path d="M513.997 339.88L524.019 326.02L526.61 336.725L513.997 339.88Z" fill="#88679B"/>
<path d="M500.408 336.096L513.997 339.88L524.019 326.02L501.703 335.467" fill="#88679B"/>
<path d="M505.684 334.689L486 358.162L502.727 364.878L515.746 362.284L526.1 356.572L505.684 334.689Z" fill="#9B76B1"/>
<path d="M486 358.162L502.727 364.878L505.684 334.689L486 358.162Z" fill="#C293DD"/>
<path opacity="0.8" d="M505.685 334.689L515.746 362.284L526.1 356.572L505.685 334.689Z" fill="#88679B"/>
<path d="M486 358.162L502.727 364.878L515.746 362.284L526.1 356.572L517.094 366.091L504.096 368.33L492.896 363.518L486 358.162Z" fill="#876E96"/>
<path d="M505.089 323.057L488.09 343.34L502.54 349.145L513.782 346.896L522.736 341.959L505.089 323.057Z" fill="#9B76B1"/>
<path d="M488.09 343.34L502.54 349.145L505.089 323.057L488.09 343.34Z" fill="#CCA2E5"/>
<path opacity="0.6" d="M505.089 323.057L513.782 346.896L522.736 341.959L505.089 323.057Z" fill="#88679B"/>
<path d="M488.09 343.34L502.54 349.145L513.782 346.896L522.736 341.959L514.962 350.191L503.731 352.127L493.805 348.884L488.09 343.34Z" fill="#876E96"/>
<path d="M505.121 312L491.016 330.484L502.885 334.825L512.727 332.858L519.32 330.745L505.121 312Z" fill="#9B76B1"/>
<path d="M491.016 330.484L502.885 334.825L505.121 312L491.016 330.484Z" fill="#CCA2E5"/>
<path opacity="0.7" d="M505.121 312L512.727 332.858L519.32 330.745L505.121 312Z" fill="#88679B"/>
<path d="M491.016 330.484L497.086 333.674L502.885 334.825L512.727 332.858L519.32 330.745L513.709 336.687L503.877 338.382L495.195 335.536L491.016 330.484Z" fill="#876E96"/>
<path d="M491.016 330.484L505.121 312L497.149 333.475L491.016 330.484Z" fill="#E0C9EE"/>
<path d="M488.11 343.068L494.724 335.515L502.686 348.842L488.11 343.068Z" fill="#E0C9EE"/>
<path d="M434.297 377.055L360.333 362.685V162.711L434.297 173.755V377.055Z" fill="#AAA5FF"/>
<path d="M434.297 378.237L497.226 359.454V158.591L434.297 173.755V378.237Z" fill="#968FFF"/>
<path d="M360.333 162.711L434.297 173.755L497.226 158.591L428.779 149.105L360.333 162.711Z" fill="#C7C5FF"/>
<path d="M456.022 176.997L465.155 174.822V191.576L456.022 193.647V176.997Z" fill="#8B73FF"/>
<path d="M443.336 179.539L452.469 177.363V194.118L443.336 196.188V179.539Z" fill="#8B73FF"/>
<path d="M456.022 204.67L465.155 202.495V219.249L456.022 221.32V204.67Z" fill="#8B73FF"/>
<path d="M443.336 207.201L452.469 205.026V221.78L443.336 223.861V207.201Z" fill="#8B73FF"/>
<path d="M456.022 232.332L465.155 230.157V246.911L456.022 248.993V232.332Z" fill="#7C60FF"/>
<path d="M443.336 234.874L452.469 232.698V249.453L443.336 251.534V234.874Z" fill="#8B73FF"/>
<path d="M456.022 260.005L465.155 257.83V274.584L456.022 276.665V260.005Z" fill="#7C60FF"/>
<path d="M443.336 262.547L452.469 260.371V277.126L443.336 279.196V262.547Z" fill="#7C60FF"/>
<path d="M456.022 287.678L465.155 285.503V302.257L456.022 304.328V287.678Z" fill="#7C60FF"/>
<path d="M443.336 290.219L452.469 288.044V304.798L443.336 306.869V290.219Z" fill="#7C60FF"/>
<path d="M480.705 171.245L489.838 169.07V185.824L480.705 187.895V171.245Z" fill="#8B73FF"/>
<path d="M468.029 173.776L477.152 171.601V188.355L468.029 190.436V173.776Z" fill="#8B73FF"/>
<path d="M480.705 198.908L489.838 196.732V213.487L480.705 215.568V198.908Z" fill="#8B73FF"/>
<path d="M468.029 201.449L477.152 199.274V216.028L468.029 218.109V201.449Z" fill="#8B73FF"/>
<path d="M480.705 226.58L489.838 224.405V241.159L480.705 243.241V226.58Z" fill="#7C60FF"/>
<path d="M468.029 229.122L477.152 226.946V243.701L468.029 245.771V229.122Z" fill="#8B73FF"/>
<path d="M480.705 254.253L489.838 252.078V268.832L480.705 270.913V254.253Z" fill="#7C60FF"/>
<path d="M468.029 256.795L477.152 254.619V271.373L468.029 273.444V256.795Z" fill="#7C60FF"/>
<path d="M480.705 281.926L489.838 279.751V296.505L480.705 298.576V281.926Z" fill="#7C60FF"/>
<path d="M468.029 284.457L477.152 282.282V299.036L468.029 301.117V284.457Z" fill="#7C60FF"/>
<path d="M457.067 312.077L466.2 309.902V326.656L457.067 328.738V312.077Z" fill="#7C60FF"/>
<path d="M444.381 314.619L453.514 312.443V329.198L444.381 331.269V314.619Z" fill="#7C60FF"/>
<path d="M481.75 306.325L490.883 304.15V320.904L481.75 322.986V306.325Z" fill="#7C60FF"/>
<path d="M469.074 308.867L478.197 306.691V323.446L469.074 325.516V308.867Z" fill="#7C60FF"/>
<path d="M458.457 334.741L467.59 332.565V349.32L458.457 351.401V334.741Z" fill="#7C60FF"/>
<path d="M445.771 337.282L454.904 335.107V351.861L445.771 353.932V337.282Z" fill="#7C60FF"/>
<path d="M483.15 328.989L492.273 326.813V343.568L483.15 345.638V328.989Z" fill="#7C60FF"/>
<path d="M470.464 331.53L479.597 329.355V346.098L470.464 348.18V331.53Z" fill="#7C60FF"/>
<path d="M188.62 368.824L123.12 356.107V179.016L188.62 188.805V368.824Z" fill="#AAA5FF"/>
<path d="M188.62 369.87L244.339 353.231V175.376L188.62 188.805V369.87Z" fill="#968FFF"/>
<path d="M123.12 179.016L188.62 188.805L244.339 175.376L183.729 166.978L123.12 179.016Z" fill="#C7C5FF"/>
<path d="M179.027 187.372V367.256L183.207 368.302V187.895L179.027 187.372Z" fill="#968FFF"/>
<path d="M127.3 179.528V358.366L131.48 359.412V180.051L127.3 179.528Z" fill="#968FFF"/>
<path d="M151.439 191.179L142.034 188.941V206.197L151.439 208.33V191.179Z" fill="#C4C0FF"/>
<path d="M164.502 193.793L155.097 191.555V208.812L164.502 210.945V193.793Z" fill="#C4C0FF"/>
<path d="M151.439 219.678L142.034 217.44V234.696L151.439 236.829V219.678Z" fill="#958EFF"/>
<path d="M164.502 222.292L155.097 220.054V237.311L164.502 239.444V222.292Z" fill="#958EFF"/>
<path d="M151.439 248.177L142.034 245.939V263.195L151.439 265.329V248.177Z" fill="#C4C0FF"/>
<path d="M164.502 250.791L155.097 248.553V265.81L164.502 267.943V250.791Z" fill="#958EFF"/>
<path d="M151.439 276.676L142.034 274.438V291.694L151.439 293.828V276.676Z" fill="#C4C0FF"/>
<path d="M164.502 279.29L155.097 277.052V294.309L164.502 296.442V279.29Z" fill="#C4C0FF"/>
<path d="M151.439 305.175L142.034 302.937V320.193L151.439 322.327V305.175Z" fill="#C4C0FF"/>
<path d="M164.502 307.789L155.097 305.551V322.808L164.502 324.941V307.789Z" fill="#C4C0FF"/>
<path d="M138.272 177.959L189.477 184.757L232.844 175.345L184.774 170.116L138.272 177.959Z" fill="#B8B4FF"/>
<path d="M138.272 177.959L184.774 169.07L232.844 175.345L224.129 176.736L184.774 172.207L147.155 179.173L138.272 177.959Z" fill="#A9A4FF"/>
<path d="M205.915 193.731L215.048 191.555V208.31L205.915 210.391V193.731Z" fill="#ACA7FF"/>
<path d="M193.239 196.272L202.372 194.097V210.851L193.239 212.922V196.272Z" fill="#ACA7FF"/>
<path d="M205.915 221.403L215.048 219.228V235.982L205.915 238.053V221.403Z" fill="#ACA7FF"/>
<path d="M193.239 223.945L202.372 221.759V238.513L193.239 240.595V223.945Z" fill="#ACA7FF"/>
<path d="M205.915 249.076L215.048 246.89V263.645L205.915 265.726V249.076Z" fill="#827AFF"/>
<path d="M193.239 251.607L202.372 249.432V266.186L193.239 268.267V251.607Z" fill="#ACA7FF"/>
<path d="M205.915 276.739L215.048 274.563V291.318L205.915 293.399V276.739Z" fill="#827AFF"/>
<path d="M193.239 279.28L202.372 277.105V293.859L193.239 295.93V279.28Z" fill="#827AFF"/>
<path d="M205.915 304.411L215.048 302.236V318.99L205.915 321.072V304.411Z" fill="#827AFF"/>
<path d="M193.239 306.953L202.372 304.778V321.532L193.239 323.603V306.953Z" fill="#827AFF"/>
<path d="M230.607 187.979L239.741 185.803V202.557L230.607 204.628V187.979Z" fill="#ACA7FF"/>
<path d="M217.921 190.509L227.055 188.334V205.088L217.921 207.17V190.509Z" fill="#ACA7FF"/>
<path d="M230.607 215.651L239.741 213.466V230.22L230.607 232.301V215.651Z" fill="#ACA7FF"/>
<path d="M217.921 218.182L227.055 216.007V232.761L217.921 234.842V218.182Z" fill="#ACA7FF"/>
<path d="M230.607 243.314L239.741 241.138V257.893L230.607 259.974V243.314Z" fill="#827AFF"/>
<path d="M217.921 245.855L227.055 243.68V260.434L217.921 262.515V245.855Z" fill="#ACA7FF"/>
<path d="M193.824 335.703V368.469L240.158 354.528V324.899L193.824 335.703Z" fill="#7C60FF"/>
<path d="M240.158 354.528V324.899L233.533 326.29V350.345L240.158 354.528Z" fill="#827AFF"/>
<path d="M230.607 270.986L239.741 268.811V285.565L230.607 287.647V270.986Z" fill="#827AFF"/>
<path d="M217.921 273.528L227.055 271.353V288.107L217.921 290.178V273.528Z" fill="#827AFF"/>
<path d="M230.607 298.659L239.741 296.484V313.238L230.607 315.309V298.659Z" fill="#827AFF"/>
<path d="M217.921 301.201L227.055 299.015V315.769L217.921 317.85V301.201Z" fill="#827AFF"/>
<path d="M200.449 330.474V339.886L233.889 331.519V322.808L200.449 330.474Z" fill="#A39DFE"/>
<path d="M193.824 368.469L240.158 354.528L233.533 350.344L194.179 362.194L193.824 368.469Z" fill="#827AFF"/>
<path d="M78.3648 356.417L69 341.351L73.3166 323.817L86.2873 314L102.864 316.457L115.113 326.975L116.19 343.797L107.546 357.117L93.4991 360.63L78.3648 356.417Z" fill="#876E96"/>
<path d="M73.3169 323.817L86.2876 314L93.4994 330.833L73.3169 323.817Z" fill="#E0C9EE"/>
<path d="M73.3166 323.817L69 341.351L93.4991 330.833L73.3166 323.817Z" fill="#C293DD"/>
<path d="M93.4994 330.833L86.2876 314L102.864 316.457L93.4994 330.833Z" fill="#C293DD"/>
<path d="M93.499 330.833L115.113 326.975L104.662 345.198L93.499 330.833Z" fill="#9B76B1"/>
<path d="M115.113 326.975L104.662 345.198L116.19 343.797L115.113 326.975Z" fill="#88679B"/>
<path opacity="0.7" d="M104.662 345.198L107.546 357.117L116.19 343.797L104.662 345.198Z" fill="#A383B6"/>
<path d="M69 341.351L93.4991 330.833L104.662 345.198L69 341.351Z" fill="#CCA2E6"/>
<path d="M69 341.351L78.3648 356.417L104.662 345.198L69 341.351Z" fill="#9B76B1"/>
<path d="M93.499 360.63L104.662 345.198L107.546 357.117L93.499 360.63Z" fill="#88679B"/>
<path d="M78.3652 356.417L93.4995 360.63L104.662 345.198L79.8076 355.716" fill="#88679B"/>
<path d="M114.365 363.417L105 348.351L109.317 330.817L122.287 321L138.864 323.457L151.113 333.975L152.19 350.797L143.546 364.117L129.499 367.63L114.365 363.417Z" fill="#876E96"/>
<path d="M109.317 330.817L122.288 321L129.499 337.833L109.317 330.817Z" fill="#E0C9EE"/>
<path d="M109.317 330.817L105 348.351L129.499 337.833L109.317 330.817Z" fill="#C293DD"/>
<path d="M129.499 337.833L122.288 321L138.864 323.457L129.499 337.833Z" fill="#C293DD"/>
<path d="M129.499 337.833L151.113 333.975L140.662 352.198L129.499 337.833Z" fill="#9B76B1"/>
<path d="M151.113 333.975L140.662 352.198L152.19 350.797L151.113 333.975Z" fill="#88679B"/>
<path opacity="0.7" d="M140.662 352.198L143.546 364.117L152.19 350.797L140.662 352.198Z" fill="#A383B6"/>
<path d="M105 348.351L129.499 337.833L140.662 352.198L105 348.351Z" fill="#CCA2E6"/>
<path d="M105 348.351L114.365 363.417L140.662 352.198L105 348.351Z" fill="#9B76B1"/>
<path d="M129.499 367.63L140.662 352.198L143.546 364.117L129.499 367.63Z" fill="#88679B"/>
<path d="M114.365 363.417L129.499 367.63L140.662 352.198L115.808 362.716" fill="#88679B"/>
<path d="M151.365 371.417L142 356.351L146.317 338.817L159.287 329L175.864 331.457L188.113 341.975L189.19 358.797L180.546 372.117L166.499 375.63L151.365 371.417Z" fill="#876E96"/>
<path d="M146.317 338.817L159.288 329L166.499 345.833L146.317 338.817Z" fill="#E0C9EE"/>
<path d="M146.317 338.817L142 356.351L166.499 345.833L146.317 338.817Z" fill="#C293DD"/>
<path d="M166.499 345.833L159.288 329L175.864 331.457L166.499 345.833Z" fill="#C293DD"/>
<path d="M166.499 345.833L188.113 341.975L177.662 360.198L166.499 345.833Z" fill="#9B76B1"/>
<path d="M188.113 341.975L177.662 360.198L189.19 358.797L188.113 341.975Z" fill="#88679B"/>
<path opacity="0.7" d="M177.662 360.198L180.546 372.117L189.19 358.797L177.662 360.198Z" fill="#A383B6"/>
<path d="M142 356.351L166.499 345.833L177.662 360.198L142 356.351Z" fill="#CCA2E6"/>
<path d="M142 356.351L151.365 371.417L177.662 360.198L142 356.351Z" fill="#9B76B1"/>
<path d="M166.499 375.63L177.662 360.198L180.546 372.117L166.499 375.63Z" fill="#88679B"/>
<path d="M151.365 371.417L166.499 375.63L177.662 360.198L152.808 370.716" fill="#88679B"/>
<path d="M270.246 340.878L265.531 333.289L267.704 324.458L274.234 319.514L282.579 320.751L288.746 326.049L289.288 334.522L284.936 341.231L277.865 343L270.246 340.878Z" fill="#876E96"/>
<path d="M267.704 324.458L274.234 319.514L277.864 327.992L267.704 324.458Z" fill="#E0C9EE"/>
<path d="M267.704 324.458L265.531 333.289L277.865 327.992L267.704 324.458Z" fill="#C293DD"/>
<path d="M277.865 327.992L274.234 319.514L282.579 320.751L277.865 327.992Z" fill="#C293DD"/>
<path d="M277.865 327.992L288.746 326.049L283.484 335.227L277.865 327.992Z" fill="#9B76B1"/>
<path d="M288.746 326.049L283.484 335.227L289.288 334.522L288.746 326.049Z" fill="#88679B"/>
<path opacity="0.7" d="M283.484 335.227L284.937 341.231L289.288 334.522L283.484 335.227Z" fill="#A383B6"/>
<path d="M265.531 333.29L277.865 327.992L283.484 335.227L265.531 333.29Z" fill="#CCA2E6"/>
<path d="M265.531 333.289L270.246 340.878L283.484 335.227L265.531 333.289Z" fill="#9B76B1"/>
<path d="M277.865 343L283.484 335.227L284.936 341.231L277.865 343Z" fill="#88679B"/>
<path d="M270.246 340.878L277.865 343L283.484 335.227L270.972 340.525" fill="#88679B"/>
<path d="M363.63 374.774L354.267 359.704L358.583 342.165L371.551 332.345L388.125 334.803L400.372 345.324L401.448 362.151L392.806 375.475L378.762 378.989L363.63 374.774Z" fill="#876E96"/>
<path d="M358.583 342.165L371.551 332.345L378.762 349.183L358.583 342.165Z" fill="#E0C9EE"/>
<path d="M358.583 342.165L354.267 359.704L378.762 349.183L358.583 342.165Z" fill="#C293DD"/>
<path d="M378.762 349.183L371.551 332.345L388.125 334.803L378.762 349.183Z" fill="#C293DD"/>
<path d="M378.762 349.183L400.372 345.324L389.922 363.553L378.762 349.183Z" fill="#9B76B1"/>
<path d="M400.372 345.324L389.922 363.553L401.448 362.151L400.372 345.324Z" fill="#88679B"/>
<path opacity="0.7" d="M389.922 363.553L392.806 375.475L401.448 362.151L389.922 363.553Z" fill="#A383B6"/>
<path d="M354.267 359.704L378.762 349.183L389.922 363.553L354.267 359.704Z" fill="#CCA2E6"/>
<path d="M354.267 359.704L363.63 374.774L389.922 363.553L354.267 359.704Z" fill="#9B76B1"/>
<path d="M378.762 378.989L389.922 363.553L392.806 375.475L378.762 378.989Z" fill="#88679B"/>
<path d="M363.63 374.774L378.762 378.989L389.922 363.553L365.072 374.074" fill="#88679B"/>
<path d="M323.535 325.846L319 318.442L321.09 309.825L327.371 305L335.397 306.208L341.329 311.377L341.85 319.644L337.664 326.191L330.863 327.917L323.535 325.846Z" fill="#876E96"/>
<path d="M321.09 309.825L327.37 305L330.862 313.273L321.09 309.825Z" fill="#E0C9EE"/>
<path d="M321.09 309.825L319 318.442L330.863 313.273L321.09 309.825Z" fill="#C293DD"/>
<path d="M330.863 313.273L327.371 305L335.398 306.208L330.863 313.273Z" fill="#C293DD"/>
<path d="M330.863 313.273L341.329 311.377L336.268 320.333L330.863 313.273Z" fill="#9B76B1"/>
<path d="M341.329 311.377L336.268 320.333L341.85 319.644L341.329 311.377Z" fill="#88679B"/>
<path opacity="0.7" d="M336.268 320.333L337.665 326.191L341.85 319.644L336.268 320.333Z" fill="#A383B6"/>
<path d="M319 318.442L330.863 313.273L336.268 320.333L319 318.442Z" fill="#CCA2E6"/>
<path d="M319 318.442L323.535 325.846L336.268 320.333L319 318.442Z" fill="#9B76B1"/>
<path d="M330.863 327.917L336.268 320.333L337.665 326.191L330.863 327.917Z" fill="#88679B"/>
<path d="M323.534 325.846L330.862 327.917L336.267 320.333L324.233 325.502" fill="#88679B"/>
<path d="M309.535 329.846L305 322.442L307.09 313.825L313.371 309L321.397 310.208L327.329 315.377L327.85 323.644L323.664 330.191L316.863 331.917L309.535 329.846Z" fill="#876E96"/>
<path d="M307.09 313.825L313.37 309L316.862 317.273L307.09 313.825Z" fill="#E0C9EE"/>
<path d="M307.09 313.825L305 322.442L316.863 317.273L307.09 313.825Z" fill="#C293DD"/>
<path d="M316.863 317.273L313.371 309L321.398 310.208L316.863 317.273Z" fill="#C293DD"/>
<path d="M316.863 317.273L327.329 315.377L322.268 324.333L316.863 317.273Z" fill="#9B76B1"/>
<path d="M327.329 315.377L322.268 324.333L327.85 323.644L327.329 315.377Z" fill="#88679B"/>
<path opacity="0.7" d="M322.268 324.333L323.665 330.191L327.85 323.644L322.268 324.333Z" fill="#A383B6"/>
<path d="M305 322.442L316.863 317.273L322.268 324.333L305 322.442Z" fill="#CCA2E6"/>
<path d="M305 322.442L309.535 329.846L322.268 324.333L305 322.442Z" fill="#9B76B1"/>
<path d="M316.863 331.917L322.268 324.333L323.665 330.191L316.863 331.917Z" fill="#88679B"/>
<path d="M309.534 329.846L316.862 331.917L322.267 324.333L310.233 329.502" fill="#88679B"/>
<path d="M401.63 379.774L392.267 364.704L396.583 347.165L409.551 337.345L426.125 339.803L438.372 350.324L439.448 367.151L430.806 380.475L416.762 383.989L401.63 379.774Z" fill="#876E96"/>
<path d="M396.583 347.165L409.551 337.345L416.762 354.183L396.583 347.165Z" fill="#E0C9EE"/>
<path d="M396.583 347.165L392.267 364.704L416.762 354.183L396.583 347.165Z" fill="#C293DD"/>
<path d="M416.762 354.183L409.551 337.345L426.125 339.803L416.762 354.183Z" fill="#C293DD"/>
<path d="M416.762 354.183L438.372 350.324L427.922 368.553L416.762 354.183Z" fill="#9B76B1"/>
<path d="M438.372 350.324L427.922 368.553L439.448 367.151L438.372 350.324Z" fill="#88679B"/>
<path opacity="0.7" d="M427.922 368.553L430.806 380.475L439.448 367.151L427.922 368.553Z" fill="#A383B6"/>
<path d="M392.267 364.704L416.762 354.183L427.922 368.553L392.267 364.704Z" fill="#CCA2E6"/>
<path d="M392.267 364.704L401.63 379.774L427.922 368.553L392.267 364.704Z" fill="#9B76B1"/>
<path d="M416.762 383.989L427.922 368.553L430.806 380.475L416.762 383.989Z" fill="#88679B"/>
<path d="M401.63 379.774L416.762 383.989L427.922 368.553L403.072 379.074" fill="#88679B"/>
<path d="M482.951 345.032L463.264 368.5L479.994 375.215L493.014 372.621L503.37 366.911L482.951 345.032Z" fill="#9B76B1"/>
<path d="M463.264 368.5L479.994 375.215L482.951 345.032L463.264 368.5Z" fill="#C293DD"/>
<path opacity="0.8" d="M482.951 345.032L493.014 372.621L503.37 366.911L482.951 345.032Z" fill="#88679B"/>
<path d="M463.264 368.5L479.994 375.215L493.014 372.621L503.37 366.911L494.362 376.428L481.363 378.666L470.161 373.855L463.264 368.5Z" fill="#876E96"/>
<path d="M482.355 333.402L465.354 353.681L479.806 359.485L491.05 357.237L500.005 352.3L482.355 333.402Z" fill="#9B76B1"/>
<path d="M465.354 353.681L479.806 359.485L482.355 333.402L465.354 353.681Z" fill="#CCA2E5"/>
<path opacity="0.6" d="M482.355 333.402L491.05 357.237L500.005 352.3L482.355 333.402Z" fill="#88679B"/>
<path d="M465.354 353.681L479.806 359.485L491.05 357.237L500.005 352.3L492.231 360.531L480.997 362.466L471.07 359.224L465.354 353.681Z" fill="#876E96"/>
<path d="M482.387 322.348L468.279 340.827L480.15 345.168L489.994 343.202L496.588 341.089L482.387 322.348Z" fill="#9B76B1"/>
<path d="M468.279 340.827L480.15 345.168L482.387 322.348L468.279 340.827Z" fill="#CCA2E5"/>
<path opacity="0.7" d="M482.387 322.348L489.994 343.202L496.588 341.089L482.387 322.348Z" fill="#88679B"/>
<path d="M468.279 340.827L474.351 344.017L480.15 345.168L489.994 343.201L496.588 341.089L490.976 347.029L481.143 348.724L472.459 345.879L468.279 340.827Z" fill="#876E96"/>
<path d="M468.279 340.827L482.387 322.348L474.413 343.819L468.279 340.827Z" fill="#E0C9EE"/>
<path d="M465.375 353.409L471.99 345.858L479.953 359.182L465.375 353.409Z" fill="#E0C9EE"/>
<path d="M555.688 331.689L536 355.162L552.73 361.878L565.751 359.284L576.107 353.572L555.688 331.689Z" fill="#9B76B1"/>
<path d="M536 355.162L552.73 361.878L555.688 331.689L536 355.162Z" fill="#C293DD"/>
<path opacity="0.8" d="M555.688 331.689L565.751 359.284L576.107 353.572L555.688 331.689Z" fill="#88679B"/>
<path d="M536 355.162L552.73 361.878L565.751 359.284L576.107 353.572L567.099 363.091L554.099 365.33L542.897 360.518L536 355.162Z" fill="#876E96"/>
<path d="M555.092 320.057L538.09 340.34L552.542 346.145L563.786 343.896L572.742 338.959L555.092 320.057Z" fill="#9B76B1"/>
<path d="M538.09 340.34L552.542 346.145L555.092 320.057L538.09 340.34Z" fill="#CCA2E5"/>
<path opacity="0.6" d="M555.092 320.057L563.786 343.896L572.742 338.959L555.092 320.057Z" fill="#88679B"/>
<path d="M538.09 340.34L552.542 346.145L563.786 343.896L572.742 338.959L564.967 347.191L553.733 349.127L543.806 345.884L538.09 340.34Z" fill="#876E96"/>
<path d="M555.123 309L541.016 327.484L552.887 331.825L562.73 329.858L569.324 327.745L555.123 309Z" fill="#9B76B1"/>
<path d="M541.016 327.484L552.887 331.825L555.123 309L541.016 327.484Z" fill="#CCA2E5"/>
<path opacity="0.7" d="M555.123 309L562.731 329.858L569.324 327.745L555.123 309Z" fill="#88679B"/>
<path d="M541.016 327.484L547.087 330.674L552.887 331.825L562.73 329.858L569.324 327.745L563.713 333.687L553.879 335.382L545.196 332.536L541.016 327.484Z" fill="#876E96"/>
<path d="M541.016 327.484L555.123 309L547.15 330.475L541.016 327.484Z" fill="#E0C9EE"/>
<path d="M538.111 340.068L544.726 332.515L552.689 345.842L538.111 340.068Z" fill="#E0C9EE"/>
<path d="M251.42 345.645L246.819 338.24L248.94 329.623L255.311 324.798L263.454 326.006L269.471 331.175L270 339.443L265.754 345.989L258.854 347.715L251.42 345.645Z" fill="#876E96"/>
<path d="M248.939 329.623L255.311 324.798L258.854 333.071L248.939 329.623Z" fill="#E0C9EE"/>
<path d="M248.94 329.623L246.819 338.24L258.854 333.071L248.94 329.623Z" fill="#C293DD"/>
<path d="M258.854 333.071L255.312 324.798L263.454 326.006L258.854 333.071Z" fill="#C293DD"/>
<path d="M258.854 333.071L269.472 331.175L264.337 340.131L258.854 333.071Z" fill="#9B76B1"/>
<path d="M269.472 331.175L264.337 340.131L270 339.443L269.472 331.175Z" fill="#88679B"/>
<path opacity="0.7" d="M264.337 340.131L265.754 345.989L270 339.443L264.337 340.131Z" fill="#A383B6"/>
<path d="M246.819 338.24L258.854 333.071L264.337 340.131L246.819 338.24Z" fill="#CCA2E6"/>
<path d="M246.819 338.24L251.42 345.645L264.337 340.131L246.819 338.24Z" fill="#9B76B1"/>
<path d="M258.854 347.715L264.337 340.131L265.754 345.989L258.854 347.715Z" fill="#88679B"/>
<path d="M251.419 345.645L258.854 347.715L264.337 340.131L252.128 345.3" fill="#88679B"/>
<path d="M382.967 159.302L431.736 167.323V142.924L382.622 136.293L382.967 159.302Z" fill="#B8B4FF"/>
<path d="M431.736 142.924V167.323L474.581 155.819V133.156L431.736 142.924Z" fill="#A9A4FF"/>
<path d="M382.622 136.293L431.736 142.924L474.581 133.156L429.302 127.927L382.622 136.293Z" fill="#C7C5FF"/>
<path d="M408.747 132.11L432.259 136.816V111.193L408.747 132.11Z" fill="#B8B4FF"/>
<path d="M432.259 111.193V136.816L451.591 131.587L432.259 111.193Z" fill="#A9A4FF"/>
<path d="M387.847 142.924V154.773L425.466 160.348V147.798L387.847 142.924Z" fill="#A8A3FF"/>
<path d="M438.707 148.498V159.302L470.746 151.981V140.477L438.707 148.498Z" fill="#876EFF"/>
<path d="M379.936 171.308L370.531 169.07V186.326L379.936 188.46V171.308Z" fill="#957FFF"/>
<path d="M392.999 173.922L383.594 171.684V188.941L392.999 191.074V173.922Z" fill="#957FFF"/>
<path d="M379.936 199.807L370.531 197.569V214.825L379.936 216.959V199.807Z" fill="#8A72FF"/>
<path d="M392.999 202.421L383.594 200.183V217.44L392.999 219.573V202.421Z" fill="#8A72FF"/>
<path d="M379.936 228.306L370.531 226.068V243.324L379.936 245.458V228.306Z" fill="#957FFF"/>
<path d="M392.999 230.921L383.594 228.682V245.939L392.999 248.072V230.921Z" fill="#8A72FF"/>
<path d="M379.936 256.805L370.531 254.567V271.823L379.936 273.957V256.805Z" fill="#8A72FF"/>
<path d="M392.999 259.42L383.594 257.181V274.438L392.999 276.571V259.42Z" fill="#957FFF"/>
<path d="M379.936 285.304L370.531 283.066V300.322L379.936 302.456V285.304Z" fill="#957FFF"/>
<path d="M392.999 287.919L383.594 285.68V302.937L392.999 305.07V287.919Z" fill="#957FFF"/>
<path d="M407.106 178.284L397.701 176.035V193.291L407.106 195.435V178.284Z" fill="#957FFF"/>
<path d="M420.169 180.898L410.764 178.65V195.906L420.169 198.05V180.898Z" fill="#957FFF"/>
<path d="M407.106 206.783L397.701 204.534V221.79L407.106 223.934V206.783Z" fill="#8A72FF"/>
<path d="M420.169 209.397L410.764 207.149V224.405L420.169 226.549V209.397Z" fill="#8A72FF"/>
<path d="M407.106 235.282L397.701 233.033V250.289L407.106 252.433V235.282Z" fill="#957FFF"/>
<path d="M420.169 237.896L410.764 235.648V252.904L420.169 255.048V237.896Z" fill="#8A72FF"/>
<path d="M407.106 263.781L397.701 261.532V278.788L407.106 280.932V263.781Z" fill="#957FFF"/>
<path d="M420.169 266.395L410.764 264.147V281.403L420.169 283.547V266.395Z" fill="#957FFF"/>
<path d="M407.106 292.28L397.701 290.031V307.287L407.106 309.431V292.28Z" fill="#957FFF"/>
<path d="M420.169 294.894L410.764 292.646V309.902L420.169 312.046V294.894Z" fill="#8A72FF"/>
<path d="M379.247 312.496L369.842 310.258V327.514L379.247 329.647V312.496Z" fill="#957FFF"/>
<path d="M392.309 315.11L382.904 312.872V330.129L392.309 332.262V315.11Z" fill="#957FFF"/>
<path d="M406.416 319.471L397.011 317.223V334.479L406.416 336.623V319.471Z" fill="#957FFF"/>
<path d="M419.479 322.086L410.074 319.837V337.094L419.479 339.238V322.086Z" fill="#8A72FF"/>
</g>
<defs>
<clipPath id="clip0_654_7960">
<rect width="659" height="601" fill="white"/>
</clipPath>
</defs>
</svg>
