<svg width="63" height="63" viewBox="0 0 63 63" fill="none" xmlns="http://www.w3.org/2000/svg">
<g clip-path="url(#clip0_601_598)">
<path fill-rule="evenodd" clip-rule="evenodd" d="M60.2217 37.0825H39.3175C38.91 37.0825 38.5792 36.7514 38.5792 36.3442V28.696C38.5792 27.9787 37.9956 27.3947 37.2787 27.3947H23.6821C23.2746 27.3947 22.9438 27.064 22.9438 26.6564V14.4201C22.9438 12.8889 24.1901 11.6423 25.7216 11.6423H60.2224C61.7536 11.6423 63.0002 12.8886 63.0002 14.4201V34.3051C62.9995 35.8363 61.754 37.0829 60.222 37.0829L60.2217 37.0825ZM40.0558 35.6052H60.2217C60.9389 35.6052 61.5222 35.0216 61.5222 34.3047V14.4198C61.5222 13.7025 60.9385 13.1185 60.2217 13.1185H25.7213C25.004 13.1185 24.42 13.7025 24.42 14.4198V25.9178H37.2784C38.8096 25.9178 40.0562 27.164 40.0562 28.6956V35.6052H40.0558Z" fill="#3B37FE"/>
<path fill-rule="evenodd" clip-rule="evenodd" d="M37.2782 51.358H2.77779C1.24659 51.358 0 50.1118 0 48.5802V28.696C0 27.1644 1.24622 25.9182 2.77779 25.9182H37.2778C38.809 25.9182 40.056 27.1644 40.056 28.696V48.5802C40.056 50.1122 38.8094 51.358 37.2782 51.358ZM2.77779 27.3948C2.06055 27.3948 1.47657 27.9788 1.47657 28.696V48.5802C1.47657 49.2975 2.06055 49.8807 2.77779 49.8807L37.2778 49.8811C37.9951 49.8811 38.579 49.2975 38.579 48.5802V28.696C38.579 27.9788 37.9951 27.3948 37.2778 27.3948H2.77779Z" fill="#3B37FE"/>
<path fill-rule="evenodd" clip-rule="evenodd" d="M39.3177 37.9747H0.738284C0.330751 37.9747 0 37.6435 0 37.2364V32.2227C0 31.8151 0.330751 31.4844 0.738284 31.4844H39.3177C39.7252 31.4844 40.056 31.8151 40.056 32.2227V37.2364C40.056 37.6432 39.7252 37.9747 39.3177 37.9747ZM1.47657 36.4977H38.5794V32.961H1.47657V36.4977ZM62.2613 18.5995H23.6819C22.71 18.5995 22.71 17.1229 23.6819 17.1229H62.2613C63.2333 17.1229 63.2333 18.5995 62.2613 18.5995ZM58.9472 28.2441H44.5868C43.6149 28.2441 43.6152 26.7675 44.5868 26.7675H58.9472C59.9191 26.7675 59.9191 28.2441 58.9472 28.2441ZM58.9472 32.9185H47.8408C46.8689 32.9185 46.8692 31.4419 47.8408 31.4419H58.9472C59.9191 31.4419 59.9191 32.9185 58.9472 32.9185ZM58.9472 23.5711H44.5868C43.6149 23.5711 43.6152 22.0945 44.5868 22.0945H58.9472C59.9191 22.0945 59.9191 23.5711 58.9472 23.5711ZM15.4058 48.0622H4.95426C4.54672 48.0622 4.21597 47.7311 4.21597 47.3239V40.744C4.21597 40.3364 4.54672 40.0057 4.95426 40.0057H15.4065C15.814 40.0057 16.1448 40.3368 16.1448 40.744V47.3235C16.1444 47.7311 15.814 48.0626 15.4061 48.0626L15.4058 48.0622ZM5.69254 46.5849H14.6682V41.4826H5.69254V46.5849Z" fill="#3B37FE"/>
<path fill-rule="evenodd" clip-rule="evenodd" d="M8.83741 48.0629C8.42987 48.0629 8.09912 47.7318 8.09912 47.3247V40.744C8.09912 39.772 9.57569 39.7724 9.57569 40.744V47.3239C9.57569 47.7315 9.24494 48.0629 8.83741 48.0629ZM11.5214 48.0629C11.1139 48.0629 10.7832 47.7318 10.7832 47.3247V40.744C10.7832 39.772 12.2597 39.7724 12.2597 40.744V47.3239C12.2597 47.7315 11.9297 48.0629 11.5214 48.0629Z" fill="#3B37FE"/>
<path fill-rule="evenodd" clip-rule="evenodd" d="M15.4058 44.7728H4.95357C3.98162 44.7728 3.98162 43.2963 4.95357 43.2963H15.4058C16.3778 43.2963 16.3778 44.7728 15.4058 44.7728ZM35.1021 42.204H19.3368C18.3652 42.204 18.3652 40.7274 19.3368 40.7274H35.1021C36.0741 40.7274 36.0741 42.204 35.1021 42.204ZM35.1021 46.6632H19.3368C18.3652 46.6632 18.3652 45.1867 19.3368 45.1867H35.1021C36.0741 45.1867 36.0741 46.6632 35.1021 46.6632Z" fill="#3B37FE"/>
</g>
<defs>
<clipPath id="clip0_601_598">
<rect width="63" height="63" fill="white"/>
</clipPath>
</defs>
</svg>
