<svg width="63" height="63" viewBox="0 0 63 63" fill="none" xmlns="http://www.w3.org/2000/svg">
<path d="M31.5 19.6875C34.7573 19.6875 37.4062 17.0385 37.4062 13.7812C37.4062 10.524 34.7573 7.875 31.5 7.875C28.2427 7.875 25.5938 10.524 25.5938 13.7812C25.5938 17.0385 28.2427 19.6875 31.5 19.6875ZM31.5 9.84375C33.6715 9.84375 35.4375 11.6097 35.4375 13.7812C35.4375 15.9528 33.6715 17.7188 31.5 17.7188C29.3285 17.7188 27.5625 15.9528 27.5625 13.7812C27.5625 11.6097 29.3285 9.84375 31.5 9.84375Z" fill="#3B37FE"/>
<path d="M56.877 23.625C54.3954 15.6397 48.1269 9.16056 40.2352 6.40529L40.9597 4.58518L37.9918 5.17876C37.0564 5.36224 36.0882 5.2791 35.1977 4.93883C34.3073 4.59856 33.5304 4.01485 32.9557 3.25431L31.4998 1.31213L30.044 3.25431C29.4693 4.01494 28.6925 4.59871 27.802 4.93899C26.9115 5.27927 25.9433 5.36236 25.0079 5.17876L22.04 4.58518L22.7645 6.40431C18.863 7.7554 15.3313 9.99961 12.4512 12.9579C9.57099 15.9162 7.42206 19.5066 6.17582 23.4429C3.45993 24.693 1.44688 27.2898 1.05805 30.3404C0.618035 33.7936 2.15858 37.0981 5.07824 38.9645C5.58913 39.2913 5.9061 39.9193 5.9061 40.6054V42.3281C5.9061 44.3392 7.42794 45.9841 9.377 46.2183C11.3256 49.1319 13.8249 51.6365 16.7342 53.5913V60.0468H4.92172V62.0156H58.078V60.0468H44.2967V54.7863C48.3773 52.5406 51.7968 49.263 54.2133 45.2812H60.0467V43.3125H58.078V41.3437H62.0155V23.625H56.877ZM60.0467 31.5H56.1092V25.5937H60.0467V31.5ZM50.203 39.375V33.4687H54.1405V39.375H50.203ZM44.2967 33.4687H48.2342V39.375H44.2967V33.4687ZM44.2967 31.5V25.5937H48.2342V31.5H44.2967ZM50.203 31.5V25.5937H54.1405V31.5H50.203ZM25.0138 7.17606C26.2264 7.34333 27.4616 7.19287 28.5986 6.7394C29.7355 6.28593 30.7352 5.54499 31.4998 4.58912C32.2645 5.54522 33.2643 6.28631 34.4015 6.73979C35.5387 7.19328 36.7741 7.34361 37.9869 7.17606C37.7849 8.40165 37.9135 9.65893 38.3594 10.8183C38.8054 11.9776 39.5524 12.997 40.5236 13.7714C39.5526 14.5222 38.795 15.5142 38.3263 16.6486C37.8576 17.7831 37.6941 19.0205 37.852 20.2377C36.6469 20.1031 35.4275 20.2843 34.3136 20.7636C33.1997 21.2429 32.2297 22.0037 31.4989 22.9713C30.7339 22.016 29.7341 21.2755 28.5972 20.8224C27.4603 20.3693 26.2252 20.2191 25.0128 20.3864C25.2154 19.1582 25.0859 17.8982 24.6378 16.7368C24.1897 15.5755 23.4393 14.5551 22.4643 13.7812C23.4392 13.0073 24.1897 11.9869 24.6379 10.8256C25.0861 9.6643 25.2159 8.40433 25.0138 7.17606ZM6.13939 37.3058C3.86647 35.8539 2.66849 33.2807 3.01203 30.5894C3.4048 27.5014 5.93957 25.0051 9.03641 24.6546C9.31006 24.6241 9.58175 24.6093 9.85147 24.6093C11.5426 24.604 13.1752 25.2278 14.4318 26.3596C15.1556 27.0062 15.7348 27.7982 16.1316 28.684C16.5284 29.5698 16.7337 30.5294 16.7342 31.5C16.7359 32.6545 16.4463 33.7909 15.8923 34.8038C15.3382 35.8167 14.5376 36.6736 13.5645 37.295C12.524 37.9634 11.8881 39.0993 11.8242 40.3593H10.828V34.272C11.4021 34.0696 11.8995 33.6945 12.252 33.1982C12.6045 32.7019 12.7948 32.1087 12.7967 31.5C12.7967 29.8718 11.4718 28.5468 9.8436 28.5468C8.21544 28.5468 6.89047 29.8718 6.89047 31.5C6.89047 32.7816 7.71636 33.8644 8.85922 34.272V40.3593H7.86008C7.78724 39.0885 7.16019 37.9584 6.13939 37.3058ZM8.85922 31.5C8.85922 30.9576 9.3012 30.5156 9.8436 30.5156C10.386 30.5156 10.828 30.9576 10.828 31.5C10.828 32.0424 10.386 32.4843 9.8436 32.4843C9.3012 32.4843 8.85922 32.0424 8.85922 31.5ZM7.87485 42.3281H11.8123C11.8123 43.4139 10.9294 44.2968 9.8436 44.2968C8.75783 44.2968 7.87485 43.4139 7.87485 42.3281ZM36.4217 44.2968V48.8053L32.4842 48.0178V60.0468H28.5467V46.049L26.578 46.4428V44.2968H36.4217ZM26.578 48.4509V60.0468H18.703V50.0259L26.578 48.4509ZM34.453 60.0468V50.4197L42.328 51.9946V60.0468H34.453ZM44.2967 52.5174V50.3803L38.3905 49.199V42.3281H36.4217V40.3593H34.453V42.3281H32.4842V38.3906H30.5155V42.3281H28.5467V40.3593H26.578V42.3281H24.6092V46.8365L16.7342 48.4115V51.1766C14.7426 49.6792 12.9867 47.8917 11.5249 45.8738C12.1979 45.5568 12.7672 45.0553 13.1665 44.4277C13.5659 43.8001 13.779 43.072 13.7811 42.3281V40.5641C13.7811 39.9055 14.1059 39.2874 14.6296 38.9507C15.8805 38.1517 16.9096 37.05 17.6216 35.7476C18.3336 34.4452 18.7055 32.9843 18.703 31.5C18.7021 30.2524 18.4382 29.0189 17.9283 27.8803C17.4184 26.7416 16.6741 25.7233 15.7439 24.8919C14.8083 24.0593 13.7075 23.4336 12.5135 23.0557C11.3195 22.6778 10.0592 22.5561 8.81492 22.6987C8.70763 22.7105 8.60328 22.7331 8.49697 22.7489C9.75159 19.437 11.7086 16.436 14.2333 13.9524C16.7581 11.4687 19.7907 9.56131 23.1228 8.36124C23.1155 9.22302 22.8865 10.0684 22.4579 10.8161C22.0294 11.5638 21.4156 12.1886 20.6757 12.6305L18.7591 13.7812L20.6766 14.9319C21.7102 15.5471 22.4893 16.5119 22.873 17.6519C23.2567 18.7918 23.2196 20.0314 22.7684 21.1463L22.04 22.9772L25.0079 22.3837C25.9433 22.2003 26.9114 22.2835 27.8019 22.6238C28.6923 22.964 29.4692 23.5477 30.044 24.3081L31.4998 26.2503L33.0473 24.188C33.5999 23.4482 34.3451 22.8744 35.2016 22.5293C36.0582 22.1842 36.993 22.081 37.9042 22.2311L40.6703 22.6819L40.0797 21.0951C39.6686 19.9891 39.6571 18.7741 40.0472 17.6605C40.4373 16.5469 41.2044 15.6047 42.2157 14.9969L44.2416 13.7812L42.324 12.6305C41.5847 12.1885 40.9714 11.5639 40.543 10.8167C40.1147 10.0694 39.8856 9.22453 39.8779 8.36321C46.8581 10.8999 52.4316 16.5946 54.8148 23.625H42.328V41.3437H46.2655V43.3125H44.2967V45.2812H51.8921C49.9091 48.2105 47.3186 50.6785 44.2967 52.5174ZM56.1092 43.3125H48.2342V41.3437H56.1092V43.3125ZM56.1092 39.375V33.4687H60.0467V39.375H56.1092ZM60.0467 60.0468H62.0155V62.0156H60.0467V60.0468ZM0.984222 60.0468H2.95297V62.0156H0.984222V60.0468Z" fill="#3B37FE"/>
<path d="M36.4219 56.1094H40.3594V58.0781H36.4219V56.1094ZM20.6719 52.1719H24.6094V54.1406H20.6719V52.1719ZM20.6719 56.1094H24.6094V58.0781H20.6719V56.1094ZM24.6094 28.5469H38.3906V30.5156H24.6094V28.5469ZM36.4219 32.4844H38.3906V34.4531H36.4219V32.4844ZM28.5469 32.4844H30.5156V34.4531H28.5469V32.4844ZM24.6094 32.4844H26.5781V34.4531H24.6094V32.4844ZM32.4844 32.4844H34.4531V34.4531H32.4844V32.4844Z" fill="#3B37FE"/>
</svg>
