<svg width="63" height="63" viewBox="0 0 63 63" fill="none" xmlns="http://www.w3.org/2000/svg">
<g clip-path="url(#clip0_601_583)">
<path d="M61.3052 54.2122C62.4722 52.5626 63.0682 50.5761 62.9937 48.5323C62.9086 46.1883 61.9473 43.9824 60.2871 42.3228L56.17 38.2056C57.0178 35.0885 57.2672 31.8777 56.9091 28.6517C56.8529 28.1455 56.3968 27.7811 55.8902 27.8365C55.7698 27.8499 55.6531 27.8868 55.547 27.9453C55.4409 28.0037 55.3473 28.0825 55.2716 28.1771C55.1959 28.2717 55.1396 28.3803 55.1058 28.4966C55.0721 28.613 55.0616 28.7349 55.075 28.8553C55.3677 31.4918 55.222 34.1172 54.6462 36.6813L53.3254 35.3605C52.6482 34.6833 51.747 34.3103 50.7885 34.3103C49.8277 34.3103 48.9265 34.6833 48.2507 35.361C46.8529 36.7602 46.8529 39.0366 48.2512 40.4347L51.7187 43.9007C50.743 45.4839 49.5859 46.9478 48.2709 48.2627C42.5012 54.0324 34.2128 56.4053 26.3138 54.6423L27.6366 53.3196C28.3137 52.6418 28.6868 51.7416 28.6868 50.7836C28.6868 49.8233 28.3133 48.9221 27.636 48.2464C26.2378 46.8486 23.9619 46.8486 22.5618 48.2464L19.0901 51.7175C17.5011 50.7416 16.0325 49.5819 14.7146 48.2626C13.3277 46.8765 12.1169 45.3248 11.1093 43.6427C11.0997 43.623 11.0925 43.6022 11.081 43.5836C10.6945 42.9295 10.3401 42.2568 10.0191 41.5681C9.56139 40.5925 9.17148 39.5865 8.85217 38.5573C8.83762 38.512 8.81964 38.4678 8.79839 38.4251C7.89855 35.4755 7.58282 32.418 7.86164 29.3346C7.88368 29.0909 7.808 28.8484 7.65125 28.6604C7.4945 28.4725 7.26951 28.3545 7.02578 28.3325C6.51957 28.2857 6.06971 28.6608 6.02357 29.1683C5.73466 32.356 6.03661 35.5188 6.91812 38.578L2.94408 42.552C1.29255 44.2031 0.331802 46.3962 0.23804 48.727C0.156337 50.7587 0.737855 52.7371 1.88662 54.3847L1.79433 54.477C1.10035 55.1711 0.718168 56.0934 0.718168 57.0745C0.718168 58.0555 1.10023 58.9778 1.79433 59.672L3.50542 61.3829C4.22118 62.0991 5.16175 62.4571 6.10244 62.4571C7.04313 62.4571 7.98321 62.0991 8.69934 61.3829L8.78203 61.3003C10.3389 62.4048 12.2007 62.9976 14.1096 62.9966C14.6762 62.9966 15.2478 62.9447 15.8169 62.8393C16.0575 62.7948 16.2707 62.6566 16.4094 62.4549C16.5481 62.2533 16.6011 62.0048 16.5566 61.7641C16.4638 61.2628 15.9812 60.9326 15.4813 61.0244C13.5972 61.3729 11.6905 60.9883 10.1129 59.9699L12.0567 58.0261C12.5335 57.5493 12.8627 56.9648 13.0223 56.3271C14.3854 57.2733 16.2763 57.1413 17.49 55.9272L19.8808 53.5369L19.8855 53.532L23.8663 49.5518C24.5464 48.8725 25.6525 48.8725 26.332 49.5523C26.6603 49.8796 26.8411 50.317 26.8411 50.7837C26.8417 51.0124 26.7969 51.239 26.7093 51.4503C26.6218 51.6615 26.4932 51.8534 26.3311 52.0147L23.8701 54.4756C23.8663 54.4789 23.8635 54.4822 23.86 54.4857L19.3688 58.9764C19.1249 59.2203 18.8646 59.4473 18.5897 59.6556C18.493 59.7287 18.4117 59.8201 18.3504 59.9246C18.2891 60.0291 18.2489 60.1446 18.2323 60.2646C18.2156 60.3847 18.2228 60.5068 18.2534 60.624C18.2839 60.7413 18.3373 60.8514 18.4104 60.948C18.4964 61.0619 18.6076 61.1543 18.7354 61.2179C18.8632 61.2815 19.004 61.3145 19.1467 61.3143C19.3476 61.3144 19.543 61.2487 19.7029 61.1273C20.0457 60.868 20.3701 60.5854 20.6737 60.2813L24.7897 56.1665C26.974 56.7589 29.2272 57.0592 31.4904 57.0596C33.8923 57.0596 36.2734 56.7192 38.5651 56.0598L42.556 60.0521C44.2074 61.7031 46.4007 62.664 48.7318 62.7571C48.8573 62.7624 48.9822 62.7649 49.1071 62.7649C51.0062 62.7649 52.8443 62.1857 54.39 61.1081L54.4833 61.2013C55.199 61.917 56.1396 62.275 57.0803 62.275C58.021 62.275 58.9611 61.917 59.6772 61.2013L61.3883 59.4902C62.0824 58.7961 62.4644 57.8738 62.4644 56.8927C62.4644 55.9118 62.0824 54.9893 61.3883 54.2958L61.3052 54.2122ZM2.08177 48.8014C2.15683 46.9351 2.92624 45.1793 4.24862 43.857L7.56842 40.5376C8.00604 41.6963 8.5278 42.8215 9.12951 43.9042L7.29735 45.7358C6.63647 46.3959 6.27262 47.2744 6.27262 48.2093C6.27262 48.9125 6.47823 49.584 6.86189 50.1544C6.21415 50.314 5.62251 50.648 5.15117 51.1201L3.21712 53.0543C2.42015 51.794 2.02074 50.316 2.08177 48.8014ZM10.7516 56.7212L8.06922 59.4032C8.06922 59.4036 8.06873 59.4036 8.06824 59.4041L7.39443 60.078C6.68199 60.7903 5.52277 60.7903 4.80996 60.078L3.09887 58.3669C2.9286 58.1976 2.7936 57.9962 2.70168 57.7743C2.60976 57.5525 2.56275 57.3146 2.56338 57.0745C2.56338 56.5866 2.75373 56.1275 3.09887 55.7825L3.75877 55.1225C3.76123 55.12 3.76357 55.1181 3.76554 55.1158L6.4562 52.4256C6.62573 52.2558 6.82714 52.1212 7.04886 52.0295C7.27058 51.9377 7.50824 51.8907 7.74819 51.8911C8.21392 51.8911 8.67916 52.0679 9.03489 52.4207L10.6696 54.0545L10.7518 54.1367C10.9219 54.306 11.0568 54.5074 11.1487 54.7291C11.2405 54.9509 11.2874 55.1887 11.2868 55.4287C11.2876 55.6688 11.2407 55.9067 11.1489 56.1286C11.057 56.3505 10.9219 56.5519 10.7516 56.7212ZM16.185 54.6221C16.032 54.7762 15.8499 54.8984 15.6494 54.9816C15.4488 55.0647 15.2337 55.1073 15.0166 55.1067C14.5753 55.1067 14.1602 54.9346 13.8481 54.6221L12.0659 52.8404C12.0659 52.8404 12.0567 52.8318 12.0567 52.8312L11.2598 52.0344L10.3456 51.1206C10.3437 51.1186 10.3413 51.1168 10.3394 51.1148L8.60226 49.3783C8.44817 49.2252 8.326 49.043 8.24285 48.8424C8.15969 48.6417 8.11719 48.4265 8.11782 48.2093C8.11782 47.7681 8.28984 47.3533 8.60226 47.0414L10.1168 45.5268C10.9601 46.8065 11.9161 48.0083 12.9734 49.1178L12.4989 49.5921C12.3698 49.7212 12.2818 49.8856 12.2462 50.0646C12.2106 50.2436 12.2289 50.4292 12.2988 50.5978C12.3687 50.7665 12.487 50.9106 12.6388 51.0119C12.7907 51.1132 12.9691 51.1673 13.1517 51.1671C13.2729 51.1673 13.393 51.1436 13.505 51.0973C13.617 51.0509 13.7188 50.9829 13.8044 50.8972L14.2941 50.4074C15.3696 51.3866 16.5266 52.2724 17.7524 53.0553L16.185 54.6221ZM49.5566 36.6651C49.8839 36.3368 50.3213 36.156 50.7881 36.156C51.2543 36.156 51.6917 36.3373 52.0205 36.6655L58.9822 43.6278C61.4633 46.1089 61.8252 50.0011 59.9752 52.8821L58.0314 50.9385C57.5629 50.4694 56.9756 50.1366 56.3324 49.9757C56.7385 49.3941 56.9581 48.7034 56.9581 47.9791C56.9581 47.0447 56.5943 46.1666 55.9334 45.5056L49.5561 39.1298C48.8769 38.4506 48.8769 37.3452 49.5566 36.6651ZM49.1159 50.016L49.5965 50.4968C49.7767 50.6764 50.0132 50.7668 50.2492 50.7668C50.4852 50.7668 50.7217 50.6765 50.902 50.4961C51.0749 50.323 51.172 50.0883 51.172 49.8436C51.1719 49.5989 51.0746 49.3642 50.9015 49.1912L50.4044 48.6943C51.3843 47.6193 52.2711 46.463 53.0553 45.2379L54.6285 46.8107C54.7825 46.9637 54.9046 47.1458 54.9876 47.3463C55.0707 47.5469 55.1131 47.762 55.1124 47.9791C55.1124 48.4203 54.9409 48.8351 54.6285 49.1476L52.8418 50.9342L52.837 50.9385L51.1259 52.6496C51.124 52.6511 51.1226 52.6529 51.121 52.6544L49.3831 54.3929C48.7386 55.0369 47.6902 55.0369 47.0452 54.3929L45.5201 52.8673C46.8017 52.0265 48.0051 51.0723 49.1159 50.016ZM48.8054 60.9134C46.939 60.8383 45.1832 60.0689 43.8609 58.7472L40.5314 55.4172C41.1493 55.1847 41.758 54.9284 42.356 54.6486C42.8803 54.4036 43.396 54.1407 43.9022 53.8604L45.7402 55.6978C46.9395 56.8965 48.7986 57.0412 50.157 56.1334C50.3157 56.7755 50.6458 57.3647 51.1255 57.8445L53.0586 59.7772C51.7979 60.574 50.3189 60.9734 48.8054 60.9134ZM60.0834 58.1847L58.3718 59.8958C57.66 60.6082 56.5006 60.6086 55.7878 59.8958L52.4309 56.5391C52.2605 56.3699 52.1255 56.1686 52.0336 55.9468C51.9417 55.725 51.8948 55.4872 51.8955 55.2471C51.8955 54.7601 52.0848 54.3021 52.4285 53.9574L54.1444 52.2414C54.3139 52.0724 54.515 51.9384 54.7362 51.8471C54.9575 51.7558 55.1946 51.709 55.4339 51.7094C55.9016 51.7094 56.3698 51.8873 56.7259 52.2434L59.4243 54.9418C59.4248 54.9418 59.4253 54.9423 59.4253 54.9428L60.0834 55.6002C60.4289 55.9454 60.6187 56.4044 60.6187 56.8927C60.6187 57.3811 60.4285 57.8397 60.0834 58.1847Z" fill="#3B37FE"/>
<path d="M9.67539 27.629C10.3526 28.3061 11.2533 28.679 12.2114 28.679C13.1721 28.679 14.0733 28.3061 14.7491 27.6284C16.1469 26.2293 16.1469 23.9529 14.7486 22.5546L11.266 19.0723C12.1677 17.6063 13.2343 16.2355 14.4464 14.9843C14.4724 14.9632 14.4978 14.9411 14.5223 14.9166C14.5521 14.8863 14.5797 14.854 14.605 14.8199L14.7142 14.7094C16.0841 13.339 17.6162 12.1409 19.2765 11.1416C19.3242 11.1231 19.3703 11.1008 19.4144 11.0748C20.0677 10.6885 20.7393 10.3341 21.427 10.013C22.4032 9.55587 23.4096 9.16613 24.4391 8.84651C24.493 8.82966 24.544 8.80714 24.593 8.78105C28.5458 7.58332 32.6993 7.4348 36.7073 8.33747L35.3697 9.67499C34.6915 10.3528 34.3179 11.2536 34.3179 12.211C34.3179 13.1704 34.692 14.0716 35.3696 14.7478C36.7683 16.1466 39.0443 16.1466 40.4425 14.7478L43.921 11.2699C45.4999 12.2428 46.9594 13.3971 48.2698 14.7094C49.7541 16.1946 51.0322 17.86 52.0689 19.6592C52.4741 20.3638 53.6276 22.8006 54.1275 24.3375C54.1405 24.4056 54.1617 24.472 54.19 24.5358C54.1905 24.5373 54.191 24.5383 54.191 24.5393C54.3765 25.152 54.7437 25.0867 55.0336 25.0867H55.0346C55.279 25.0866 55.5134 24.9894 55.6862 24.8166L60.0618 20.4427C61.7132 18.7911 62.674 16.5985 62.7672 14.2672C62.8489 12.236 62.2674 10.2571 61.1186 8.60953L61.2109 8.51724C61.9045 7.82363 62.2866 6.90127 62.2866 5.91973C62.2866 4.9388 61.9045 4.01644 61.2109 3.32283L59.4998 1.61174C58.0675 0.179846 55.7377 0.179846 54.3054 1.61174L54.2227 1.69443C52.573 0.52733 50.5878 -0.069077 48.5413 0.00622754C46.1966 0.091868 43.991 1.05323 42.3307 2.71325L38.2298 6.8144C33.6892 5.57667 28.9365 5.60977 24.4142 6.90951L20.4434 2.93794C18.7919 1.2869 16.5986 0.326026 14.2675 0.232879C12.2382 0.150684 10.2574 0.732695 8.60932 1.88146L8.51703 1.78868C7.08477 0.356787 4.755 0.35728 3.32262 1.78868L1.61202 3.49964C0.917795 4.19326 0.535736 5.11562 0.535736 6.09667C0.535736 7.07809 0.917918 8.00057 1.61202 8.69418L1.69508 8.77724C0.527738 10.4273 -0.0678081 12.4139 0.0061429 14.4576C0.0911681 16.8016 1.05253 19.007 2.71268 20.6671L9.67539 27.629ZM50.9099 10.1244C50.9225 10.1369 50.9349 10.1503 50.9479 10.1629L54.4024 13.6158C54.5564 13.7689 54.6785 13.9511 54.7616 14.1518C54.8448 14.3524 54.8873 14.5675 54.8868 14.7847C54.8868 15.2265 54.7153 15.6413 54.4024 15.9532L52.8849 17.4706C52.0428 16.19 51.088 14.9871 50.0317 13.8764L50.5062 13.4024C50.5919 13.3168 50.6599 13.215 50.7063 13.1031C50.7527 12.9911 50.7766 12.8711 50.7766 12.7499C50.7766 12.6287 50.7527 12.5087 50.7063 12.3968C50.6599 12.2848 50.5919 12.1831 50.5062 12.0974C50.4205 12.0117 50.3188 11.9437 50.2069 11.8973C50.0949 11.8509 49.9749 11.827 49.8537 11.827C49.7325 11.827 49.6125 11.8509 49.5005 11.8973C49.3886 11.9437 49.2868 12.0117 49.2012 12.0974L48.7134 12.5853C47.6392 11.6047 46.4833 10.7174 45.2584 9.93314L46.8196 8.37192C47.4641 7.7274 48.5135 7.7274 49.158 8.37192L50.9099 10.1244ZM60.9233 14.1931C60.8489 16.0595 60.0792 17.8148 58.7571 19.1371L55.4127 22.48C54.9387 21.2237 54.2433 19.8143 53.866 19.1001L55.7068 17.2587C56.3681 16.5983 56.7321 15.7201 56.7321 14.7852C56.7321 14.082 56.5264 13.4111 56.1427 12.8401C56.7907 12.6806 57.3826 12.3465 57.8539 11.8741L59.7876 9.9404C60.5849 11.2011 60.9844 12.6786 60.9233 14.1931ZM56.9027 2.38201C57.3709 2.38201 57.8386 2.56043 58.1946 2.91653L59.9062 4.62761C60.2514 4.97276 60.4412 5.43135 60.4412 5.9196C60.4412 6.40785 60.2514 6.86706 59.9062 7.21208L59.2348 7.88355C59.2329 7.88552 59.2305 7.88749 59.229 7.88933L56.549 10.569C55.8366 11.2814 54.6772 11.2814 53.965 10.569L52.2538 8.85783C51.541 8.14502 51.541 6.98568 52.2533 6.27336L55.6107 2.91665C55.7801 2.74673 55.9815 2.61201 56.2032 2.52025C56.425 2.42849 56.6627 2.38151 56.9027 2.38201ZM43.6363 4.01779C46.1179 1.53619 50.0106 1.17431 52.8926 3.02481L50.9484 4.96858C50.4787 5.43711 50.1457 6.02487 49.9851 6.66859C48.622 5.72076 46.7293 5.85254 45.5146 7.06714L39.1383 13.4429C38.4591 14.1221 37.3541 14.1221 36.674 13.4424C36.5117 13.2812 36.383 13.0893 36.2954 12.8779C36.2078 12.6665 36.1632 12.4398 36.164 12.211C36.164 11.7467 36.3453 11.3093 36.675 10.9795L43.6363 4.01779ZM8.37233 16.1787C8.2183 16.0257 8.09618 15.8437 8.01309 15.6431C7.92999 15.4425 7.88756 15.2274 7.88826 15.0103C7.88826 14.569 8.05991 14.1543 8.37233 13.8418L13.6182 8.59697C14.2627 7.95246 15.3111 7.95246 15.9556 8.59697L17.4629 10.1038C16.1823 10.9464 14.9796 11.9018 13.8691 12.9585L13.4033 12.4926C13.2302 12.3197 12.9955 12.2226 12.7508 12.2226C12.5061 12.2226 12.2714 12.3197 12.0983 12.4926C11.9254 12.6659 11.8283 12.9006 11.8283 13.1454C11.8283 13.3902 11.9254 13.6249 12.0983 13.7982L12.5781 14.2773C11.5982 15.3525 10.7118 16.5093 9.92862 17.7352L8.37233 16.1787ZM14.1939 2.07649C16.0603 2.15093 17.8166 2.92059 19.1389 4.24272L22.4544 7.55883C21.2956 7.99616 20.1701 8.51728 19.087 9.11808L17.2605 7.29157C16.0618 6.09285 14.2017 5.94815 12.8434 6.8571C12.6846 6.21442 12.3545 5.62515 11.8744 5.14552L9.94068 3.21208C11.2019 2.41474 12.6804 2.01546 14.1939 2.07649ZM2.91693 4.80468L4.62802 3.09347C4.79757 2.92373 4.999 2.78917 5.22072 2.69752C5.44245 2.60588 5.68009 2.55895 5.92001 2.55945C6.3882 2.55945 6.8559 2.73725 7.21249 3.09347L7.88113 3.76247C7.88445 3.76543 7.88777 3.76924 7.89122 3.77207L10.5699 6.4503C10.915 6.79582 11.1048 7.25441 11.1048 7.74278C11.1048 8.23116 10.915 8.68963 10.5698 9.03477L8.85824 10.7459C8.14592 11.4583 6.9867 11.4587 6.27377 10.7459L2.91693 7.38915C2.74657 7.21988 2.6115 7.01848 2.51958 6.79661C2.42765 6.57474 2.3807 6.33682 2.38144 6.09667C2.38074 5.85659 2.42772 5.61876 2.51964 5.39698C2.61157 5.1752 2.74661 4.97387 2.91693 4.80468ZM3.02558 10.1077L4.96886 12.051C5.43743 12.5204 6.02494 12.8534 6.66838 13.0142C6.26233 13.5957 6.04256 14.286 6.04256 15.0103C6.04256 15.9447 6.40691 16.8234 7.0673 17.4838L13.4436 23.8596C14.1228 24.5388 14.1228 25.6442 13.4432 26.3243C13.1154 26.6526 12.678 26.8333 12.2113 26.8333C11.9826 26.834 11.7561 26.7894 11.5448 26.7019C11.3335 26.6145 11.1416 26.486 10.9803 26.3239L4.01759 19.3617C1.53598 16.8805 1.17459 12.9888 3.02558 10.1077ZM19.0668 34.7487L14.5376 38.7631C13.8229 39.3967 13.7566 40.4935 14.39 41.2081L16.8856 44.0235C16.8885 44.0263 16.8908 44.0296 16.8933 44.0329C16.8958 44.0354 16.8976 44.0374 16.9001 44.0392L19.2937 46.7396C19.6349 47.125 20.1117 47.3216 20.5905 47.3216C20.999 47.3216 21.409 47.1784 21.7383 46.8866L26.2675 42.8717C26.9826 42.2387 27.0485 41.1413 26.415 40.4267L21.5119 34.8957C20.8784 34.1811 19.7816 34.1152 19.0668 34.7487ZM20.206 36.2051L21.9852 38.2118L17.6537 42.108L15.8464 40.0691L20.206 36.2051ZM20.5991 45.4302L18.8784 43.4889L23.2095 39.5933L24.9586 41.5657L20.5991 45.4302Z" fill="#3B37FE"/>
<path d="M41.6128 16.4306L35.1158 22.1888C34.9313 22.3517 34.7808 22.5495 34.6731 22.7708C34.5655 22.9921 34.5027 23.2326 34.4885 23.4783C34.4731 23.7239 34.5065 23.9701 34.5869 24.2027C34.6673 24.4353 34.793 24.6496 34.9567 24.8333L39.6729 30.1533C39.8484 30.3524 40.0645 30.5117 40.3066 30.6205C40.5488 30.7292 40.8114 30.785 41.0768 30.7839C41.5349 30.7839 41.9717 30.6185 42.3169 30.3124L48.8138 24.5536C48.9984 24.3909 49.1489 24.1932 49.2566 23.9719C49.3643 23.7506 49.427 23.5102 49.4412 23.2645C49.4567 23.0188 49.4234 22.7725 49.343 22.5398C49.2626 22.3072 49.1369 22.0928 48.973 21.9091L44.2573 16.5898C43.572 15.8168 42.3858 15.7457 41.6128 16.4306ZM47.5988 23.1535C47.5983 23.1651 47.593 23.1699 47.5897 23.1722V23.1727L41.0927 28.9309C41.0894 28.9339 41.0854 28.9395 41.073 28.9382C41.0614 28.9377 41.0566 28.9319 41.0538 28.9289L36.338 23.6091C36.3355 23.6066 36.3335 23.6035 36.3323 23.6001C36.331 23.5967 36.3306 23.593 36.3309 23.5894C36.3319 23.5779 36.3371 23.5731 36.34 23.5702L42.8369 17.812C42.8396 17.8096 42.8427 17.8077 42.8461 17.8065C42.8495 17.8052 42.8531 17.8047 42.8568 17.8048C42.8604 17.805 42.864 17.8059 42.8672 17.8075C42.8705 17.809 42.8735 17.8112 42.8759 17.8139L47.592 23.1338C47.595 23.1366 47.5998 23.1424 47.5988 23.1535Z" fill="#3B37FE"/>
</g>
<defs>
<clipPath id="clip0_601_583">
<rect width="63" height="63" fill="white"/>
</clipPath>
</defs>
</svg>
